SplineFontDB: 3.2
FontName: Amiri-Bold
FullName: Amiri Bold
FamilyName: Amiri
Weight: Bold
Copyright: 
Version: %s
ItalicAngle: 0
UnderlinePosition: -537
UnderlineWidth: 50
Ascent: 800
Descent: 200
InvalidEm: 0
LayerCount: 3
Layer: 0 0 "Back" 1
Layer: 1 0 "Fore" 0
Layer: 2 0 "Regular" 1
FSType: 0
OS2Version: 0
OS2_WeightWidthSlopeOnly: 0
OS2_UseTypoMetrics: 1
CreationTime: 1273266481
PfmFamily: 17
TTFWeight: 700
TTFWidth: 5
LineGap: 0
VLineGap: 0
Panose: 0 0 5 0 0 0 0 0 0 0
OS2TypoAscent: 1124
OS2TypoAOffset: 0
OS2TypoDescent: -634
OS2TypoDOffset: 0
OS2TypoLinegap: 0
OS2WinAscent: 0
OS2WinAOffset: 1
OS2WinDescent: 0
OS2WinDOffset: 1
HheadAscent: 1124
HheadAOffset: 0
HheadDescent: -634
HheadDOffset: 0
OS2CapHeight: 646
OS2XHeight: 433
OS2Vendor: 'ALIF'
Lookup: 259 9 0 "'curs' Cursive Attachment" { "'curs' Cursive Attachment-1"  } ['curs' ('DFLT' <'dflt' > 'arab' <'dflt' 'ARA ' 'URD ' 'SND ' 'KSH ' 'MLY ' > ) ]
Lookup: 260 0 0 "'mark' Generic Mark Anchor" { "'mark' Generic Mark Anchor-1"  "'mark' Generic Mark Anchor-2"  } ['mark' ('DFLT' <'dflt' > 'arab' <'dflt' 'ARA ' 'URD ' 'SND ' 'KSH ' 'MLY ' > 'latn' <'dflt' 'TRK ' > ) ]
Lookup: 260 0 0 "'mark' Dot Above" { "'mark' Dot Above-1"  } ['mark' ('DFLT' <'dflt' > 'arab' <'dflt' 'ARA ' 'URD ' 'SND ' 'KSH ' 'MLY ' > ) ]
Lookup: 260 0 0 "'mark' Dot Below" { "'mark' Dot Below-1"  } ['mark' ('DFLT' <'dflt' > 'arab' <'dflt' 'ARA ' 'URD ' 'SND ' 'KSH ' 'MLY ' > ) ]
Lookup: 260 0 0 "'mark' Dot Below Alt" { "'mark' Dot Below Alt-1"  } ['mark' ('DFLT' <'dflt' > 'arab' <'dflt' 'ARA ' 'URD ' 'SND ' 'KSH ' 'MLY ' > ) ]
Lookup: 260 0 0 "'mark' Dot Alt" { "'mark' Dot Alt-1"  } ['mark' ('DFLT' <'dflt' > 'arab' <'dflt' 'ARA ' 'URD ' 'SND ' 'KSH ' 'MLY ' > ) ]
Lookup: 260 0 0 "'mark' Two Dots Above" { "'mark' Two Dots Above-1"  } ['mark' ('DFLT' <'dflt' > 'arab' <'dflt' 'ARA ' 'URD ' 'SND ' 'KSH ' 'MLY ' > ) ]

StartChar: aAlf.fina.alt
Encoding: 65536 -1 0
Width: 786
AnchorPoint: "TashkilAbove" 366 708 basechar 0
AnchorPoint: "TashkilBelow" 233 -327 basechar 0
LayerCount: 3
Fore
SplineSet
168 768 m 0
 189 769 198 759 195 737 c 2
 187 670 l 2
 185 655 175 648 157 646 c 128
 139 644 127 641 118 637 c 128
 109 633 105 614 105 579 c 0
 106 428 117 327 138 276 c 0
 178 180 275 123 427 106 c 0
 521 96 641 96 787 105 c 0
 812 107 827 98 831 78 c 0
 832 72 833 67 832 60 c 0
 826 23 816 0 804 -8 c 0
 800 -11 795 -14 790 -15 c 1
 760 -20 686 -21 569 -21 c 0
 347 -20 204 20 139 101 c 0
 105 143 83 207 73 295 c 0
 68 340 65 375 64 400 c 0
 61 541 62 631 68 670 c 0
 72 698 82 721 98 739 c 128
 114 757 137 766 168 768 c 0
EndSplineSet
Layer: 2
SplineSet
167.96875 750.9765625 m 0
 177.409179688 750.9765625 181.477539062 746.256835938 180.17578125 736.81640625 c 2
 172.36328125 674.8046875 l 2
 171.061523438 664.387695312 165.852539062 658.69140625 156.73828125 657.71484375 c 0
 134.602539062 655.436523438 119.709960938 652.262695312 112.060546875 648.193359375 c 128
 104.411132812 644.124023438 100.09765625 637.370117188 99.12109375 627.9296875 c 128
 98.14453125 618.489257812 97.65625 601.237304688 97.65625 576.171875 c 0
 98.3076171875 424.153320312 109.700195312 322.265625 131.8359375 270.5078125 c 0
 177.734375 163.411132812 279.622070312 103.190429688 437.5 89.84375 c 0
 543.293945312 80.7294921875 659.993164062 80.8916015625 787.59765625 90.33203125 c 0
 810.383789062 91.9599609375 820.149414062 82.51953125 816.89453125 62.01171875 c 0
 810.383789062 22.6240234375 800.618164062 1.953125 787.59765625 0 c 0
 766.11328125 -3.5810546875 693.359375 -5.859375 569.3359375 -6.8359375 c 0
 352.213867188 -8.7890625 209.47265625 30.4365234375 141.11328125 110.83984375 c 24
 105.631835938 152.506835938 83.6591796875 214.518554688 75.1953125 296.875 c 0
 70.3125 345.703125 67.3828125 390.13671875 66.40625 430.17578125 c 0
 64.1279296875 552.571289062 65.4296875 631.184570312 70.3125 666.015625 c 0
 73.2421875 686.5234375 84.1474609375 707.682617188 103.02734375 729.4921875 c 0
 115.397460938 743.489257812 137.043945312 750.651367188 167.96875 750.9765625 c 0
EndSplineSet
EndChar

StartChar: aAlf.fina
Encoding: 65537 -1 1
Width: 229
AnchorPoint: "DigitAbove" -12 630 basechar 0
AnchorPoint: "TashkilBelow" 122 -327 basechar 0
AnchorPoint: "TashkilAbove" 244 684 basechar 0
AnchorPoint: "HamzaAbove" 62 752 basechar 0
AnchorPoint: "HamzaBelow" 122 -54 basechar 0
LayerCount: 3
Fore
SplineSet
79 725 m 2
 92 747 101 745 104 718 c 0
 118 594 126 481 128 378 c 128
 130 275 132 211 134 189 c 0
 137 137 169 109 229 105 c 0
 249 104 261 94 264 75 c 0
 265 68 265 55 262 38 c 128
 259 21 255 8 251 -1 c 128
 247 -10 239 -15 229 -15 c 0
 135 -15 85 31 79 121 c 0
 76 162 74 233 71 332 c 0
 68 422 57 518 37 621 c 0
 34 638 35 651 42 662 c 2
 79 725 l 2
EndSplineSet
Layer: 2
SplineSet
76.66015625 720.21484375 m 2
 83.8212890625 731.93359375 88.8671875 726.887695312 91.796875 705.078125 c 0
 104.166992188 601.887695312 112.141601562 513.508789062 115.72265625 439.94140625 c 24
 122.55859375 300.944335938 127.116210938 217.122070312 129.39453125 188.4765625 c 0
 134.27734375 126.627929688 167.643554688 93.9130859375 229.4921875 90.33203125 c 0
 246.745117188 89.35546875 253.41796875 77.1484375 249.51171875 53.7109375 c 0
 243.327148438 17.9033203125 236.653320312 0 229.4921875 0 c 0
 141.926757812 0 95.0517578125 40.52734375 88.8671875 121.58203125 c 0
 83.6591796875 189.94140625 80.078125 258.708007812 78.125 327.880859375 c 152
 76.171875 397.053710938 72.1845703125 453.043945312 66.162109375 495.849609375 c 128
 60.1396484375 538.655273438 52.0830078125 587.565429688 41.9921875 642.578125 c 0
 40.0390625 653.3203125 41.015625 661.946289062 44.921875 668.45703125 c 2
 76.66015625 720.21484375 l 2
EndSplineSet
EndChar

StartChar: aAlf.isol
Encoding: 65538 -1 2
Width: 217
AnchorPoint: "DigitAbove" -17 625 basechar 0
AnchorPoint: "TashkilBelow" 122 -93 basechar 0
AnchorPoint: "TashkilAbove" 98 757 basechar 0
AnchorPoint: "HamzaAbove" 81 796 basechar 0
AnchorPoint: "HamzaBelow" 161 -39 basechar 0
LayerCount: 3
Fore
SplineSet
99 692 m 2
 113 722 121 715 125 672 c 2
 149 428 l 0
 169 208 164 71 135 15 c 0
 128 3 122 -2 116 -0 c 128
 110 2 106 18 107 48 c 0
 108 99 96 216 72 396 c 0
 51 562 l 2
 49 576 51 590 57 603 c 2
 99 692 l 2
EndSplineSet
Layer: 2
SplineSet
92.7734375 677.734375 m 2
 102.5390625 701.171875 108.723632812 701.823242188 111.328125 679.6875 c 0
 134.27734375 426.7578125 l 0
 159.993164062 202.1484375 158.528320312 62.1748046875 129.8828125 6.8359375 c 0
 125.9765625 -0.6513671875 122.477539062 -2.5224609375 119.384765625 1.220703125 c 128
 116.291992188 4.9638671875 114.909179688 10.4169921875 115.234375 17.578125 c 24
 116.862304688 96.3544921875 114.665039062 159.342773438 108.642578125 206.54296875 c 128
 102.620117188 253.743164062 95.3779296875 317.219726562 86.9140625 396.97265625 c 2
 65.4296875 592.7734375 l 2
 64.1279296875 603.840820312 65.91796875 615.071289062 70.80078125 626.46484375 c 2
 92.7734375 677.734375 l 2
EndSplineSet
EndChar

StartChar: aAyn.fina
Encoding: 65539 -1 3
Width: 493
AnchorPoint: "DotBelow" 293 -98 basechar 0
AnchorPoint: "TashkilBelow" 342 -24 basechar 0
AnchorPoint: "TashkilAbove" 293 801 basechar 0
AnchorPoint: "TwoDotsAbove" 239 464 basechar 0
AnchorPoint: "DotAbove" 293 464 basechar 0
LayerCount: 3
Fore
SplineSet
426 270 m 0
 461 249 478 227 476 205 c 128
 474 183 466 165 452 151 c 128
 438 137 424 129 410 124 c 1
 438 112 465 106 493 105 c 256
 521 104 536 95 539 77 c 0
 541 62 542 54 542 53 c 0
 539 8 522 -15 493 -15 c 0
 434 -15 374 20 313 88 c 1
 179 14 111 -77 106 -189 c 0
 101 -291 147 -365 242 -410 c 0
 321 -447 472 -459 693 -446 c 0
 723 -444 738 -448 739 -455 c 0
 741 -468 693 -495 597 -536 c 0
 556 -554 518 -563 485 -565 c 0
 409 -571 337 -566 271 -549 c 0
 105 -508 36 -388 64 -189 c 0
 83 -59 143 49 243 136 c 1
 230 144 213 150 192 151 c 128
 171 152 160 157 156 165 c 128
 152 173 151 181 154 188 c 0
 168 223 189 250 218 268 c 0
 287 312 357 313 426 270 c 0
EndSplineSet
Layer: 2
SplineSet
417.96875 256.8359375 m 24
 448.2421875 238.606445312 462.646484375 221.028320312 461.181640625 204.1015625 c 128
 459.716796875 187.174804688 452.229492188 171.956054688 438.720703125 158.447265625 c 128
 425.211914062 144.938476562 410.481445312 134.440429688 394.53125 126.953125 c 1
 390.299804688 125.651367188 390.788085938 123.372070312 395.99609375 120.1171875 c 0
 427.571289062 101.237304688 459.9609375 91.30859375 493.1640625 90.33203125 c 0
 517.578125 89.6806640625 528.971679688 77.4736328125 527.34375 53.7109375 c 24
 524.739257812 17.9033203125 513.346679688 0 493.1640625 0 c 0
 445.963867188 0 386.71875 30.5986328125 315.4296875 91.796875 c 0
 311.848632812 94.7265625 307.454101562 94.7265625 302.24609375 91.796875 c 0
 172.688476562 15.625 105.46875 -79.4267578125 100.5859375 -193.359375 c 0
 95.0517578125 -324.21875 166.666992188 -408.528320312 315.4296875 -446.2890625 c 1
 399.739257812 -468.098632812 535.807617188 -471.19140625 723.6328125 -455.56640625 c 0
 730.793945312 -454.915039062 734.86328125 -456.461914062 735.83984375 -460.205078125 c 128
 736.81640625 -463.948242188 733.88671875 -468.098632812 727.05078125 -472.65625 c 0
 705.241210938 -487.3046875 670.247070312 -503.662109375 622.0703125 -521.728515625 c 128
 573.893554688 -539.794921875 537.760742188 -549.479492188 513.671875 -550.78125 c 0
 421.549804688 -556.315429688 341.959960938 -550.944335938 274.90234375 -534.66796875 c 0
 111.165039062 -494.62890625 42.6435546875 -380.045898438 69.3359375 -190.91796875 c 0
 85.6123046875 -76.3349609375 135.25390625 21.484375 218.26171875 102.5390625 c 0
 232.258789062 115.885742188 242.1875 124.836914062 248.046875 129.39453125 c 128
 253.90625 133.952148438 255.534179688 137.370117188 252.9296875 139.6484375 c 0
 235.676757812 154.296875 214.518554688 162.760742188 189.453125 165.0390625 c 0
 170.573242188 166.666992188 163.249023438 172.688476562 167.48046875 183.10546875 c 24
 180.17578125 214.680664062 199.543945312 238.76953125 225.5859375 255.37109375 c 24
 289.0625 295.735351562 353.190429688 296.223632812 417.96875 256.8359375 c 24
EndSplineSet
EndChar

StartChar: aAyn.init
Encoding: 65540 -1 4
Width: 477
AnchorPoint: "DotBelow" 239 -98 basechar 0
AnchorPoint: "TashkilBelow" 239 -327 basechar 0
AnchorPoint: "TashkilAbove" 195 801 basechar 0
AnchorPoint: "TwoDotsAbove" 93 537 basechar 0
AnchorPoint: "HamzaAbove" 146 537 basechar 0
AnchorPoint: "DotAbove" 146 537 basechar 0
LayerCount: 3
Fore
SplineSet
423 248 m 2
 403 167 l 2
 401 158 392 151 378 145 c 128
 364 139 315 119 232 86 c 0
 -0 -15 l 1
 -22 -15 -38 1 -45 34 c 128
 -52 67 -39 90 -6 104 c 0
 20 115 40 123 53 129 c 1
 17 159 5 196 15 238 c 0
 36 328 84 390 159 425 c 0
 178 434 200 432 226 420 c 128
 252 408 279 387 305 360 c 0
 319 345 324 334 320 325 c 128
 316 316 299 317 270 325 c 128
 241 333 204 333 161 323 c 128
 118 313 89 294 75 264 c 0
 71 256 81 242 103 222 c 0
 159 174 241 183 347 250 c 0
 362 259 374 267 384 273 c 0
 420 296 433 288 423 248 c 2
EndSplineSet
Layer: 2
SplineSet
414.0625 251.46484375 m 2
 393.5546875 171.38671875 l 2
 391.926757812 165.52734375 386.23046875 160.807617188 376.46484375 157.2265625 c 0
 337.077148438 142.903320312 288.249023438 123.698242188 229.98046875 99.609375 c 0
 0 0 l 1
 -14.6484375 0 -24.658203125 12.2880859375 -30.029296875 36.865234375 c 128
 -35.400390625 61.4423828125 -25.390625 79.2646484375 0 90.33203125 c 0
 3.2548828125 91.6337890625 26.3671875 101.237304688 69.3359375 119.140625 c 1
 38.7373046875 145.5078125 26.85546875 175.944335938 33.69140625 210.44921875 c 24
 50.9443359375 298.014648438 103.678710938 360.188476562 191.89453125 396.97265625 c 0
 208.170898438 403.80859375 229.899414062 400.227539062 257.080078125 386.23046875 c 128
 284.260742188 372.233398438 307.780273438 353.840820312 327.63671875 331.0546875 c 0
 334.47265625 323.2421875 335.530273438 316.243164062 330.810546875 310.05859375 c 128
 326.090820312 303.874023438 319.3359375 302.571289062 310.546875 306.15234375 c 0
 271.484375 322.102539062 228.02734375 324.543945312 180.17578125 313.4765625 c 128
 132.32421875 302.409179688 102.5390625 282.877929688 90.8203125 254.8828125 c 0
 86.2626953125 244.140625 93.5869140625 230.224609375 112.79296875 213.134765625 c 128
 131.999023438 196.044921875 150.715820312 186.03515625 168.9453125 183.10546875 c 0
 222.331054688 174.967773438 284.1796875 193.359375 354.4921875 238.28125 c 0
 368.815429688 247.395507812 381.510742188 254.8828125 392.578125 260.7421875 c 24
 411.1328125 271.484375 418.293945312 268.391601562 414.0625 251.46484375 c 2
EndSplineSet
EndChar

StartChar: aAyn.isol
Encoding: 65541 -1 5
Width: 540
AnchorPoint: "DotBelow" 352 49 basechar 0
AnchorPoint: "TashkilBelow" 352 98 basechar 0
AnchorPoint: "TashkilAbove" 244 801 basechar 0
AnchorPoint: "TwoDotsAbove" 126 601 basechar 0
AnchorPoint: "DotAbove" 181 601 basechar 0
AnchorPoint: "HamzaAbove" 181 601 basechar 0
LayerCount: 3
Fore
SplineSet
237 -334 m 0
 348 -373 499 -378 688 -346 c 0
 718 -340 733 -341 734 -349 c 0
 735 -360 726 -371 708 -381 c 2
 578 -458 l 2
 555 -472 522 -479 480 -482 c 0
 393 -488 323 -485 267 -471 c 0
 104 -430 36 -311 63 -115 c 24
 77 -15 115 75 177 154 c 1
 106 186 72 218 76 249 c 0
 87 342 128 413 201 462 c 0
 228 480 258 479 293 458 c 0
 318 443 337 426 349 409 c 0
 354 401 355 395 353 389 c 128
 351 383 342 382 325 386 c 0
 252 401 186 374 125 304 c 1
 173 265 227 247 286 251 c 0
 294 252 307 258 326 270 c 0
 383 307 422 332 443 344 c 0
 475 362 487 358 481 334 c 2
 450 258 l 2
 446 248 439 241 431 237 c 0
 383 215 324 179 256 130 c 0
 162 63 111 -23 101 -128 c 24
 91 -230 137 -299 237 -334 c 0
EndSplineSet
Layer: 2
SplineSet
217.28515625 458.984375 m 24
 236.81640625 468.424804688 260.334960938 465.087890625 287.841796875 448.974609375 c 128
 315.348632812 432.861328125 334.797851562 416.666992188 346.19140625 400.390625 c 0
 353.352539062 390.299804688 348.958007812 386.881835938 333.0078125 390.13671875 c 0
 249.674804688 406.73828125 178.7109375 377.9296875 120.1171875 303.7109375 c 0
 117.1875 299.8046875 118.000976562 295.573242188 122.55859375 291.015625 c 0
 169.108398438 248.046875 223.958007812 229.98046875 287.109375 236.81640625 c 0
 297.8515625 238.118164062 313.4765625 244.954101562 333.984375 257.32421875 c 24
 411.784179688 305.500976562 455.729492188 332.03125 465.8203125 336.9140625 c 0
 478.190429688 342.7734375 481.282226562 337.077148438 475.09765625 319.82421875 c 0
 460.124023438 277.506835938 448.405273438 254.39453125 439.94140625 250.48828125 c 24
 385.905273438 226.399414062 319.82421875 185.709960938 241.69921875 128.41796875 c 0
 155.110351562 64.94140625 105.793945312 -21.484375 93.75 -130.859375 c 0
 87.5654296875 -188.151367188 101.725585938 -238.76953125 136.23046875 -282.71484375 c 0
 190.91796875 -352.05078125 314.616210938 -383.463867188 507.32421875 -376.953125 c 0
 559.407226562 -375.325195312 627.604492188 -366.862304688 711.9140625 -351.5625 c 0
 719.075195312 -350.260742188 723.307617188 -351.5625 724.609375 -355.46875 c 0
 727.864257812 -365.559570312 691.731445312 -389.485351562 616.2109375 -427.24609375 c 0
 573.893554688 -448.405273438 541.015625 -460.124023438 517.578125 -462.40234375 c 0
 419.596679688 -472.493164062 339.192382812 -470.377929688 276.3671875 -456.0546875 c 0
 129.8828125 -422.8515625 59.08203125 -332.51953125 63.96484375 -185.05859375 c 128
 68.84765625 -37.59765625 113.444335938 77.3115234375 197.75390625 159.66796875 c 1
 145.344726562 180.500976562 110.83984375 202.473632812 94.23828125 225.5859375 c 0
 87.40234375 235.026367188 84.47265625 245.60546875 85.44921875 257.32421875 c 0
 88.0537109375 288.57421875 96.3544921875 317.057617188 110.3515625 342.7734375 c 0
 140.950195312 400.390625 176.594726562 439.127929688 217.28515625 458.984375 c 24
EndSplineSet
EndChar

StartChar: aAyn.medi
Encoding: 65542 -1 6
Width: 366
AnchorPoint: "DotBelow" 156 -98 basechar 0
AnchorPoint: "TashkilBelow" 146 -327 basechar 0
AnchorPoint: "TashkilAbove" 171 801 basechar 0
AnchorPoint: "TwoDotsAbove" 73 488 basechar 0
AnchorPoint: "HamzaAbove" 127 488 basechar 0
AnchorPoint: "DotAbove" 127 488 basechar 0
LayerCount: 3
Fore
SplineSet
366 105 m 0
 391 105 406 95 410 74 c 0
 411 67 412 60 411 53 c 0
 404 8 390 -15 367 -15 c 0
 298 -15 236 20 180 87 c 1
 103 19 43 -15 -0 -15 c 0
 -24 -15 -39 2 -45 35 c 128
 -51 68 -43 90 -22 100 c 0
 -15 103 -8 105 -0 105 c 0
 43 106 79 116 108 133 c 1
 95 143 67 151 25 157 c 0
 11 159 5 168 8 185 c 0
 13 212 32 239 65 265 c 0
 127 313 198 315 275 271 c 0
 314 248 330 223 324 197 c 0
 318 172 295 148 255 125 c 1
 276 112 314 106 366 105 c 0
EndSplineSet
Layer: 2
SplineSet
366.2109375 90.33203125 m 0
 389.6484375 90.33203125 399.739257812 78.4501953125 396.484375 54.6875 c 0
 391.276367188 19.2060546875 381.184570312 0.9765625 366.2109375 0 c 0
 305.012695312 -4.2314453125 243.327148438 29.9482421875 181.15234375 102.5390625 c 1
 98.4697265625 33.5283203125 38.0859375 -0.6513671875 0 0 c 0
 -15.9501953125 0.3251953125 -26.2041015625 13.0205078125 -30.76171875 38.0859375 c 0
 -36.62109375 71.9404296875 -26.3671875 89.35546875 0 90.33203125 c 0
 41.3408203125 91.9599609375 80.7294921875 105.631835938 118.1640625 131.34765625 c 1
 96.6796875 152.506835938 66.40625 165.852539062 27.34375 171.38671875 c 0
 22.7861328125 172.038085938 21.1591796875 175.618164062 22.4609375 182.12890625 c 0
 25.7158203125 202.961914062 42.96875 226.725585938 74.21875 253.41796875 c 0
 131.510742188 299.641601562 195.80078125 301.106445312 267.08984375 257.8125 c 0
 300.944335938 237.3046875 317.057617188 217.28515625 315.4296875 197.75390625 c 152
 313.801757812 178.22265625 290.364257812 154.296875 245.1171875 125.9765625 c 1
 268.879882812 102.213867188 309.245117188 90.33203125 366.2109375 90.33203125 c 0
EndSplineSet
EndChar

StartChar: aBaa.fina
Encoding: 65543 -1 7
Width: 883
AnchorPoint: "DigitBelow" 439 -220 basechar 0
AnchorPoint: "VAbove" 461 425 basechar 0
AnchorPoint: "RingBelow" 428 -44 basechar 0
AnchorPoint: "TaaAbove" 461 327 basechar 0
AnchorPoint: "TashkilBelow" 508 -327 basechar 0
AnchorPoint: "TashkilAbove" 461 801 basechar 0
AnchorPoint: "TwoDotsBelow" 385 -176 basechar 0
AnchorPoint: "TwoDotsAbove" 407 425 basechar 0
AnchorPoint: "DotAbove" 461 425 basechar 0
AnchorPoint: "HamzaBelow" 439 -220 basechar 0
AnchorPoint: "HamzaAbove" 461 425 basechar 0
AnchorPoint: "DotBelow" 439 -220 basechar 0
LayerCount: 3
Back
SplineSet
1127.9296875 90.33203125 m 0
 1138.99707031 87.7275390625 1145.18261719 83.984375 1146.484375 79.1015625 c 0
 1147.78613281 73.5673828125 1147.78613281 65.5927734375 1146.484375 55.17578125 c 0
 1141.6015625 18.3916015625 1135.41699219 0 1127.9296875 0 c 0
 1092.12207031 -0.3251953125 1055.98925781 19.8564453125 1019.53125 60.546875 c 1
 988.932617188 23.4375 943.684570312 3.2548828125 883.7890625 0 c 0
 877.604492188 -0.3251953125 873.372070312 4.7197265625 871.09375 15.13671875 c 2
 862.3046875 56.640625 l 2
 860.676757812 63.8017578125 861.979492188 70.80078125 866.2109375 77.63671875 c 0
 870.768554688 85.44921875 876.627929688 89.6806640625 883.7890625 90.33203125 c 0
 958.0078125 95.8662109375 1007.48730469 117.67578125 1032.2265625 155.76171875 c 0
 1035.80761719 161.295898438 1039.71386719 164.0625 1043.9453125 164.0625 c 0
 1050.78125 164.0625 1054.36230469 161.784179688 1054.6875 157.2265625 c 0
 1055.33886719 149.4140625 1056.15234375 144.53125 1057.12890625 142.578125 c 0
 1077.96191406 113.932617188 1101.5625 96.5166015625 1127.9296875 90.33203125 c 0
EndSplineSet
Fore
SplineSet
112 252 m 0
 122 265 131 268 139 260 c 0
 146 253 145 244 138 233 c 0
 117 203 108 178 113 158 c 0
 134 72 234 32 410 37 c 0
 535 41 649 63 750 104 c 0
 768 111 778 125 782 146 c 0
 784 159 791 166 802 166 c 0
 813 166 818 157 818 140 c 0
 819 119 841 107 885 105 c 0
 904 104 915 95 919 78 c 0
 921 71 921 58 919 38 c 0
 915 3 904 -15 884 -15 c 0
 854 -15 826 4 799 40 c 1
 676 -49 533 -94 369 -94 c 0
 199 -94 99 -51 69 35 c 0
 53 80 54 123 70 166 c 0
 85 204 99 233 112 252 c 0
EndSplineSet
Layer: 2
SplineSet
119.62890625 253.90625 m 0
 124.836914062 260.416992188 130.045898438 261.149414062 135.25390625 256.103515625 c 128
 140.461914062 251.057617188 140.461914062 244.954101562 135.25390625 237.79296875 c 0
 111.491210938 204.58984375 102.213867188 176.7578125 107.421875 154.296875 c 0
 129.557617188 61.1982421875 230.46875 17.2529296875 410.15625 22.4609375 c 0
 531.25 26.0419921875 642.903320312 48.828125 745.1171875 90.8203125 c 0
 765.950195312 99.2841796875 779.622070312 119.140625 786.1328125 150.390625 c 0
 788.0859375 159.831054688 794.108398438 164.0625 804.19921875 163.0859375 c 0
 811.360351562 162.434570312 815.104492188 155.2734375 815.4296875 141.6015625 c 0
 816.081054688 110.026367188 838.8671875 92.9365234375 883.7890625 90.33203125 c 256
 901.041992188 89.35546875 908.528320312 78.61328125 906.25 58.10546875 c 0
 902.018554688 19.3681640625 894.53125 0 883.7890625 0 c 0
 854.166992188 0 827.1484375 15.2998046875 802.734375 45.8984375 c 0
 801.432617188 47.5263671875 797.200195312 45.8984375 790.0390625 41.015625 c 0
 670.573242188 -38.7373046875 529.215820312 -78.7763671875 365.966796875 -79.1015625 c 128
 202.717773438 -79.4267578125 105.305664062 -39.55078125 73.73046875 40.52734375 c 0
 58.4306640625 79.58984375 58.4306640625 120.1171875 73.73046875 162.109375 c 128
 89.0302734375 204.1015625 104.329101562 234.700195312 119.62890625 253.90625 c 0
EndSplineSet
EndChar

StartChar: aBaa.init
Encoding: 65544 -1 8
Width: 190
AnchorPoint: "TwoDotsAbove" 29 391 basechar 0
AnchorPoint: "TwoDotsBelowAlt" 59 -366 basechar 0
AnchorPoint: "TwoDotsBelow" 59 -171 basechar 0
AnchorPoint: "TashkilAbove" 59 801 basechar 0
AnchorPoint: "DotBelowAlt" 83 -366 basechar 0
AnchorPoint: "TashkilBelow" 83 -327 basechar 0
AnchorPoint: "HamzaBelow" 83 -171 basechar 0
AnchorPoint: "DigitBelow" 83 -171 basechar 0
AnchorPoint: "DotBelow" 83 -171 basechar 0
AnchorPoint: "TaaAbove" 85 342 basechar 0
AnchorPoint: "VAbove" 85 391 basechar 0
AnchorPoint: "HamzaAbove" 85 391 basechar 0
AnchorPoint: "DigitAbove" 85 439 basechar 0
AnchorPoint: "DotAbove" 85 439 basechar 0
AnchorPoint: "RingBelow" 107 73 basechar 0
LayerCount: 3
Back
SplineSet
-104.00390625 720.21484375 m 2
 -96.8427734375 731.93359375 -91.796875 726.887695312 -88.8671875 705.078125 c 0
 -76.4970703125 601.887695312 -68.5224609375 513.508789062 -64.94140625 439.94140625 c 24
 -58.10546875 300.944335938 -53.5478515625 217.122070312 -51.26953125 188.4765625 c 0
 -46.0615234375 124.674804688 -28.9716796875 91.9599609375 0 90.33203125 c 0
 17.2529296875 89.35546875 23.92578125 77.1484375 20.01953125 53.7109375 c 0
 13.8349609375 17.9033203125 7.1611328125 0 0 0 c 0
 -55.0126953125 0 -85.6123046875 40.52734375 -91.796875 121.58203125 c 0
 -97.0048828125 189.94140625 -100.5859375 258.708007812 -102.5390625 327.880859375 c 152
 -104.4921875 397.053710938 -108.479492188 453.043945312 -114.501953125 495.849609375 c 128
 -120.524414062 538.655273438 -128.581054688 587.565429688 -138.671875 642.578125 c 0
 -140.625 653.3203125 -139.6484375 661.946289062 -135.7421875 668.45703125 c 2
 -104.00390625 720.21484375 l 2
EndSplineSet
Fore
SplineSet
51 213 m 2
 80 275 l 2
 90 297 99 301 106 288 c 0
 139 232 146 167 129 94 c 128
 112 21 68 -15 0 -15 c 0
 -14 -15 -23 -3 -29 19 c 128
 -35 41 -37 59 -37 73 c 128
 -37 87 -30 96 -16 102 c 0
 -11 104 -6 105 0 105 c 0
 39 104 66 112 84 128 c 1
 80 145 73 160 61 173 c 128
 49 186 45 200 51 213 c 2
EndSplineSet
Layer: 2
SplineSet
59.5703125 211.42578125 m 2
 87.890625 273.4375 l 2
 93.75 286.1328125 99.9345703125 286.295898438 106.4453125 273.92578125 c 24
 132.8125 225.422851562 137.6953125 166.829101562 121.09375 98.14453125 c 0
 105.143554688 32.71484375 64.7783203125 0 0 0 c 0
 -7.1611328125 0 -14.16015625 16.9267578125 -20.99609375 50.78125 c 0
 -26.2041015625 77.7998046875 -19.2060546875 90.9833984375 0 90.33203125 c 0
 39.3876953125 88.7041015625 69.0107421875 99.2841796875 88.8671875 122.0703125 c 0
 89.84375 123.372070312 90.0068359375 125.651367188 89.35546875 128.90625 c 0
 85.44921875 148.112304688 76.4970703125 167.48046875 62.5 187.01171875 c 0
 56.640625 195.149414062 55.6640625 203.288085938 59.5703125 211.42578125 c 2
EndSplineSet
EndChar

StartChar: aBaa.isol
Encoding: 65545 -1 9
Width: 926
AnchorPoint: "DigitBelow" 488 -195 basechar 0
AnchorPoint: "VAbove" 461 425 basechar 0
AnchorPoint: "RingBelow" 415 29 basechar 0
AnchorPoint: "TaaAbove" 461 327 basechar 0
AnchorPoint: "TashkilBelow" 537 -327 basechar 0
AnchorPoint: "TashkilAbove" 461 801 basechar 0
AnchorPoint: "TwoDotsBelow" 439 -146 basechar 0
AnchorPoint: "TwoDotsAbove" 407 425 basechar 0
AnchorPoint: "DotBelow" 488 -195 basechar 0
AnchorPoint: "HamzaBelow" 488 -146 basechar 0
AnchorPoint: "HamzaAbove" 461 425 basechar 0
AnchorPoint: "DotAbove" 461 425 basechar 0
LayerCount: 3
Fore
SplineSet
92 74 m 24
 59 115 54 166 76 229 c 0
 85 254 102 282 128 311 c 0
 137 321 145 323 152 316 c 0
 159 309 158 301 149 292 c 0
 125 267 115 243 119 221 c 0
 132 144 231 106 419 106 c 0
 578 106 709 134 813 193 c 1
 807 217 793 240 769 261 c 0
 763 267 762 275 765 285 c 2
 794 373 l 2
 800 391 811 389 825 367 c 0
 859 315 870 250 857 173 c 0
 850 135 836 110 814 96 c 0
 705 27 572 -13 415 -21 c 0
 257 -29 150 3 92 74 c 24
EndSplineSet
Layer: 2
SplineSet
820.80078125 371.58203125 m 0
 839.680664062 350.09765625 852.375976562 320.068359375 858.88671875 281.494140625 c 128
 865.397460938 242.919921875 864.665039062 205.485351562 856.689453125 169.189453125 c 128
 848.713867188 132.893554688 835.44921875 109.375 816.89453125 98.6328125 c 0
 710.124023438 36.4580078125 576.741210938 1.3837890625 416.748046875 -6.591796875 c 128
 256.754882812 -14.5673828125 149.4140625 15.2998046875 94.7265625 83.0078125 c 0
 59.2451171875 126.627929688 54.0361328125 177.734375 79.1015625 236.328125 c 0
 89.5185546875 260.7421875 107.421875 286.784179688 132.8125 314.453125 c 0
 137.043945312 319.010742188 141.276367188 320.637695312 145.5078125 319.3359375 c 128
 149.739257812 318.034179688 152.262695312 315.266601562 153.076171875 311.03515625 c 128
 153.889648438 306.803710938 152.83203125 303.059570312 149.90234375 299.8046875 c 0
 137.858398438 286.458007812 128.336914062 272.053710938 121.337890625 256.591796875 c 128
 114.338867188 241.129882812 112.467773438 227.702148438 115.72265625 216.30859375 c 0
 139.16015625 130.37109375 236.083984375 88.7041015625 406.494140625 91.30859375 c 128
 576.904296875 93.9130859375 716.471679688 126.627929688 825.1953125 189.453125 c 1
 822.916992188 214.518554688 806.965820312 246.256835938 777.34375 284.66796875 c 0
 775.390625 287.272460938 776.123046875 296.223632812 779.541015625 311.5234375 c 128
 782.958984375 326.823242188 790.52734375 346.842773438 802.24609375 371.58203125 c 0
 806.477539062 380.696289062 812.663085938 380.696289062 820.80078125 371.58203125 c 0
EndSplineSet
EndChar

StartChar: aBaa.medi
Encoding: 65546 -1 10
Width: 244
AnchorPoint: "TwoDotsAbove" 59 361 basechar 0
AnchorPoint: "TwoDotsBelow" 78 -122 basechar 0
AnchorPoint: "TashkilBelow" 117 -327 basechar 0
AnchorPoint: "RingBelow" 122 59 basechar 0
AnchorPoint: "TaaAbove" 122 327 basechar 0
AnchorPoint: "VAbove" 122 361 basechar 0
AnchorPoint: "HamzaAbove" 122 361 basechar 0
AnchorPoint: "DigitAbove" 122 425 basechar 0
AnchorPoint: "DotAbove" 122 425 basechar 0
AnchorPoint: "TashkilAbove" 122 801 basechar 0
AnchorPoint: "HamzaBelow" 127 -171 basechar 0
AnchorPoint: "DigitBelow" 127 -171 basechar 0
AnchorPoint: "DotBelow" 127 -171 basechar 0
LayerCount: 3
Fore
SplineSet
182 145 m 1
 202 120 222 106 244 104 c 256
 262 102 273 96 276 84 c 0
 278 76 278 62 276 42 c 128
 274 22 269 8 265 -1 c 128
 261 -10 254 -15 244 -15 c 0
 205 -15 170 7 136 49 c 1
 95 7 49 -15 0 -15 c 0
 -14 -15 -23 -6 -27 12 c 2
 -36 53 l 2
 -38 64 -35 75 -28 86 c 128
 -21 97 -12 104 0 105 c 0
 79 111 128 131 146 164 c 0
 152 174 158 179 165 179 c 0
 175 179 180 173 180 162 c 128
 180 151 182 146 182 145 c 1
EndSplineSet
Layer: 2
SplineSet
244.140625 90.33203125 m 1
 255.208007812 87.7275390625 261.393554688 83.8212890625 262.6953125 78.61328125 c 128
 263.997070312 73.4052734375 263.997070312 65.5927734375 262.6953125 55.17578125 c 0
 257.8125 18.3916015625 251.627929688 0 244.140625 0 c 0
 208.333007812 -0.3251953125 172.200195312 19.8564453125 135.7421875 60.546875 c 1
 106.120117188 24.4140625 60.8720703125 4.2314453125 0 0 c 0
 -6.1845703125 -0.3251953125 -10.4169921875 4.7197265625 -12.6953125 15.13671875 c 2
 -21.484375 56.640625 l 2
 -23.1123046875 63.4765625 -21.728515625 70.6376953125 -17.333984375 78.125 c 128
 -12.939453125 85.6123046875 -7.1611328125 89.6806640625 0 90.33203125 c 0
 74.21875 95.8662109375 123.698242188 117.67578125 148.4375 155.76171875 c 0
 152.018554688 161.295898438 156.575195312 164.0625 162.109375 164.0625 c 128
 167.643554688 164.0625 170.654296875 160.969726562 171.142578125 154.78515625 c 128
 171.630859375 148.600585938 172.36328125 144.53125 173.33984375 142.578125 c 1
 195.149414062 112.629882812 218.75 95.21484375 244.140625 90.33203125 c 1
EndSplineSet
EndChar

StartChar: aDal.fina
Encoding: 65547 -1 11
Width: 471
AnchorPoint: "VAbove" 334 586 basechar 0
AnchorPoint: "TashkilBelow" 244 -327 basechar 0
AnchorPoint: "TashkilAbove" 232 801 basechar 0
AnchorPoint: "TwoDotsBelow" 190 -122 basechar 0
AnchorPoint: "TwoDotsAbove" 280 635 basechar 0
AnchorPoint: "RingBelow" 205 59 basechar 0
AnchorPoint: "TaaAbove" 334 586 basechar 0
AnchorPoint: "DotAbove" 334 635 basechar 0
AnchorPoint: "HamzaBelow" 244 -122 basechar 0
AnchorPoint: "HamzaAbove" 334 635 basechar 0
AnchorPoint: "DotBelow" 244 -122 basechar 0
LayerCount: 3
Fore
SplineSet
504 69 m 128
 509 50 509 33 504 17 c 0
 497 -4 487 -15 471 -15 c 0
 420 -14 385 31 368 119 c 1
 347 69 321 36 292 23 c 0
 264 10 220 5 160 5 c 0
 68 5 41 55 78 156 c 0
 82 167 88 172 95 172 c 128
 102 172 107 165 112 153 c 0
 117 140 125 134 135 132 c 0
 197 122 253 126 302 145 c 0
 329 155 344 170 349 189 c 1
 349 196 345 231 336 293 c 128
 327 355 322 393 321 406 c 128
 320 419 323 434 330 451 c 2
 353 502 l 2
 357 511 363 516 370 516 c 128
 377 516 381 510 382 500 c 0
 402 337 418 232 431 183 c 128
 444 134 457 108 471 104 c 256
 488 99 499 88 504 69 c 128
EndSplineSet
Layer: 2
SplineSet
471.19140625 90.33203125 m 0
 481.282226562 87.7275390625 487.956054688 78.857421875 491.2109375 63.720703125 c 128
 494.465820312 48.583984375 494.059570312 34.0986328125 489.990234375 20.263671875 c 128
 485.920898438 6.4287109375 479.655273438 -0.3251953125 471.19140625 0 c 0
 427.24609375 2.6044921875 397.4609375 39.0625 381.8359375 109.375 c 0
 376.953125 131.510742188 374.348632812 142.741210938 374.0234375 143.06640625 c 0
 372.0703125 148.274414062 370.1171875 147.94921875 368.1640625 142.08984375 c 0
 347.331054688 85.7744140625 320.637695312 50.9443359375 288.0859375 37.59765625 c 0
 246.745117188 20.99609375 190.592773438 14.9736328125 119.62890625 19.53125 c 0
 64.2900390625 23.1123046875 50.1298828125 67.0576171875 77.1484375 151.3671875 c 0
 80.078125 160.481445312 84.9609375 165.690429688 91.796875 166.9921875 c 128
 98.6328125 168.293945312 103.352539062 163.899414062 105.95703125 153.80859375 c 0
 111.491210938 134.602539062 120.60546875 123.53515625 133.30078125 120.60546875 c 0
 197.102539062 106.93359375 255.208007812 110.514648438 307.6171875 131.34765625 c 0
 333.659179688 141.764648438 350.749023438 160.15625 358.88671875 186.5234375 c 0
 360.188476562 191.081054688 355.712890625 227.05078125 345.458984375 294.43359375 c 128
 335.205078125 361.81640625 329.264648438 402.913085938 327.63671875 417.724609375 c 128
 326.008789062 432.536132812 326.985351562 443.84765625 330.56640625 451.66015625 c 0
 341.633789062 474.772460938 349.284179688 491.69921875 353.515625 502.44140625 c 0
 355.46875 507.32421875 358.967773438 509.440429688 364.013671875 508.7890625 c 128
 369.059570312 508.137695312 371.907226562 504.8828125 372.55859375 499.0234375 c 0
 388.834960938 359.049804688 406.575195312 247.55859375 425.78125 164.55078125 c 0
 435.872070312 120.280273438 451.008789062 95.5400390625 471.19140625 90.33203125 c 0
EndSplineSet
EndChar

StartChar: aDal.isol
Encoding: 65548 -1 12
Width: 450
AnchorPoint: "VAbove" 205 537 basechar 0
AnchorPoint: "TashkilBelow" 244 -327 basechar 0
AnchorPoint: "TashkilAbove" 205 801 basechar 0
AnchorPoint: "TwoDotsBelow" 190 -146 basechar 0
AnchorPoint: "TwoDotsAbove" 151 586 basechar 0
AnchorPoint: "RingBelow" 239 54 basechar 0
AnchorPoint: "TaaAbove" 205 537 basechar 0
AnchorPoint: "HamzaBelow" 244 -146 basechar 0
AnchorPoint: "HamzaAbove" 205 586 basechar 0
AnchorPoint: "DotBelow" 244 -146 basechar 0
AnchorPoint: "DotAbove" 205 586 basechar 0
LayerCount: 3
Fore
SplineSet
180 285 m 0
 166 291 164 306 172 329 c 128
 180 352 189 371 197 387 c 128
 205 403 216 407 229 400 c 0
 312 351 361 282 379 193 c 0
 388 145 388 103 375 67 c 0
 368 45 357 31 345 26 c 0
 275 -2 215 -18 165 -21 c 0
 92 -26 65 14 86 99 c 0
 90 115 96 124 105 124 c 0
 112 124 117 120 122 112 c 128
 127 104 157 103 213 110 c 128
 269 117 312 128 343 143 c 1
 333 194 279 241 180 285 c 0
EndSplineSet
Layer: 2
SplineSet
170.41015625 321.77734375 m 0
 181.15234375 354.329101562 190.754882812 375.48828125 199.21875 385.25390625 c 0
 204.752929688 391.764648438 212.239257812 392.415039062 221.6796875 387.20703125 c 0
 310.546875 338.053710938 362.467773438 272.4609375 377.44140625 190.4296875 c 24
 385.905273438 144.206054688 383.952148438 103.515625 371.58203125 68.359375 c 0
 368.000976562 57.9423828125 361.002929688 49.9677734375 350.5859375 44.43359375 c 0
 287.109375 11.8818359375 217.122070312 -4.8828125 140.625 -5.859375 c 0
 87.5654296875 -6.5107421875 69.0107421875 27.34375 84.9609375 95.703125 c 0
 86.9140625 103.515625 90.9833984375 107.91015625 97.16796875 108.88671875 c 0
 101.07421875 109.211914062 106.120117188 106.770507812 112.3046875 101.5625 c 0
 125 90.8203125 149.90234375 87.890625 187.01171875 92.7734375 c 24
 267.741210938 103.190429688 320.637695312 115.885742188 345.703125 130.859375 c 0
 347.981445312 132.161132812 348.6328125 136.067382812 347.65625 142.578125 c 0
 335.286132812 209.309570312 281.086914062 261.393554688 185.05859375 298.828125 c 0
 172.038085938 304.036132812 167.155273438 311.686523438 170.41015625 321.77734375 c 0
EndSplineSet
EndChar

StartChar: aFaa.fina
Encoding: 65549 -1 13
Width: 1005
AnchorPoint: "DotAlt" 439 -244 basechar 0
AnchorPoint: "TwoDotsBelow" 781 -146 basechar 0
AnchorPoint: "DotBelow" 830 -146 basechar 0
AnchorPoint: "TashkilBelow" 488 -327 basechar 0
AnchorPoint: "TashkilAbove" 684 801 basechar 0
AnchorPoint: "HamzaAbove" 684 488 basechar 0
AnchorPoint: "TwoDotsAbove" 635 488 basechar 0
AnchorPoint: "DotAbove" 684 488 basechar 0
LayerCount: 3
Fore
SplineSet
778 300 m 0
 825 371 866 390 902 357 c 128
 938 324 949 264 933 179 c 0
 929 158 921 134 909 108 c 1
 931 103 964 103 1006 105 c 0
 1025 106 1037 98 1042 79 c 0
 1044 72 1045 66 1045 60 c 0
 1044 12 1031 -13 1006 -15 c 0
 946 -20 888 -9 833 16 c 1
 690 -66 535 -107 367 -107 c 0
 157 -107 55 -49 63 68 c 0
 66 114 83 162 114 214 c 0
 127 235 138 242 149 233 c 0
 155 228 154 219 147 205 c 0
 125 164 118 135 126 121 c 0
 161 56 246 25 381 27 c 128
 516 29 633 49 736 84 c 1
 720 103 715 133 722 173 c 128
 729 213 747 255 778 300 c 0
839 234 m 0
 811 236 789 216 772 173 c 1
 782 147 800 133 824 133 c 128
 848 133 867 142 882 161 c 1
 880 208 866 232 839 234 c 0
EndSplineSet
Layer: 2
SplineSet
785.15625 282.2265625 m 0
 827.1484375 344.401367188 862.629882812 362.629882812 891.6015625 336.9140625 c 24
 928.059570312 304.362304688 940.104492188 252.604492188 927.734375 181.640625 c 0
 923.502929688 157.551757812 913.411132812 130.208007812 897.4609375 99.609375 c 1
 922.200195312 89.84375 958.333007812 86.7509765625 1005.859375 90.33203125 c 0
 1022.13574219 91.30859375 1030.2734375 81.0546875 1030.2734375 59.5703125 c 0
 1030.2734375 20.8330078125 1022.13574219 0.9765625 1005.859375 0 c 0
 934.895507812 -4.8828125 876.790039062 3.5810546875 831.54296875 25.390625 c 1
 791.50390625 -1.953125 738.606445312 -25.7158203125 672.8515625 -45.8984375 c 0
 530.2734375 -89.1923828125 396.159179688 -102.213867188 270.5078125 -84.9609375 c 0
 205.078125 -75.8466796875 154.215820312 -58.1865234375 117.919921875 -31.982421875 c 128
 81.6240234375 -5.7783203125 63.4765625 28.1572265625 63.4765625 69.82421875 c 128
 63.4765625 111.491210938 83.1708984375 164.55078125 122.55859375 229.00390625 c 0
 125.163085938 233.235351562 128.662109375 235.3515625 133.056640625 235.3515625 c 128
 137.451171875 235.3515625 140.706054688 233.479492188 142.822265625 229.736328125 c 128
 144.938476562 225.993164062 144.53125 221.6796875 141.6015625 216.796875 c 24
 114.909179688 169.596679688 107.258789062 135.416992188 118.65234375 114.2578125 c 0
 156.73828125 43.9453125 242.024414062 9.9287109375 374.51171875 12.20703125 c 0
 529.133789062 14.8115234375 655.2734375 35.15625 752.9296875 73.2421875 c 1
 728.840820312 90.8203125 720.784179688 119.140625 728.759765625 158.203125 c 128
 736.735351562 197.265625 755.534179688 238.606445312 785.15625 282.2265625 c 0
840.33203125 248.53515625 m 0
 813.313476562 251.790039062 790.364257812 226.5625 771.484375 172.8515625 c 1
 774.739257812 161.784179688 781.086914062 151.611328125 790.52734375 142.333984375 c 128
 799.967773438 133.056640625 809.407226562 126.790039062 818.84765625 123.53515625 c 128
 828.288085938 120.280273438 840.8203125 122.721679688 856.4453125 130.859375 c 128
 872.0703125 138.997070312 882.32421875 147.4609375 887.20703125 156.25 c 1
 885.579101562 214.518554688 869.954101562 245.280273438 840.33203125 248.53515625 c 0
EndSplineSet
EndChar

StartChar: aFaa.init
Encoding: 65550 -1 14
Width: 295
AnchorPoint: "TwoDotsBelow" 98 -146 basechar 0
AnchorPoint: "DotBelow" 146 -146 basechar 0
AnchorPoint: "TashkilBelow" 146 -327 basechar 0
AnchorPoint: "TashkilAbove" 78 801 basechar 0
AnchorPoint: "TwoDotsAbove" 59 562 basechar 0
AnchorPoint: "HamzaAbove" 78 562 basechar 0
AnchorPoint: "DotAbove" 78 562 basechar 0
LayerCount: 3
Fore
SplineSet
77 320 m 0
 62 320 53 306 51 276 c 1
 61 273 74 271 90 273 c 128
 106 275 115 279 119 285 c 1
 104 308 90 320 77 320 c 0
102 443 m 0
 122 443 139 436 152 423 c 0
 205 369 232 296 232 204 c 0
 232 151 222 111 203 86 c 1
 149 17 81 -17 0 -15 c 0
 -16 -15 -27 -4 -32 16 c 0
 -37 36 -37 55 -32 74 c 0
 -27 94 -17 104 -1 105 c 0
 83 111 145 131 183 167 c 1
 181 189 178 203 175 206 c 24
 171 211 167 209 162 201 c 0
 149 179 132 166 112 161 c 0
 47 145 12 162 8 212 c 0
 3 270 11 323 33 371 c 128
 55 419 78 443 102 443 c 0
EndSplineSet
Layer: 2
SplineSet
115.234375 409.1796875 m 0
 124.0234375 409.1796875 134.765625 403.645507812 147.4609375 392.578125 c 0
 207.03125 340.168945312 235.188476562 274.250976562 231.93359375 194.82421875 c 0
 230.305664062 152.83203125 220.051757812 119.465820312 201.171875 94.7265625 c 0
 152.34375 31.5751953125 85.2861328125 0 0 0 c 1
 -8.4638671875 -0.3251953125 -14.6484375 7.2431640625 -18.5546875 22.705078125 c 128
 -22.4609375 38.1669921875 -22.705078125 53.1416015625 -19.287109375 67.626953125 c 128
 -15.869140625 82.1123046875 -9.4404296875 89.6806640625 0 90.33203125 c 0
 83.3330078125 95.8662109375 145.99609375 119.62890625 187.98828125 161.62109375 c 1
 186.360351562 181.477539062 183.268554688 194.661132812 178.7109375 201.171875 c 128
 174.153320312 207.682617188 170.41015625 210.612304688 167.48046875 209.9609375 c 128
 164.55078125 209.309570312 162.59765625 207.844726562 161.62109375 205.56640625 c 0
 150.227539062 176.594726562 132.975585938 159.504882812 109.86328125 154.296875 c 0
 36.62109375 138.671875 3.0927734375 166.9921875 9.27734375 239.2578125 c 0
 12.20703125 274.739257812 25.390625 312.01171875 48.828125 351.07421875 c 128
 72.265625 390.13671875 94.4013671875 409.504882812 115.234375 409.1796875 c 0
82.03125 300.78125 m 0
 66.7314453125 300.129882812 57.6171875 287.272460938 54.6875 262.20703125 c 0
 54.3623046875 258.625976562 54.8505859375 256.672851562 56.15234375 256.34765625 c 0
 69.1728515625 252.44140625 82.6826171875 251.46484375 96.6796875 253.41796875 c 128
 110.676757812 255.37109375 119.62890625 259.440429688 123.53515625 265.625 c 1
 108.235351562 289.713867188 94.4013671875 301.432617188 82.03125 300.78125 c 0
EndSplineSet
EndChar

StartChar: aFaa.isol
Encoding: 65551 -1 15
Width: 983
AnchorPoint: "DotAlt" 488 -146 basechar 0
AnchorPoint: "TwoDotsBelow" 781 -49 basechar 0
AnchorPoint: "DotBelow" 830 -49 basechar 0
AnchorPoint: "TashkilBelow" 526 -327 basechar 0
AnchorPoint: "TashkilAbove" 635 801 basechar 0
AnchorPoint: "TwoDotsAbove" 581 659 basechar 0
AnchorPoint: "DotAbove" 635 659 basechar 0
AnchorPoint: "HamzaAbove" 635 659 basechar 0
LayerCount: 3
Fore
SplineSet
797 377 m 0
 804 383 803 390 796 396 c 0
 772 416 753 414 740 390 c 0
 737 384 737 380 741 376 c 0
 760 360 779 360 797 377 c 0
869 480 m 1
 899 430 915 364 920 282 c 0
 922 252 919 227 910 206 c 0
 891 161 850 122 788 87 c 128
 726 52 653 25 568 6 c 128
 483 -13 404 -23 333 -23 c 0
 165 -24 76 33 64 148 c 0
 61 174 65 204 74 238 c 128
 83 272 93 295 105 310 c 128
 117 325 126 330 133 325 c 128
 140 320 139 309 130 292 c 0
 96 230 101 185 141 156 c 0
 208 108 313 92 459 110 c 0
 588 126 709 164 823 225 c 0
 857 243 874 260 876 276 c 1
 876 283 870 295 857 310 c 1
 844 281 820 262 784 254 c 0
 723 243 691 268 688 330 c 0
 687 376 707 431 748 493 c 0
 767 523 786 538 807 537 c 128
 828 536 848 517 869 480 c 1
EndSplineSet
Layer: 2
SplineSet
796.38671875 503.90625 m 0
 823.405273438 512.370117188 849.772460938 496.012695312 875.48828125 454.833984375 c 128
 901.204101562 413.655273438 916.178710938 355.793945312 920.41015625 281.25 c 0
 922.038085938 253.90625 918.782226562 230.793945312 910.64453125 211.9140625 c 24
 893.06640625 170.247070312 851.969726562 132.649414062 787.353515625 99.12109375 c 128
 722.737304688 65.5927734375 648.4375 39.3876953125 564.453125 20.5078125 c 128
 480.46875 1.6279296875 403.483398438 -7.9755859375 333.49609375 -8.30078125 c 0
 165.202148438 -9.27734375 75.3583984375 43.2939453125 63.96484375 149.4140625 c 0
 62.01171875 167.643554688 64.453125 193.440429688 71.2890625 226.806640625 c 128
 78.125 260.172851562 92.4482421875 292.155273438 114.2578125 322.75390625 c 0
 117.512695312 327.311523438 121.256835938 329.345703125 125.48828125 328.857421875 c 128
 129.719726562 328.369140625 132.568359375 326.090820312 134.033203125 322.021484375 c 128
 135.498046875 317.952148438 134.928710938 313.801757812 132.32421875 309.5703125 c 0
 84.7978515625 233.073242188 84.6357421875 177.897460938 131.8359375 144.04296875 c 0
 201.171875 93.9130859375 310.872070312 77.7998046875 460.9375 95.703125 c 0
 583.659179688 110.3515625 706.54296875 149.088867188 829.58984375 211.9140625 c 0
 865.72265625 230.143554688 886.393554688 251.301757812 891.6015625 275.390625 c 1
 888.671875 291.666992188 880.045898438 305.500976562 865.72265625 316.89453125 c 0
 864.420898438 318.196289062 862.629882812 316.731445312 860.3515625 312.5 c 0
 842.122070312 277.34375 819.3359375 257.8125 791.9921875 253.90625 c 0
 737.956054688 246.09375 706.54296875 267.415039062 697.75390625 317.87109375 c 0
 691.89453125 352.05078125 710.9375 402.995117188 754.8828125 470.703125 c 24
 765.950195312 487.629882812 779.78515625 498.698242188 796.38671875 503.90625 c 0
806.640625 362.79296875 m 0
 813.151367188 368.977539062 812.825195312 375.163085938 805.6640625 381.34765625 c 0
 781.901367188 401.530273438 763.346679688 399.577148438 750 375.48828125 c 0
 746.745117188 369.62890625 747.0703125 364.909179688 750.9765625 361.328125 c 0
 769.856445312 345.051757812 788.411132812 345.540039062 806.640625 362.79296875 c 0
EndSplineSet
EndChar

StartChar: aFaa.medi
Encoding: 65552 -1 16
Width: 378
AnchorPoint: "TwoDotsBelow" 132 -146 basechar 0
AnchorPoint: "DotBelow" 181 -146 basechar 0
AnchorPoint: "TashkilBelow" 161 -327 basechar 0
AnchorPoint: "TashkilAbove" 220 801 basechar 0
AnchorPoint: "TwoDotsAbove" 146 586 basechar 0
AnchorPoint: "DotAbove" 237 586 basechar 0
AnchorPoint: "HamzaAbove" 195 586 basechar 0
LayerCount: 3
Fore
SplineSet
283 394 m 0
 290 394 296 392 300 390 c 0
 320 378 332 356 338 325 c 0
 347 271 340 220 319 173 c 0
 311 156 302 140 292 123 c 1
 325 112 354 106 379 105 c 0
 394 104 402 89 405 59 c 128
 408 29 406 9 399 -2 c 1
 394 -9 388 -14 380 -15 c 0
 324 -21 254 -2 171 41 c 1
 147 30 116 18 78 5 c 128
 40 -8 14 -15 -1 -15 c 128
 -16 -15 -26 -6 -31 14 c 128
 -36 34 -35 54 -31 73 c 128
 -27 92 -17 102 -2 105 c 1
 31 110 61 117 90 126 c 1
 88 155 92 185 104 216 c 0
 126 274 165 324 222 367 c 0
 245 385 266 394 283 394 c 0
235 259 m 0
 200 260 171 244 148 213 c 1
 175 157 217 151 274 193 c 1
 274 236 261 258 235 259 c 0
EndSplineSet
Layer: 2
SplineSet
282.71484375 378.90625 m 0
 286.62109375 378.90625 289.875976562 378.254882812 292.48046875 376.953125 c 0
 308.430664062 367.1875 318.684570312 348.958007812 323.2421875 322.265625 c 0
 332.03125 271.159179688 326.334960938 223.469726562 306.15234375 179.19921875 c 0
 296.38671875 157.71484375 284.342773438 136.393554688 270.01953125 115.234375 c 1
 311.360351562 99.9345703125 347.493164062 91.6337890625 378.41796875 90.33203125 c 0
 384.602539062 90.0068359375 388.346679688 81.7060546875 389.6484375 65.4296875 c 0
 393.5546875 22.7861328125 389.811523438 0.9765625 378.41796875 0 c 0
 323.73046875 -5.5341796875 254.8828125 13.671875 171.875 57.6171875 c 1
 147.786132812 45.8984375 116.129882812 33.447265625 76.904296875 20.263671875 c 128
 37.6787109375 7.080078125 12.0439453125 0.3251953125 0 0 c 0
 -8.1376953125 -0.3251953125 -13.9970703125 6.9169921875 -17.578125 21.728515625 c 128
 -21.1591796875 36.5400390625 -21.3212890625 51.3505859375 -18.06640625 66.162109375 c 128
 -14.8115234375 80.9736328125 -8.7890625 89.0302734375 0 90.33203125 c 0
 37.7607421875 95.8662109375 73.0791015625 104.329101562 105.95703125 115.72265625 c 1
 101.07421875 145.344726562 104.98046875 177.083007812 117.67578125 210.9375 c 0
 138.18359375 266.276367188 175.78125 314.453125 230.46875 355.46875 c 0
 251.301757812 371.09375 268.717773438 378.90625 282.71484375 378.90625 c 0
237.79296875 273.4375 m 1
 206.217773438 276.041992188 177.24609375 258.952148438 150.87890625 222.16796875 c 1
 143.391601562 212.727539062 146.97265625 198.079101562 161.62109375 178.22265625 c 128
 176.26953125 158.366210938 193.359375 148.4375 212.890625 148.4375 c 128
 232.421875 148.4375 254.39453125 161.1328125 278.80859375 186.5234375 c 1
 280.436523438 237.956054688 266.764648438 266.926757812 237.79296875 273.4375 c 1
EndSplineSet
EndChar

StartChar: aHaa.fina
Encoding: 65553 -1 17
Width: 639
AnchorPoint: "DigitBelow" 391 -34 basechar 0
AnchorPoint: "TaaBelow" 342 146 basechar 0
AnchorPoint: "TaaAbove" 342 439 basechar 0
AnchorPoint: "TashkilBelow" 391 -24 basechar 0
AnchorPoint: "TashkilAbove" 342 801 basechar 0
AnchorPoint: "TwoDotsBelow" 336 -156 basechar 0
AnchorPoint: "TwoDotsAbove" 288 439 basechar 0
AnchorPoint: "DotBelow" 391 -156 basechar 0
AnchorPoint: "HamzaBelow" 391 -156 basechar 0
AnchorPoint: "HamzaAbove" 342 439 basechar 0
AnchorPoint: "DotAbove" 342 439 basechar 0
LayerCount: 3
Fore
SplineSet
83 151 m 0
 86 232 129 274 213 275 c 0
 237 275 277 271 330 262 c 1
 416 247 504 246 594 261 c 0
 629 267 642 259 633 238 c 2
 604 169 l 2
 599 158 592 152 582 151 c 1
 542 147 507 141 479 133 c 1
 498 107 551 98 638 105 c 0
 659 107 672 95 677 71 c 1
 681 52 679 34 672 15 c 128
 665 -4 655 -15 641 -15 c 0
 551 -15 492 -3 465 21 c 128
 438 45 426 78 430 120 c 1
 372 108 319 88 270 59 c 0
 208 22 164 -22 140 -72 c 128
 116 -122 107 -170 115 -216 c 0
 132 -315 199 -376 317 -399 c 0
 419 -419 551 -419 714 -398 c 0
 740 -395 754 -399 754 -412 c 0
 754 -422 740 -431 712 -440 c 128
 684 -449 658 -463 632 -482 c 128
 606 -501 590 -512 583 -515 c 128
 576 -518 569 -520 562 -521 c 0
 363 -545 224 -526 146 -463 c 0
 83 -413 56 -333 64 -224 c 0
 77 -52 146 72 271 151 c 1
 209 160 154 154 107 131 c 0
 90 123 82 129 83 151 c 0
EndSplineSet
Layer: 2
SplineSet
208.984375 260.25390625 m 0
 234.700195312 260.579101562 274.088867188 256.184570312 327.1484375 247.0703125 c 0
 427.083007812 230.143554688 521.647460938 229.98046875 610.83984375 246.58203125 c 0
 630.37109375 250.163085938 636.23046875 243.489257812 628.41796875 226.5625 c 2
 605.46875 174.8046875 l 2
 602.864257812 169.270507812 599.12109375 166.178710938 594.23828125 165.52734375 c 0
 546.38671875 159.342773438 505.696289062 152.83203125 472.16796875 145.99609375 c 1
 476.399414062 130.696289062 485.188476562 118.815429688 498.53515625 110.3515625 c 0
 528.80859375 91.1455078125 575.846679688 84.47265625 639.6484375 90.33203125 c 24
 652.018554688 91.30859375 659.831054688 83.984375 663.0859375 68.359375 c 128
 666.340820312 52.734375 665.283203125 37.59765625 659.912109375 22.94921875 c 128
 654.541015625 8.30078125 647.786132812 0.6513671875 639.6484375 0 c 0
 516.926757812 -6.8359375 448.567382812 16.2763671875 434.5703125 69.3359375 c 0
 428.7109375 92.1220703125 427.734375 114.909179688 431.640625 137.6953125 c 1
 361.002929688 121.09375 304.362304688 98.9580078125 261.71875 71.2890625 c 0
 208.659179688 36.7841796875 168.9453125 -7.4873046875 142.578125 -61.5234375 c 128
 116.2109375 -115.559570312 106.93359375 -167.805664062 114.74609375 -218.26171875 c 0
 127.116210938 -297.688476562 173.665039062 -357.258789062 254.39453125 -396.97265625 c 24
 308.10546875 -423.33984375 423.665039062 -429.036132812 601.07421875 -414.0625 c 0
 687.01171875 -406.901367188 730.631835938 -403.157226562 731.93359375 -402.83203125 c 0
 746.58203125 -401.85546875 753.90625 -404.948242188 753.90625 -412.109375 c 128
 753.90625 -419.270507812 744.954101562 -425.78125 727.05078125 -431.640625 c 0
 698.405273438 -440.754882812 671.061523438 -454.020507812 645.01953125 -471.435546875 c 128
 618.977539062 -488.850585938 603.108398438 -498.942382812 597.412109375 -501.708984375 c 128
 591.715820312 -504.475585938 585.9375 -506.184570312 580.078125 -506.8359375 c 0
 376.301757812 -529.948242188 234.700195312 -511.393554688 155.2734375 -451.171875 c 0
 87.5654296875 -399.739257812 57.12890625 -324.381835938 63.96484375 -225.09765625 c 0
 76.66015625 -44.1083984375 159.993164062 83.49609375 313.96484375 157.71484375 c 1
 230.305664062 177.897460938 159.342773438 173.33984375 101.07421875 144.04296875 c 0
 97.16796875 142.08984375 93.1806640625 141.926757812 89.111328125 143.5546875 c 128
 85.0419921875 145.182617188 83.0078125 147.786132812 83.0078125 151.3671875 c 0
 85.2861328125 222.981445312 127.278320312 259.27734375 208.984375 260.25390625 c 0
EndSplineSet
EndChar

StartChar: aHaa.init
Encoding: 65554 -1 18
Width: 655
AnchorPoint: "DigitBelow" 303 -99 basechar 0
AnchorPoint: "TaaBelow" 303 97 basechar 0
AnchorPoint: "TaaAbove" 303 464 basechar 0
AnchorPoint: "TashkilBelow" 303 -327 basechar 0
AnchorPoint: "TashkilAbove" 303 801 basechar 0
AnchorPoint: "TwoDotsBelow" 249 -99 basechar 0
AnchorPoint: "TwoDotsAbove" 254 464 basechar 0
AnchorPoint: "HamzaBelow" 303 -99 basechar 0
AnchorPoint: "HamzaAbove" 303 464 basechar 0
AnchorPoint: "DotBelow" 303 -99 basechar 0
AnchorPoint: "DotAbove" 303 464 basechar 0
LayerCount: 3
Back
SplineSet
5.859375 218.26171875 m 0
 11.0673828125 238.76953125 24.5771484375 259.602539062 46.38671875 280.76171875 c 128
 68.1962890625 301.920898438 91.6337890625 312.663085938 116.69921875 312.98828125 c 128
 141.764648438 313.313476562 199.870117188 294.43359375 291.015625 256.34765625 c 0
 324.21875 242.350585938 366.455078125 230.549804688 417.724609375 220.947265625 c 128
 468.994140625 211.344726562 521.647460938 208.333007812 575.68359375 211.9140625 c 0
 590.33203125 212.890625 594.7265625 207.03125 588.8671875 194.3359375 c 2
 561.03515625 132.8125 l 2
 557.454101562 125 550.29296875 121.907226562 539.55078125 123.53515625 c 0
 463.704101562 136.23046875 392.415039062 132.8125 325.68359375 113.28125 c 1
 243.327148438 85.9375 177.571289062 60.05859375 128.41796875 35.64453125 c 128
 79.2646484375 11.23046875 39.7138671875 -0.6513671875 9.765625 0 c 0
 5.5341796875 0 2.1162109375 3.2548828125 -0.48828125 9.765625 c 0
 -8.30078125 30.2734375 -10.009765625 48.6650390625 -5.615234375 64.94140625 c 128
 -1.220703125 81.2177734375 3.90625 89.6806640625 9.765625 90.33203125 c 0
 97.65625 97.16796875 182.780273438 121.256835938 265.13671875 162.59765625 c 1
 176.594726562 213.37890625 95.5400390625 227.213867188 21.97265625 204.1015625 c 0
 16.7646484375 202.473632812 12.451171875 203.206054688 9.033203125 206.298828125 c 128
 5.615234375 209.391601562 4.5576171875 213.37890625 5.859375 218.26171875 c 0
-39.0625 24.90234375 m 0
 -50.1298828125 39.2255859375 -59.2451171875 55.8271484375 -66.40625 74.70703125 c 0
 -68.0341796875 78.9384765625 -69.7431640625 81.6240234375 -71.533203125 82.763671875 c 128
 -73.3232421875 83.9033203125 -74.7880859375 83.9033203125 -75.927734375 82.763671875 c 128
 -77.0673828125 81.6240234375 -77.7998046875 79.9150390625 -78.125 77.63671875 c 0
 -81.0546875 60.3837890625 -87.5654296875 42.3173828125 -97.65625 23.4375 c 0
 -108.073242188 3.90625 -116.862304688 -7.6494140625 -124.0234375 -11.23046875 c 0
 -137.370117188 -17.7412109375 -158.040039062 -16.1943359375 -186.03515625 -6.591796875 c 128
 -214.030273438 3.0107421875 -232.421875 17.9033203125 -241.2109375 38.0859375 c 1
 -265.299804688 0 -299.967773438 -18.7177734375 -345.21484375 -18.06640625 c 0
 -368.977539062 -17.7412109375 -387.451171875 -10.498046875 -400.634765625 3.662109375 c 128
 -413.818359375 17.822265625 -423.176757812 33.5283203125 -428.7109375 50.78125 c 0
 -429.036132812 51.7578125 -429.768554688 52.3271484375 -430.908203125 52.490234375 c 128
 -432.047851562 52.6533203125 -432.942382812 52.24609375 -433.59375 51.26953125 c 0
 -447.265625 36.2958984375 -459.879882812 24.9833984375 -471.435546875 17.333984375 c 128
 -482.991210938 9.6845703125 -497.55859375 3.90625 -515.13671875 0 c 0
 -522.94921875 -1.6279296875 -528.80859375 4.0693359375 -532.71484375 17.08984375 c 0
 -539.55078125 39.2255859375 -538.899414062 59.5703125 -530.76171875 78.125 c 0
 -527.180664062 86.5888671875 -522.624023438 90.33203125 -517.08984375 89.35546875 c 0
 -507.649414062 87.7275390625 -495.768554688 87.7275390625 -481.4453125 89.35546875 c 128
 -467.122070312 90.9833984375 -448.73046875 97.4931640625 -426.26953125 108.88671875 c 128
 -403.80859375 120.280273438 -385.090820312 136.393554688 -370.1171875 157.2265625 c 0
 -364.2578125 165.364257812 -357.747070312 166.50390625 -350.5859375 160.64453125 c 0
 -347.331054688 158.040039062 -346.516601562 155.2734375 -348.14453125 152.34375 c 0
 -356.608398438 138.020507812 -359.375 124.51171875 -356.4453125 111.81640625 c 0
 -354.4921875 103.02734375 -349.284179688 95.21484375 -340.8203125 88.37890625 c 128
 -332.356445312 81.54296875 -323.2421875 78.2880859375 -313.4765625 78.61328125 c 0
 -289.713867188 79.2646484375 -267.08984375 87.2392578125 -245.60546875 102.5390625 c 128
 -224.12109375 117.838867188 -207.194335938 139.16015625 -194.82421875 166.50390625 c 0
 -192.545898438 171.38671875 -189.372070312 173.991210938 -185.302734375 174.31640625 c 128
 -181.233398438 174.641601562 -177.815429688 173.176757812 -175.048828125 169.921875 c 128
 -172.282226562 166.666992188 -171.711914062 162.922851562 -173.33984375 158.69140625 c 0
 -179.19921875 143.06640625 -182.6171875 132.161132812 -183.59375 125.9765625 c 0
 -184.5703125 120.1171875 -184.08203125 116.047851562 -182.12890625 113.76953125 c 0
 -174.967773438 105.95703125 -165.283203125 99.853515625 -153.076171875 95.458984375 c 128
 -140.869140625 91.064453125 -130.045898438 88.8671875 -120.60546875 88.8671875 c 0
 -112.79296875 88.8671875 -106.93359375 92.1220703125 -103.02734375 98.6328125 c 0
 -98.7958984375 105.46875 -93.0986328125 117.350585938 -85.9375 134.27734375 c 0
 -78.7763671875 150.87890625 -74.8701171875 160.481445312 -74.21875 163.0859375 c 0
 -71.2890625 168.9453125 -67.626953125 171.305664062 -63.232421875 170.166015625 c 128
 -58.837890625 169.026367188 -55.9892578125 165.364257812 -54.6875 159.1796875 c 0
 -50.1298828125 140.950195312 -42.96875 125.244140625 -33.203125 112.060546875 c 128
 -23.4375 98.876953125 -12.5322265625 91.6337890625 -0.48828125 90.33203125 c 0
 15.13671875 88.37890625 21.97265625 71.9404296875 20.01953125 41.015625 c 0
 18.06640625 13.3466796875 11.3935546875 -0.3251953125 0 0 c 1
 -13.671875 0 -26.6923828125 8.30078125 -39.0625 24.90234375 c 0
EndSplineSet
Fore
SplineSet
6 222 m 0
 12 245 28 269 52 292 c 128
 76 315 100 327 123 327 c 128
 146 327 202 310 288 274 c 128
 374 238 470 222 575 227 c 0
 595 228 597 215 585 188 c 2
 558 126 l 2
 552 114 545 108 537 109 c 1
 460 122 388 117 321 96 c 128
 254 75 193 52 140 25 c 128
 87 -2 40 -15 0 -15 c 1
 -11 -15 -19 -8 -24 4 c 1
 -33 28 -35 49 -30 67 c 128
 -25 85 -20 96 -15 99 c 128
 -10 102 -5 104 -1 105 c 1
 102 111 187 130 257 163 c 1
 162 206 85 218 26 200 c 0
 7 193 1 201 6 222 c 0
EndSplineSet
Layer: 2
SplineSet
5.859375 218.26171875 m 0
 11.0673828125 238.76953125 24.5771484375 259.602539062 46.38671875 280.76171875 c 128
 68.1962890625 301.920898438 91.6337890625 312.663085938 116.69921875 312.98828125 c 128
 141.764648438 313.313476562 199.870117188 294.43359375 291.015625 256.34765625 c 0
 324.21875 242.350585938 366.455078125 230.549804688 417.724609375 220.947265625 c 128
 468.994140625 211.344726562 521.647460938 208.333007812 575.68359375 211.9140625 c 0
 590.33203125 212.890625 594.7265625 207.03125 588.8671875 194.3359375 c 2
 561.03515625 132.8125 l 2
 557.454101562 125 550.29296875 121.907226562 539.55078125 123.53515625 c 0
 463.704101562 136.23046875 392.415039062 132.8125 325.68359375 113.28125 c 1
 243.327148438 85.9375 177.571289062 60.05859375 128.41796875 35.64453125 c 0
 80.56640625 11.8818359375 37.7607421875 0 0 0 c 0
 -4.2314453125 0 -7.6494140625 3.2548828125 -10.25390625 9.765625 c 0
 -18.06640625 30.2734375 -19.775390625 48.6650390625 -15.380859375 64.94140625 c 128
 -10.986328125 81.2177734375 -5.859375 89.6806640625 0 90.33203125 c 0
 95.703125 97.16796875 184.08203125 121.256835938 265.13671875 162.59765625 c 1
 176.594726562 213.37890625 95.5400390625 227.213867188 21.97265625 204.1015625 c 0
 16.7646484375 202.473632812 12.451171875 203.206054688 9.033203125 206.298828125 c 128
 5.615234375 209.391601562 4.5576171875 213.37890625 5.859375 218.26171875 c 0
EndSplineSet
EndChar

StartChar: aHaa.isol
Encoding: 65555 -1 19
Width: 661
AnchorPoint: "DigitBelow" 391 -34 basechar 0
AnchorPoint: "TaaBelow" 391 146 basechar 0
AnchorPoint: "TaaAbove" 342 439 basechar 0
AnchorPoint: "TashkilBelow" 391 49 basechar 0
AnchorPoint: "TashkilAbove" 342 801 basechar 0
AnchorPoint: "TwoDotsBelow" 336 -156 basechar 0
AnchorPoint: "TwoDotsAbove" 288 439 basechar 0
AnchorPoint: "HamzaBelow" 391 -156 basechar 0
AnchorPoint: "DotAbove" 342 439 basechar 0
AnchorPoint: "HamzaAbove" 342 439 basechar 0
AnchorPoint: "DotBelow" 391 -156 basechar 0
LayerCount: 3
Fore
SplineSet
270 59 m 0
 208 22 164 -22 140 -72 c 128
 116 -122 107 -170 115 -216 c 0
 132 -315 199 -376 317 -399 c 0
 416 -419 548 -419 714 -398 c 0
 740 -395 754 -399 754 -412 c 0
 754 -422 740 -431 712 -440 c 128
 684 -449 658 -463 632 -482 c 128
 606 -501 590 -512 583 -515 c 128
 576 -518 569 -520 562 -521 c 0
 363 -545 224 -526 146 -463 c 0
 83 -413 56 -333 64 -224 c 0
 77 -52 146 72 271 151 c 1
 210 160 160 155 122 136 c 0
 105 128 97 135 98 157 c 0
 100 234 144 273 228 275 c 0
 243 275 277 271 330 262 c 0
 416 247 504 246 594 261 c 0
 629 267 642 259 633 238 c 2
 604 169 l 2
 599 156 592 149 582 148 c 0
 455 137 351 107 270 59 c 0
EndSplineSet
Layer: 2
SplineSet
632.8125 226.07421875 m 2
 608.88671875 172.36328125 l 2
 606.282226562 166.829101562 602.5390625 163.737304688 597.65625 163.0859375 c 0
 438.151367188 141.926757812 326.497070312 110.514648438 262.6953125 68.84765625 c 0
 137.370117188 -13.18359375 88.37890625 -112.141601562 115.72265625 -228.02734375 c 0
 130.696289062 -292.48046875 178.874023438 -342.610351562 260.25390625 -378.41796875 c 0
 304.19921875 -397.624023438 373.860351562 -410.075195312 469.23828125 -415.771484375 c 128
 564.616210938 -421.467773438 653.157226562 -420.573242188 734.86328125 -413.0859375 c 0
 745.280273438 -412.109375 751.953125 -413.493164062 754.8828125 -417.236328125 c 128
 757.8125 -420.979492188 757.731445312 -425.129882812 754.638671875 -429.6875 c 128
 751.545898438 -434.245117188 747.395507812 -437.336914062 742.1875 -438.96484375 c 0
 701.823242188 -450.68359375 670.084960938 -463.541992188 646.97265625 -477.5390625 c 0
 612.79296875 -498.046875 591.633789062 -508.625976562 583.49609375 -509.27734375 c 0
 387.532226562 -526.530273438 246.09375 -503.41796875 159.1796875 -439.94140625 c 128
 72.265625 -376.46484375 44.2705078125 -277.018554688 75.1953125 -141.6015625 c 128
 106.120117188 -6.1845703125 186.848632812 92.7734375 317.3828125 155.2734375 c 1
 227.213867188 177.083007812 159.66796875 174.8046875 114.74609375 148.4375 c 0
 110.83984375 146.159179688 107.014648438 145.426757812 103.271484375 146.240234375 c 128
 99.5283203125 147.053710938 97.65625 149.250976562 97.65625 152.83203125 c 0
 98.3076171875 168.45703125 101.725585938 184.895507812 107.91015625 202.1484375 c 0
 120.280273438 236.979492188 152.34375 255.859375 204.1015625 258.7890625 c 0
 229.817382812 260.090820312 270.833007812 255.208007812 327.1484375 244.140625 c 152
 383.463867188 233.073242188 431.071289062 227.864257812 469.970703125 228.515625 c 128
 508.870117188 229.166992188 556.803710938 234.375 613.76953125 244.140625 c 0
 633.30078125 247.395507812 639.6484375 241.374023438 632.8125 226.07421875 c 2
EndSplineSet
EndChar

StartChar: aHaa.medi
Encoding: 65556 -1 20
Width: 610
AnchorPoint: "DigitBelow" 293 -93 basechar 0
AnchorPoint: "TaaBelow" 293 103 basechar 0
AnchorPoint: "TaaAbove" 317 464 basechar 0
AnchorPoint: "TashkilBelow" 293 -327 basechar 0
AnchorPoint: "TashkilAbove" 317 801 basechar 0
AnchorPoint: "TwoDotsBelow" 239 -93 basechar 0
AnchorPoint: "TwoDotsAbove" 269 464 basechar 0
AnchorPoint: "DotAbove" 317 464 basechar 0
AnchorPoint: "DotBelow" 293 -93 basechar 0
AnchorPoint: "HamzaBelow" 293 -93 basechar 0
AnchorPoint: "HamzaAbove" 317 464 basechar 0
LayerCount: 3
Fore
SplineSet
12 222 m 0
 30 294 73 330 143 330 c 0
 175 330 224 315 290 283 c 0
 322 268 364 256 419 248 c 128
 474 240 527 238 579 244 c 0
 602 247 610 240 605 222 c 2
 583 148 l 2
 579 136 570 131 555 132 c 0
 528 134 506 136 486 137 c 1
 477 112 518 101 611 103 c 0
 650 104 661 76 644 18 c 1
 637 -2 626 -13 612 -15 c 0
 557 -22 513 -19 480 -7 c 0
 434 10 422 57 443 134 c 1
 389 129 339 118 292 100 c 128
 245 82 191 59 131 29 c 128
 71 -1 28 -16 0 -15 c 0
 -16 -15 -27 -5 -34 12 c 128
 -41 29 -43 48 -38 69 c 128
 -33 90 -21 101 -2 105 c 0
 54 115 102 128 143 145 c 128
 184 162 216 173 241 180 c 1
 147 211 81 217 44 198 c 0
 31 191 23 189 16 192 c 128
 9 195 8 205 12 222 c 0
EndSplineSet
Layer: 2
SplineSet
138.671875 312.01171875 m 0
 153.971679688 312.98828125 202.473632812 297.038085938 284.1796875 264.16015625 c 24
 326.171875 247.233398438 375.651367188 234.538085938 432.6171875 226.07421875 c 128
 489.583007812 217.610351562 543.782226562 216.959960938 595.21484375 224.12109375 c 0
 604.655273438 225.422851562 608.073242188 220.540039062 605.46875 209.47265625 c 0
 598.6328125 180.17578125 591.471679688 156.575195312 583.984375 138.671875 c 24
 582.03125 133.7890625 578.125 131.672851562 572.265625 132.32421875 c 0
 538.737304688 134.928710938 509.765625 136.555664062 485.3515625 137.20703125 c 1
 475.260742188 117.67578125 483.317382812 104.084960938 509.521484375 96.435546875 c 128
 535.725585938 88.7861328125 569.3359375 86.7509765625 610.3515625 90.33203125 c 0
 637.370117188 92.6103515625 643.717773438 69.9873046875 629.39453125 22.4609375 c 0
 625.163085938 8.4638671875 618.815429688 0.9765625 610.3515625 0 c 0
 559.5703125 -6.5107421875 517.903320312 -4.2314453125 485.3515625 6.8359375 c 0
 440.754882812 22.4609375 426.7578125 59.2451171875 443.359375 117.1875 c 0
 445.963867188 126.301757812 447.590820312 132.32421875 448.2421875 135.25390625 c 1
 387.043945312 131.672851562 323.2421875 119.954101562 256.8359375 100.09765625 c 0
 229.4921875 91.9599609375 186.5234375 73.2421875 127.9296875 43.9453125 c 128
 69.3359375 14.6484375 26.6923828125 0 0 0 c 0
 -9.1142578125 0 -16.2763671875 6.5107421875 -21.484375 19.53125 c 128
 -26.6923828125 32.5517578125 -27.6689453125 46.875 -24.4140625 62.5 c 0
 -20.8330078125 79.1015625 -12.6953125 88.37890625 0 90.33203125 c 0
 57.2919921875 100.422851562 103.190429688 113.118164062 137.6953125 128.41796875 c 0
 181.315429688 148.600585938 212.890625 161.458007812 232.421875 166.9921875 c 0
 238.932617188 168.9453125 241.862304688 171.549804688 241.2109375 174.8046875 c 0
 241.2109375 177.409179688 238.606445312 179.850585938 233.3984375 182.12890625 c 0
 183.268554688 203.61328125 143.473632812 215.657226562 114.013671875 218.26171875 c 128
 84.5537109375 220.866210938 57.2919921875 215.168945312 32.2265625 201.171875 c 0
 26.3671875 197.916992188 20.9150390625 197.021484375 15.869140625 198.486328125 c 128
 10.8232421875 199.951171875 9.4404296875 204.752929688 11.71875 212.890625 c 0
 28.9716796875 274.739257812 71.2890625 307.780273438 138.671875 312.01171875 c 0
EndSplineSet
EndChar

StartChar: aHeh.fina
Encoding: 65557 -1 21
Width: 379
AnchorPoint: "TashkilBelow" 190 -327 basechar 0
AnchorPoint: "TashkilAbove" 142 801 basechar 0
AnchorPoint: "TwoDotsAbove" 87 537 basechar 0
AnchorPoint: "HamzaAbove" 195 537 basechar 0
AnchorPoint: "DotAbove" 142 537 basechar 0
LayerCount: 3
Fore
SplineSet
234 261 m 1
 183 245 149 224 130 197 c 0
 127 193 128 190 133 187 c 0
 167 173 204 172 245 183 c 1
 242 204 238 230 234 261 c 1
259 464 m 2
 274 483 284 474 287 437 c 0
 316 197 l 2
 323 135 344 104 379 105 c 0
 395 105 406 98 412 83 c 1
 418 66 417 46 410 22 c 128
 403 -2 392 -15 379 -15 c 0
 337 -15 308 -4 291 17 c 128
 274 38 262 75 255 126 c 1
 230 89 212 67 202 62 c 128
 192 57 175 56 151 58 c 256
 119 60 92 68 69 83 c 256
 53 93 48 107 50 126 c 128
 52 145 59 166 72 190 c 128
 85 214 96 232 104 241 c 0
 137 276 177 306 225 333 c 1
 220 385 221 417 229 427 c 2
 259 464 l 2
EndSplineSet
Layer: 2
SplineSet
256.34765625 439.453125 m 2
 265.461914062 451.823242188 270.833007812 448.893554688 272.4609375 430.6640625 c 0
 273.4375 417.96875 278.157226562 378.662109375 286.62109375 312.744140625 c 128
 295.084960938 246.826171875 299.967773438 207.844726562 301.26953125 195.80078125 c 0
 306.477539062 142.415039062 317.87109375 110.188476562 335.44921875 99.12109375 c 0
 345.866210938 92.6103515625 360.514648438 89.6806640625 379.39453125 90.33203125 c 0
 391.11328125 90.6572265625 397.868164062 83.6591796875 399.658203125 69.3359375 c 128
 401.448242188 55.0126953125 400.065429688 40.0390625 395.5078125 24.4140625 c 128
 390.950195312 8.7890625 385.579101562 0.6513671875 379.39453125 0 c 24
 341.30859375 -3.2548828125 313.395507812 6.1845703125 295.654296875 28.3203125 c 128
 277.913085938 50.4560546875 265.461914062 90.1689453125 258.30078125 147.4609375 c 1
 239.094726562 111.328125 219.7265625 89.35546875 200.1953125 81.54296875 c 0
 186.848632812 76.3349609375 166.584960938 76.0908203125 139.404296875 80.810546875 c 128
 112.223632812 85.5302734375 92.4482421875 92.7734375 80.078125 102.5390625 c 128
 67.7080078125 112.3046875 62.5 124.104492188 64.453125 137.939453125 c 128
 66.40625 151.774414062 72.75390625 169.840820312 83.49609375 192.138671875 c 128
 94.23828125 214.436523438 102.864257812 228.840820312 109.375 235.3515625 c 0
 144.856445312 268.879882812 186.848632812 298.828125 235.3515625 325.1953125 c 1
 233.3984375 352.5390625 232.340820312 372.802734375 232.177734375 385.986328125 c 152
 232.014648438 399.169921875 235.026367188 409.993164062 241.2109375 418.45703125 c 2
 256.34765625 439.453125 l 2
242.1875 264.16015625 m 1
 190.4296875 249.51171875 153.157226562 227.05078125 130.37109375 196.77734375 c 0
 127.44140625 192.545898438 128.254882812 189.127929688 132.8125 186.5234375 c 1
 160.15625 173.176757812 196.2890625 171.38671875 241.2109375 181.15234375 c 0
 245.1171875 182.12890625 248.860351562 184.407226562 252.44140625 187.98828125 c 1
 250.163085938 209.147460938 246.745117188 234.538085938 242.1875 264.16015625 c 1
EndSplineSet
EndChar

StartChar: aHeh.init
Encoding: 65558 -1 22
Width: 452
AnchorPoint: "TashkilAbove" 146 801 basechar 0
AnchorPoint: "HamzaAbove" 180 532 basechar 0
AnchorPoint: "TashkilBelow" 195 -327 basechar 0
LayerCount: 3
Fore
SplineSet
241 232 m 1
 243 207 231 183 205 159 c 1
 266 136 314 124 348 123 c 0
 354 123 356 126 353 134 c 0
 343 164 306 197 241 232 c 1
162 176 m 1
 184 187 195 194 195 198 c 0
 192 236 182 257 164 260 c 0
 137 266 114 255 94 230 c 24
 87 222 91 214 102 207 c 0
 120 195 140 184 162 176 c 1
136 79 m 1
 80 17 34 -15 0 -15 c 0
 -13 -15 -22 -7 -29 9 c 0
 -52 68 -43 100 0 105 c 0
 28 108 49 114 62 121 c 1
 42 137 37 160 48 193 c 128
 59 226 77 259 106 291 c 1
 102 293 97 294 89 295 c 128
 81 296 76 300 74 307 c 128
 72 314 71 321 72 326 c 0
 89 392 114 425 148 425 c 128
 182 425 231 394 295 333 c 128
 359 272 395 221 402 183 c 1
 410 134 398 91 367 55 c 0
 349 34 327 24 302 27 c 0
 252 33 197 50 136 79 c 1
EndSplineSet
Layer: 2
SplineSet
85.9375 321.77734375 m 0
 101.5625 381.999023438 123.616210938 411.458007812 152.099609375 410.15625 c 128
 180.583007812 408.854492188 225.422851562 379.069335938 286.62109375 320.80078125 c 128
 347.819335938 262.532226562 381.34765625 215.8203125 387.20703125 180.6640625 c 0
 394.694335938 137.043945312 384.27734375 98.3076171875 355.95703125 64.453125 c 0
 341.633789062 47.5263671875 324.21875 40.0390625 303.7109375 41.9921875 c 0
 250.9765625 47.5263671875 194.010742188 62.01171875 132.8125 85.44921875 c 1
 69.0107421875 28.4833984375 24.7392578125 0 0 0 c 0
 -6.1845703125 -0.3251953125 -11.5556640625 5.0458984375 -16.11328125 16.11328125 c 0
 -35.64453125 61.03515625 -30.2734375 85.6123046875 0 89.84375 c 0
 24.7392578125 93.0986328125 47.8515625 102.5390625 69.3359375 118.1640625 c 1
 50.78125 133.463867188 45.5732421875 153.80859375 53.7109375 179.19921875 c 0
 67.7080078125 222.16796875 92.28515625 259.114257812 127.44140625 290.0390625 c 1
 120.60546875 300.78125 109.700195312 307.12890625 94.7265625 309.08203125 c 0
 86.9140625 310.05859375 83.984375 314.290039062 85.9375 321.77734375 c 0
158.69140625 164.55078125 m 1
 180.827148438 175.618164062 191.89453125 184.5703125 191.89453125 191.40625 c 1
 189.290039062 226.237304688 178.874023438 245.442382812 160.64453125 249.0234375 c 0
 133.625976562 254.557617188 108.723632812 243.000976562 85.9375 214.35546875 c 24
 79.4267578125 206.217773438 81.8681640625 198.405273438 93.26171875 190.91796875 c 128
 104.655273438 183.430664062 126.46484375 174.641601562 158.69140625 164.55078125 c 1
233.88671875 236.81640625 m 0
 231.282226562 238.76953125 230.143554688 238.28125 230.46875 235.3515625 c 0
 233.3984375 213.8671875 221.842773438 186.198242188 195.80078125 152.34375 c 1
 273.600585938 127.9296875 319.3359375 119.791992188 333.0078125 127.9296875 c 0
 337.239257812 130.208007812 338.8671875 132.975585938 337.890625 136.23046875 c 0
 325.1953125 167.48046875 290.52734375 201.008789062 233.88671875 236.81640625 c 0
EndSplineSet
EndChar

StartChar: aHeh.isol
Encoding: 65559 -1 23
Width: 369
AnchorPoint: "TashkilBelow" 200 -327 basechar 0
AnchorPoint: "TashkilAbove" 180 801 basechar 0
AnchorPoint: "TwoDotsAbove" 125 532 basechar 0
AnchorPoint: "DotAbove" 180 532 basechar 0
AnchorPoint: "HamzaAbove" 180 532 basechar 0
LayerCount: 3
Fore
SplineSet
149 337 m 0
 166 348 185 348 206 336 c 0
 252 309 283 274 299 232 c 128
 315 190 318 146 307 100 c 0
 286 9 238 -38 165 -39 c 0
 113 -39 80 -20 67 17 c 128
 54 54 55 102 71 160 c 128
 87 218 109 267 138 306 c 1
 139 323 142 333 149 337 c 0
258 122 m 1
 233 161 200 181 160 182 c 0
 142 183 129 176 121 161 c 0
 99 121 116 101 173 101 c 0
 210 101 238 108 258 122 c 1
EndSplineSet
Layer: 2
SplineSet
158.203125 325.68359375 m 0
 169.270507812 333.49609375 182.780273438 332.682617188 198.73046875 323.2421875 c 0
 242.024414062 297.8515625 272.541992188 265.625 290.283203125 226.5625 c 128
 308.024414062 187.5 312.255859375 147.4609375 302.978515625 106.4453125 c 152
 293.701171875 65.4296875 276.692382812 33.5283203125 251.953125 10.7421875 c 128
 227.213867188 -12.0439453125 198.079101562 -23.6005859375 164.55078125 -23.92578125 c 0
 119.303710938 -24.5771484375 89.4365234375 -8.7080078125 74.951171875 23.681640625 c 128
 60.4658203125 56.0712890625 60.1396484375 99.2841796875 73.974609375 153.3203125 c 128
 87.8095703125 207.356445312 113.444335938 255.859375 150.87890625 298.828125 c 0
 152.180664062 300.129882812 152.83203125 304.362304688 152.83203125 311.5234375 c 128
 152.83203125 318.684570312 154.622070312 323.405273438 158.203125 325.68359375 c 0
252.9296875 110.83984375 m 0
 261.067382812 117.024414062 259.440429688 126.953125 248.046875 140.625 c 0
 217.122070312 178.7109375 187.5 197.428710938 159.1796875 196.77734375 c 0
 144.856445312 196.452148438 132.649414062 187.01171875 122.55859375 168.45703125 c 128
 112.467773438 149.90234375 108.88671875 134.602539062 111.81640625 122.55859375 c 0
 117.350585938 98.14453125 136.637695312 85.9375 169.677734375 85.9375 c 128
 202.717773438 85.9375 230.46875 94.23828125 252.9296875 110.83984375 c 0
EndSplineSet
EndChar

StartChar: aHeh.medi
Encoding: 65560 -1 24
Width: 390
AnchorPoint: "TashkilBelow" 195 -327 basechar 0
AnchorPoint: "TashkilAbove" 195 801 basechar 0
LayerCount: 3
Fore
SplineSet
290 364 m 0
 310 355 320 337 322 310 c 0
 328 219 303 142 248 81 c 1
 285 83 333 90 391 104 c 0
 405 107 413 100 418 85 c 0
 426 58 425 34 417 12 c 0
 409 -2 401 -11 391 -14 c 0
 366 -20 344 -22 324 -23 c 1
 334 -49 337 -80 334 -115 c 128
 331 -150 320 -180 303 -206 c 128
 286 -232 263 -245 235 -245 c 0
 162 -245 118 -177 101 -41 c 1
 62 -36 l 1
 62 1 l 1
 37 -10 16 -15 -1 -15 c 128
 -18 -15 -30 1 -37 32 c 0
 -39 40 -40 52 -42 68 c 128
 -44 84 -36 96 -18 102 c 0
 -12 104 -6 104 -0 105 c 0
 31 107 69 115 116 131 c 1
 138 201 174 264 223 322 c 0
 242 343 256 357 264 362 c 128
 272 367 281 368 290 364 c 0
263 213 m 1
 253 229 241 234 226 229 c 1
 195 218 170 189 151 142 c 1
 209 167 247 190 263 213 c 1
149 -43 m 1
 163 -82 185 -108 213 -120 c 128
 241 -132 268 -130 292 -115 c 1
 269 -74 221 -50 149 -43 c 1
EndSplineSet
Layer: 2
SplineSet
283.69140625 350.09765625 m 24
 298.014648438 343.913085938 305.827148438 330.078125 307.12890625 308.59375 c 0
 313.96484375 208.333007812 282.2265625 127.44140625 211.9140625 65.91796875 c 1
 247.721679688 62.6630859375 307.291992188 70.80078125 390.625 90.33203125 c 0
 396.159179688 91.6337890625 400.715820312 88.0537109375 404.296875 79.58984375 c 0
 412.434570312 60.7099609375 412.272460938 39.7138671875 403.80859375 16.6015625 c 0
 400.227539062 6.8359375 395.833007812 1.3017578125 390.625 0 c 0
 356.4453125 -7.4873046875 324.870117188 -10.4169921875 295.8984375 -8.7890625 c 1
 318.034179688 -32.2265625 326.985351562 -71.4521484375 322.75390625 -126.46484375 c 0
 320.80078125 -150.227539062 311.5234375 -173.33984375 294.921875 -195.80078125 c 128
 278.3203125 -218.26171875 258.463867188 -229.655273438 235.3515625 -229.98046875 c 0
 163.411132812 -230.95703125 120.1171875 -163.249023438 105.46875 -26.85546875 c 1
 76.66015625 -22.94921875 l 1
 77.1484375 24.90234375 l 1
 44.2705078125 8.30078125 18.5546875 0 0 0 c 0
 -13.0205078125 0 -22.2978515625 22.4609375 -27.83203125 67.3828125 c 0
 -29.4599609375 81.7060546875 -20.1826171875 89.35546875 0 90.33203125 c 0
 37.109375 91.9599609375 76.171875 99.9345703125 117.1875 114.2578125 c 1
 143.879882812 186.198242188 182.942382812 252.116210938 234.375 312.01171875 c 0
 259.114257812 340.983398438 275.553710938 353.678710938 283.69140625 350.09765625 c 24
235.83984375 233.88671875 m 0
 230.305664062 233.88671875 225.749023438 232.91015625 222.16796875 230.95703125 c 0
 181.477539062 207.844726562 154.78515625 171.061523438 142.08984375 120.60546875 c 1
 205.56640625 145.670898438 247.0703125 172.36328125 266.6015625 200.68359375 c 0
 270.5078125 205.891601562 270.99609375 211.100585938 268.06640625 216.30859375 c 0
 261.23046875 228.352539062 250.48828125 234.211914062 235.83984375 233.88671875 c 0
145.99609375 -31.73828125 m 1
 157.71484375 -84.7978515625 179.19921875 -118.1640625 210.44921875 -131.8359375 c 0
 235.83984375 -142.578125 261.555664062 -140.13671875 287.59765625 -124.51171875 c 0
 295.084960938 -119.954101562 296.223632812 -113.606445312 291.015625 -105.46875 c 1
 266.276367188 -69.6611328125 217.936523438 -45.0849609375 145.99609375 -31.73828125 c 1
EndSplineSet
EndChar

StartChar: aKaf.fina
Encoding: 65561 -1 25
Width: 822
AnchorPoint: "TwoDotsBelow" 303 -122 basechar 0
AnchorPoint: "DotBelow" 356 -122 basechar 0
AnchorPoint: "RingBelow" 366 20 basechar 0
AnchorPoint: "DotAbove" 684 806 basechar 0
AnchorPoint: "TwoDotsAbove" 596 806 basechar 0
AnchorPoint: "TashkilBelow" 391 -327 basechar 0
AnchorPoint: "TashkilAbove" 356 801 basechar 0
AnchorPoint: "Dash" 709 708 basechar 0
AnchorPoint: "HamzaAbove" 356 306 basechar 0
LayerCount: 3
Fore
SplineSet
823 -15 m 0
 751 -15 710 46 701 167 c 1
 647 34 525 -35 335 -42 c 0
 188 -47 102 -14 75 58 c 128
 48 130 62 204 116 280 c 0
 129 299 140 304 147 296 c 128
 154 288 154 277 144 262 c 0
 117 221 105 191 108 175 c 0
 121 114 191 83 318 81 c 0
 407 80 496 97 585 133 c 0
 621 148 646 165 658 186 c 0
 661 192 664 205 665 225 c 128
 666 245 663 306 655 407 c 128
 647 508 642 561 642 564 c 0
 637 609 639 637 647 649 c 2
 681 700 l 2
 703 734 715 727 717 679 c 0
 718 661 723 579 734 434 c 0
 744 297 757 210 770 173 c 128
 783 136 801 112 823 105 c 128
 845 98 857 85 861 66 c 128
 865 47 862 28 854 11 c 128
 846 -6 835 -15 823 -15 c 0
EndSplineSet
Layer: 2
SplineSet
689.94140625 709.47265625 m 2
 697.102539062 720.21484375 701.416015625 718.913085938 702.880859375 705.56640625 c 152
 704.345703125 692.219726562 709.47265625 627.604492188 718.26171875 511.71875 c 0
 732.91015625 320.637695312 745.930664062 208.984375 757.32421875 176.7578125 c 0
 774.250976562 128.581054688 796.061523438 99.7724609375 822.75390625 90.33203125 c 1
 836.100585938 86.1005859375 844.157226562 76.5791015625 846.923828125 61.767578125 c 128
 849.690429688 46.9560546875 847.981445312 32.958984375 841.796875 19.775390625 c 128
 835.612304688 6.591796875 829.264648438 0 822.75390625 0 c 0
 757.975585938 0 719.401367188 58.2685546875 707.03125 174.8046875 c 1
 695.637695312 148.112304688 678.874023438 121.174804688 656.73828125 93.994140625 c 128
 634.602539062 66.8134765625 611.979492188 47.36328125 588.8671875 35.64453125 c 0
 512.370117188 -3.41796875 427.571289062 -24.5771484375 334.47265625 -27.83203125 c 0
 197.428710938 -32.3896484375 111.653320312 -2.2783203125 77.1484375 62.5 c 0
 67.7080078125 80.078125 63.1513671875 97.9814453125 63.4765625 116.2109375 c 0
 65.4296875 181.640625 86.2626953125 238.28125 125.9765625 286.1328125 c 0
 129.231445312 290.0390625 133.137695312 291.829101562 137.6953125 291.50390625 c 128
 142.252929688 291.178710938 145.100585938 289.143554688 146.240234375 285.400390625 c 128
 147.379882812 281.657226562 145.670898438 276.3671875 141.11328125 269.53125 c 0
 112.141601562 224.934570312 99.7724609375 192.545898438 104.00390625 172.36328125 c 24
 118.327148438 103.678710938 189.778320312 68.359375 318.359375 66.40625 c 0
 406.901367188 65.1044921875 497.55859375 82.6826171875 590.33203125 119.140625 c 0
 622.55859375 131.8359375 647.624023438 151.3671875 665.52734375 177.734375 c 0
 670.41015625 184.895507812 673.583984375 199.462890625 675.048828125 221.435546875 c 128
 676.513671875 243.408203125 672.526367188 309.163085938 663.0859375 418.701171875 c 128
 653.645507812 528.239257812 648.92578125 583.170898438 648.92578125 583.49609375 c 0
 644.694335938 620.60546875 647.135742188 645.833007812 656.25 659.1796875 c 2
 689.94140625 709.47265625 l 2
EndSplineSet
EndChar

StartChar: aKaf.init.alt
Encoding: 65562 -1 26
Width: 1633
AnchorPoint: "TashkilBelow" 732 -327 basechar 0
AnchorPoint: "TashkilAbove" 275 801 basechar 0
LayerCount: 3
Fore
SplineSet
1 105 m 0
 201 89 441 90 724 110 c 0
 907 123 1166 147 1499 183 c 1
 1479 217 1447 236 1405 240 c 0
 1349 246 1261 243 1143 232 c 128
 1025 221 877 208 700 195 c 128
 523 182 361 182 213 197 c 0
 145 204 104 221 90 250 c 0
 83 264 83 278 90 293 c 0
 110 335 130 366 151 386 c 0
 277 508 427 594 600 643 c 0
 627 650 637 642 632 617 c 2
 617 545 l 2
 615 533 607 526 594 522 c 0
 505 497 420 466 340 430 c 128
 260 394 198 358 157 322 c 1
 203 303 306 295 467 295 c 128
 628 295 807 305 1004 325 c 128
 1201 345 1337 355 1412 353 c 0
 1452 352 1487 337 1518 309 c 128
 1549 281 1566 245 1570 200 c 0
 1572 184 1561 158 1536 121 c 128
 1511 84 1488 65 1466 63 c 0
 1342 53 1196 40 1029 24 c 128
 862 8 749 -3 692 -7 c 0
 396 -27 165 -30 -1 -15 c 0
 -20 -13 -32 -3 -39 16 c 128
 -46 35 -45 55 -38 76 c 128
 -31 97 -19 107 1 105 c 0
EndSplineSet
Layer: 2
SplineSet
0 90.33203125 m 1
 206.0546875 73.4052734375 447.75390625 75.0322265625 725.09765625 95.21484375 c 0
 854.655273438 104.655273438 1112.14160156 129.557617188 1497.55859375 169.921875 c 0
 1504.39453125 170.573242188 1505.69628906 174.641601562 1501.46484375 182.12890625 c 0
 1477.37597656 226.725585938 1445.80078125 250.9765625 1406.73828125 254.8828125 c 0
 1349.77246094 260.7421875 1253.25488281 257.161132812 1117.1875 244.140625 c 128
 981.120117188 231.120117188 830.973632812 218.668945312 666.748046875 206.787109375 c 128
 502.522460938 194.905273438 351.5625 194.82421875 213.8671875 206.54296875 c 0
 140.299804688 212.40234375 96.8427734375 229.166992188 83.49609375 256.8359375 c 0
 78.9384765625 266.6015625 79.1015625 276.692382812 83.984375 287.109375 c 0
 101.5625 324.543945312 120.930664062 354.166992188 142.08984375 375.9765625 c 0
 251.790039062 487.3046875 405.598632812 571.452148438 603.515625 628.41796875 c 25
 614.583007812 631.022460938 619.303710938 628.092773438 617.67578125 619.62890625 c 2
 603.02734375 548.33984375 l 1
 601.399414062 542.155273438 597.004882812 538.0859375 589.84375 536.1328125 c 0
 500.325195312 510.7421875 415.934570312 479.00390625 336.669921875 440.91796875 c 128
 257.405273438 402.83203125 196.2890625 363.932617188 153.3203125 324.21875 c 0
 149.088867188 320.3125 148.600585938 317.219726562 151.85546875 314.94140625 c 0
 186.686523438 290.52734375 303.874023438 278.80859375 503.41796875 279.78515625 c 0
 639.811523438 280.436523438 805.6640625 290.608398438 1000.9765625 310.302734375 c 128
 1196.2890625 329.997070312 1333.33300781 339.35546875 1412.109375 338.37890625 c 0
 1457.35644531 337.727539062 1494.30371094 324.299804688 1522.94921875 298.095703125 c 128
 1551.59472656 271.891601562 1567.3828125 238.606445312 1570.3125 198.2421875 c 1
 1571.61425781 185.872070312 1560.95410156 162.922851562 1538.33007812 129.39453125 c 128
 1515.70605469 95.8662109375 1496.09375 78.61328125 1479.4921875 77.63671875 c 1
 1431.31542969 73.4052734375 1294.59667969 61.5234375 1069.3359375 41.9921875 c 0
 844.075195312 20.8330078125 718.098632812 9.4404296875 691.40625 7.8125 c 24
 386.393554688 -12.3701171875 155.924804688 -15.13671875 0 -0.48828125 c 1
 -12.0439453125 -0.1630859375 -20.5888671875 7.4873046875 -25.634765625 22.4609375 c 128
 -30.6806640625 37.4345703125 -30.6806640625 52.5712890625 -25.634765625 67.87109375 c 128
 -20.5888671875 83.1708984375 -12.0439453125 90.6572265625 0 90.33203125 c 1
EndSplineSet
EndChar

StartChar: aKaf.init
Encoding: 65563 -1 27
Width: 659
AnchorPoint: "Dash" 305 687 basechar 0
AnchorPoint: "TashkilAbove" 317 801 basechar 0
AnchorPoint: "TashkilBelow" 269 -327 basechar 0
AnchorPoint: "TwoDotsAbove" 84 696 basechar 0
AnchorPoint: "DotAbove" 138 696 basechar 0
AnchorPoint: "TwoDotsBelow" 78 -80 basechar 0
AnchorPoint: "DotBelow" 132 -80 basechar 0
AnchorPoint: "RingBelow" 303 604 basechar 0
LayerCount: 3
Fore
SplineSet
2 105 m 0
 108 91 190 111 249 166 c 1
 189 246 126 299 59 325 c 0
 43 331 34 359 32 408 c 0
 30 458 41 495 66 518 c 0
 167 610 339 693 582 766 c 0
 599 771 606 766 601 749 c 2
 577 661 l 2
 573 646 565 637 554 633 c 0
 296 543 135 475 72 431 c 1
 211 356 281 270 281 172 c 0
 281 71 247 13 179 -4 c 0
 106 -22 43 -26 -11 -16 c 0
 -27 -13 -35 -1 -38 19 c 0
 -42 49 -44 67 -42 73 c 0
 -35 97 -20 108 2 105 c 0
EndSplineSet
Layer: 2
SplineSet
0 90.33203125 m 0
 109.375 74.70703125 194.987304688 97.8193359375 256.8359375 159.66796875 c 0
 258.7890625 161.62109375 259.440429688 163.899414062 258.7890625 166.50390625 c 1
 217.7734375 232.91015625 148.112304688 290.852539062 49.8046875 340.33203125 c 1
 38.7373046875 345.866210938 32.71484375 366.536132812 31.73828125 402.34375 c 0
 30.1103515625 452.799804688 40.2021484375 487.79296875 62.01171875 507.32421875 c 0
 156.73828125 591.959960938 329.752929688 673.502929688 581.0546875 751.953125 c 0
 586.262695312 753.581054688 590.168945312 754.39453125 592.7734375 754.39453125 c 0
 596.6796875 754.39453125 598.6328125 752.116210938 598.6328125 747.55859375 c 0
 598.6328125 746.58203125 598.14453125 744.303710938 597.16796875 740.72265625 c 2
 577.63671875 670.41015625 l 2
 575.032226562 660.64453125 570.637695312 654.78515625 564.453125 652.83203125 c 0
 277.668945312 550.29296875 111.328125 476.07421875 65.4296875 430.17578125 c 1
 62.8251953125 427.571289062 63.4765625 425.29296875 67.3828125 423.33984375 c 1
 207.682617188 339.35546875 278.3203125 255.534179688 279.296875 171.875 c 0
 279.622070312 125.325195312 269.856445312 88.5419921875 250 61.5234375 c 0
 229.817382812 34.1796875 205.078125 16.9267578125 175.78125 9.765625 c 0
 106.4453125 -7.4873046875 45.0849609375 -11.23046875 -8.30078125 -1.46484375 c 0
 -17.08984375 0.1630859375 -22.4609375 8.7890625 -24.4140625 24.4140625 c 0
 -26.3671875 40.6904296875 -27.34375 52.4091796875 -27.34375 59.5703125 c 0
 -27.34375 82.6826171875 -18.2294921875 92.9365234375 0 90.33203125 c 0
EndSplineSet
EndChar

StartChar: aKaf.isol
Encoding: 65564 -1 28
Width: 657
AnchorPoint: "TwoDotsBelow" 239 -98 basechar 0
AnchorPoint: "DotBelow" 293 -98 basechar 0
AnchorPoint: "RingBelow" 293 49 basechar 0
AnchorPoint: "TwoDotsAbove" 410 879 basechar 0
AnchorPoint: "DotAbove" 464 879 basechar 0
AnchorPoint: "TashkilBelow" 342 -327 basechar 0
AnchorPoint: "TashkilAbove" 205 801 basechar 0
AnchorPoint: "Dash" 492 788 basechar 0
AnchorPoint: "HamzaAbove" 205 303 basechar 0
LayerCount: 3
Fore
SplineSet
470 804 m 2
 479 823 491 818 504 791 c 128
 517 764 533 741 554 724 c 0
 568 713 569 699 558 685 c 0
 534 653 l 0
 578 418 600 259 599 175 c 0
 599 131 589 87 569 43 c 0
 556 14 509 -3 430 -10 c 0
 381 -14 319 -15 244 -14 c 128
 169 -13 111 -10 70 -3 c 0
 58 -1 52 4 52 12 c 0
 50 47 49 81 50 115 c 0
 50 128 56 132 67 129 c 0
 112 117 158 110 206 109 c 0
 392 106 506 117 552 141 c 1
 553 153 524 322 464 648 c 0
 463 657 456 677 444 708 c 0
 437 725 438 740 445 754 c 10
 470 804 l 2
EndSplineSet
Layer: 2
SplineSet
491.69921875 782.2265625 m 0
 505.37109375 752.9296875 523.112304688 729.655273438 544.921875 712.40234375 c 0
 550.456054688 707.844726562 550.618164062 701.334960938 545.41015625 692.87109375 c 2
 527.34375 663.0859375 l 2
 524.4140625 658.528320312 523.112304688 655.110351562 523.4375 652.83203125 c 0
 570.3125 425.618164062 593.913085938 282.551757812 594.23828125 223.6328125 c 1
 594.23828125 174.8046875 l 1
 593.586914062 133.137695312 583.984375 91.30859375 565.4296875 49.31640625 c 0
 549.479492188 13.18359375 436.5234375 -3.0927734375 226.5625 0.48828125 c 0
 167.317382812 1.46484375 116.047851562 5.2080078125 72.75390625 11.71875 c 0
 68.5224609375 12.3701171875 66.2431640625 15.4619140625 65.91796875 20.99609375 c 0
 63.3134765625 62.6630859375 62.6630859375 91.4716796875 63.96484375 107.421875 c 0
 64.2900390625 112.3046875 66.5693359375 113.932617188 70.80078125 112.3046875 c 0
 97.16796875 101.887695312 141.926757812 96.0283203125 205.078125 94.7265625 c 0
 397.4609375 91.1455078125 514.485351562 103.678710938 556.15234375 132.32421875 c 1
 560.383789062 155.436523438 547.932617188 245.60546875 518.798828125 402.83203125 c 152
 489.665039062 560.05859375 472.737304688 649.250976562 468.017578125 670.41015625 c 128
 463.297851562 691.569335938 459.228515625 707.112304688 455.810546875 717.041015625 c 128
 452.392578125 726.969726562 453.125 737.141601562 458.0078125 747.55859375 c 2
 476.5625 785.64453125 l 2
 478.515625 789.875976562 480.95703125 791.666992188 483.88671875 791.015625 c 128
 486.81640625 790.364257812 489.420898438 787.434570312 491.69921875 782.2265625 c 0
EndSplineSet
EndChar

StartChar: aKaf.medi
Encoding: 65565 -1 29
Width: 588
AnchorPoint: "Dash" 286 771 basechar 0
AnchorPoint: "TashkilAbove" 273 801 basechar 0
AnchorPoint: "TashkilBelow" 297 -327 basechar 0
AnchorPoint: "RingBelow" 318 656 basechar 0
AnchorPoint: "DotBelow" 371 -98 basechar 0
AnchorPoint: "TwoDotsBelow" 317 -98 basechar 0
AnchorPoint: "DotAbove" 105 708 basechar 0
AnchorPoint: "TwoDotsAbove" 51 708 basechar 0
LayerCount: 3
Fore
SplineSet
-42 60 m 0
 -42 92 -23 107 13 104 c 0
 116 96 196 116 254 168 c 1
 240 217 171 273 47 335 c 1
 34 357 27 389 28 431 c 0
 28 459 33 478 41 489 c 1
 120 604 287 718 544 828 c 0
 566 838 574 830 568 804 c 2
 548 717 l 2
 545 707 538 699 527 693 c 0
 310 585 161 496 79 427 c 1
 200 374 314 299 421 202 c 0
 488 141 544 109 589 104 c 0
 626 100 635 70 617 13 c 0
 611 -6 601 -15 587 -15 c 0
 532 -15 459 33 369 128 c 0
 338 160 311 185 289 202 c 1
 289 177 288 158 286 146 c 0
 269 34 190 -21 47 -21 c 0
 23 -21 3 -19 -11 -16 c 0
 -32 -11 -42 14 -42 60 c 0
EndSplineSet
Layer: 2
SplineSet
-5.37109375 90.8203125 m 0
 -3.7431640625 90.8203125 3.41796875 90.0068359375 16.11328125 88.37890625 c 128
 28.80859375 86.7509765625 49.8857421875 85.9375 79.345703125 85.9375 c 128
 108.805664062 85.9375 140.788085938 92.529296875 175.29296875 105.712890625 c 128
 209.797851562 118.896484375 238.28125 138.508789062 260.7421875 164.55078125 c 1
 245.1171875 224.772460938 176.26953125 283.528320312 54.19921875 340.8203125 c 1
 40.52734375 349.934570312 32.0634765625 371.907226562 28.80859375 406.73828125 c 0
 25.87890625 445.80078125 29.296875 472.16796875 39.0625 485.83984375 c 0
 116.2109375 595.540039062 284.504882812 703.776367188 543.9453125 810.546875 c 0
 549.479492188 812.825195312 554.036132812 813.96484375 557.6171875 813.96484375 c 0
 563.801757812 813.96484375 566.731445312 810.546875 566.40625 803.7109375 c 0
 566.40625 800.78125 566.081054688 797.8515625 565.4296875 794.921875 c 2
 550.78125 731.4453125 l 2
 548.828125 723.307617188 543.620117188 717.122070312 535.15625 712.890625 c 0
 303.385742188 598.958007812 147.624023438 503.581054688 67.87109375 426.7578125 c 1
 203.938476562 357.747070312 320.3125 279.296875 416.9921875 191.40625 c 0
 486.653320312 127.9296875 543.620117188 94.0751953125 587.890625 89.84375 c 0
 603.840820312 88.2158203125 611.81640625 78.125 611.81640625 59.5703125 c 0
 611.81640625 48.828125 609.456054688 36.0517578125 604.736328125 21.240234375 c 128
 600.016601562 6.4287109375 594.401367188 -0.8134765625 587.890625 -0.48828125 c 1
 541.9921875 -0.48828125 472.331054688 45.7353515625 378.90625 138.18359375 c 0
 347.981445312 168.782226562 316.081054688 196.2890625 283.203125 220.703125 c 1
 285.15625 194.010742188 284.504882812 169.108398438 281.25 145.99609375 c 0
 266.276367188 44.43359375 188.313476562 -6.34765625 47.36328125 -6.34765625 c 0
 24.2509765625 -6.34765625 6.0224609375 -4.8017578125 -7.32421875 -1.708984375 c 128
 -20.6708984375 1.3837890625 -27.34375 21.8095703125 -27.34375 59.5703125 c 0
 -27.34375 80.4033203125 -20.01953125 90.8203125 -5.37109375 90.8203125 c 0
EndSplineSet
EndChar

StartChar: aLam.fina
Encoding: 65566 -1 30
Width: 644
AnchorPoint: "Stroke" 486 445 basechar 0
AnchorPoint: "TwoDotsBelow" 293 -457 basechar 0
AnchorPoint: "TwoDotsAbove" 195 488 basechar 0
AnchorPoint: "DotAbove" 293 586 basechar 0
AnchorPoint: "TashkilBelow" 293 -376 basechar 0
AnchorPoint: "TashkilAbove" 293 801 basechar 0
AnchorPoint: "VAbove" 300 585 basechar 0
LayerCount: 3
Back
SplineSet
700.68359375 276.3671875 m 0
 702.961914062 279.622070312 705.729492188 280.924804688 708.984375 280.2734375 c 128
 712.239257812 279.622070312 714.84375 277.506835938 716.796875 273.92578125 c 0
 739.583007812 229.655273438 744.465820312 171.061523438 731.4453125 98.14453125 c 0
 721.354492188 40.2021484375 692.3828125 7.4873046875 644.53125 0 c 0
 637.6953125 -1.3017578125 630.696289062 15.625 623.53515625 50.78125 c 0
 621.256835938 62.1748046875 621.418945312 70.9638671875 624.0234375 77.1484375 c 0
 627.278320312 84.9609375 634.114257812 89.35546875 644.53125 90.33203125 c 0
 670.247070312 92.6103515625 688.4765625 103.190429688 699.21875 122.0703125 c 0
 700.1953125 123.372070312 700.358398438 125.651367188 699.70703125 128.90625 c 0
 696.125976562 146.809570312 687.174804688 166.178710938 672.8515625 187.01171875 c 0
 667.643554688 194.82421875 666.666992188 202.961914062 669.921875 211.42578125 c 0
 685.221679688 247.233398438 695.475585938 268.879882812 700.68359375 276.3671875 c 0
EndSplineSet
Fore
SplineSet
506 632 m 2
 537 350 l 2
 554 196 590 114 645 104 c 0
 671 99 682 77 677 34 c 0
 674 10 668 -5 657 -11 c 0
 653 -13 650 -15 645 -15 c 0
 603 -15 564 8 531 53 c 1
 540 -17 541 -89 532 -164 c 0
 525 -221 505 -262 471 -288 c 0
 397 -344 327 -372 260 -374 c 128
 193 -376 142 -357 107 -317 c 0
 72 -278 59 -224 66 -153 c 0
 71 -104 98 -40 148 37 c 0
 156 50 164 52 171 45 c 24
 178 38 177 29 170 19 c 0
 120 -56 103 -117 121 -166 c 0
 141 -220 200 -245 298 -239 c 0
 376 -234 444 -205 500 -151 c 1
 442 522 l 2
 440 545 442 563 448 577 c 2
 477 647 l 2
 492 683 501 679 506 632 c 2
EndSplineSet
Layer: 2
SplineSet
522.4609375 348.14453125 m 2
 538.0859375 186.686523438 584.9609375 99.4462890625 663.0859375 86.42578125 c 257
 668.620117188 83.1708984375 668.45703125 66.40625 662.59765625 36.1328125 c 1
 658.69140625 12.0439453125 652.668945312 0 644.53125 0 c 0
 597.004882812 0 559.08203125 26.6923828125 530.76171875 80.078125 c 1
 546.711914062 -116.862304688 527.018554688 -235.676757812 471.6796875 -276.3671875 c 0
 397.135742188 -330.403320312 328.450195312 -358.073242188 265.625 -359.375 c 0
 199.21875 -360.676757812 147.135742188 -342.936523438 109.375 -306.15234375 c 0
 71.6142578125 -269.04296875 57.0478515625 -218.180664062 65.673828125 -153.564453125 c 128
 74.2998046875 -88.9482421875 103.515625 -23.6005859375 153.3203125 42.48046875 c 0
 156.25 46.38671875 159.993164062 48.2587890625 164.55078125 48.095703125 c 128
 169.108398438 47.9326171875 172.282226562 45.8173828125 174.072265625 41.748046875 c 128
 175.862304688 37.6787109375 174.8046875 32.71484375 170.8984375 26.85546875 c 24
 115.559570312 -56.15234375 98.6328125 -122.395507812 120.1171875 -171.875 c 0
 146.159179688 -231.770507812 205.891601562 -258.952148438 299.31640625 -253.41796875 c 0
 376.139648438 -248.860351562 444.82421875 -216.633789062 505.37109375 -156.73828125 c 1
 456.54296875 523.4375 l 2
 454.915039062 545.573242188 455.56640625 562.174804688 458.49609375 573.2421875 c 0
 476.5625 632.8125 l 0
 487.3046875 645.182617188 493.977539062 638.508789062 496.58203125 612.79296875 c 2
 522.4609375 348.14453125 l 2
EndSplineSet
EndChar

StartChar: aLam.init
Encoding: 65567 -1 31
Width: 175
AnchorPoint: "Stroke" 59 523 basechar 0
AnchorPoint: "TwoDotsBelow" 39 -49 basechar 0
AnchorPoint: "TwoDotsAbove" -20 814 basechar 0
AnchorPoint: "DotAbove" 39 814 basechar 0
AnchorPoint: "TashkilBelow" 68 -327 basechar 0
AnchorPoint: "TashkilAbove" 39 801 basechar 0
AnchorPoint: "VAbove" 39 765 basechar 0
LayerCount: 3
Fore
SplineSet
85 573 m 1
 112 376 122 242 115 168 c 0
 104 57 65 -4 0 -15 c 0
 -17 -18 -26 -7 -28 16 c 0
 -30 31 -30 49 -29 70 c 128
 -28 91 -18 103 0 105 c 0
 37 109 61 120 71 139 c 1
 70 155 52 301 15 577 c 1
 11 602 7 619 5 628 c 1
 -2 645 -1 660 6 674 c 10
 31 724 l 2
 40 743 50 738 60 711 c 128
 70 684 84 661 105 644 c 0
 119 633 120 619 109 605 c 2
 85 573 l 1
EndSplineSet
Layer: 2
SplineSet
15.625 660.15625 m 24
 25.7158203125 684.5703125 31.73828125 699.625976562 33.69140625 705.322265625 c 128
 35.64453125 711.018554688 39.0625 713.8671875 43.9453125 713.8671875 c 128
 48.828125 713.8671875 52.4091796875 710.44921875 54.6875 703.61328125 c 0
 64.7783203125 673.991210938 79.2646484375 649.739257812 98.14453125 630.859375 c 0
 104.655273438 624.348632812 104.166992188 616.69921875 96.6796875 607.91015625 c 1
 74.70703125 577.1484375 l 1
 78.9384765625 539.713867188 83.1708984375 504.8828125 87.40234375 472.65625 c 0
 109.86328125 307.942382812 117.512695312 207.356445312 110.3515625 170.8984375 c 0
 89.5185546875 65.4296875 52.734375 8.4638671875 0 0 c 0
 -11.71875 -1.6279296875 -16.7646484375 20.3447265625 -15.13671875 65.91796875 c 0
 -14.8115234375 81.2177734375 -9.765625 89.35546875 0 90.33203125 c 0
 36.1328125 94.5634765625 61.3603515625 109.538085938 75.68359375 135.25390625 c 1
 73.73046875 187.663085938 65.5107421875 269.53125 51.025390625 380.859375 c 128
 36.5400390625 492.1875 27.83203125 560.383789062 24.90234375 585.44921875 c 1
 15.13671875 641.6015625 l 2
 13.8349609375 649.4140625 13.9970703125 655.598632812 15.625 660.15625 c 24
EndSplineSet
EndChar

StartChar: aLam.isol
Encoding: 65568 -1 32
Width: 603
AnchorPoint: "Stroke" 479 549 basechar 0
AnchorPoint: "TwoDotsBelow" 286 -161 basechar 0
AnchorPoint: "TwoDotsAbove" 220 586 basechar 0
AnchorPoint: "DotAbove" 317 684 basechar 0
AnchorPoint: "TashkilAbove" 293 801 basechar 0
AnchorPoint: "TashkilBelow" 283 -327 basechar 0
AnchorPoint: "VAbove" 323 697 basechar 0
LayerCount: 3
Fore
SplineSet
440 599 m 1
 437 618 434 637 430 658 c 1
 423 675 423 690 430 704 c 10
 456 754 l 2
 465 773 474 768 484 741 c 128
 494 714 509 691 530 674 c 0
 544 663 545 649 534 635 c 2
 509 603 l 1
 512 558 518 498 528 421 c 128
 538 344 543 285 546 242 c 0
 551 171 542 108 519 52 c 0
 503 15 466 -17 410 -42 c 128
 354 -67 303 -80 257 -79 c 0
 164 -78 103 -43 76 26 c 0
 67 50 62 76 62 104 c 0
 62 179 85 247 133 307 c 0
 143 320 150 322 156 316 c 128
 162 310 161 301 154 288 c 0
 122 231 108 189 111 160 c 0
 118 87 178 52 289 56 c 0
 385 59 454 85 494 134 c 1
 477 256 465 347 459 407 c 128
 453 467 447 531 440 599 c 1
EndSplineSet
Layer: 2
SplineSet
462.890625 744.140625 m 2
 464.84375 748.698242188 468.26171875 750.9765625 473.14453125 750.9765625 c 128
 478.02734375 750.9765625 481.4453125 747.883789062 483.3984375 741.69921875 c 0
 495.1171875 710.124023438 508.7890625 685.872070312 524.4140625 668.9453125 c 0
 530.2734375 662.760742188 529.866210938 654.622070312 523.193359375 644.53125 c 128
 516.520507812 634.440429688 511.067382812 626.953125 506.8359375 622.0703125 c 128
 502.604492188 617.1875 500.651367188 610.3515625 500.9765625 601.5625 c 0
 503.581054688 557.6171875 509.765625 497.0703125 519.53125 419.921875 c 128
 529.296875 342.7734375 535.64453125 283.040039062 538.57421875 240.72265625 c 0
 543.45703125 172.688476562 534.504882812 111.653320312 511.71875 57.6171875 c 24
 497.721679688 23.7626953125 462.809570312 -5.2080078125 406.982421875 -29.296875 c 128
 351.155273438 -53.3857421875 301.106445312 -65.1044921875 256.8359375 -64.453125 c 0
 129.231445312 -62.5 64.7783203125 -6.34765625 63.4765625 104.00390625 c 24
 62.5 176.920898438 87.5654296875 246.58203125 138.671875 312.98828125 c 0
 141.926757812 317.219726562 145.670898438 319.010742188 149.90234375 318.359375 c 128
 154.133789062 317.708007812 156.819335938 315.348632812 157.958984375 311.279296875 c 128
 159.098632812 307.209960938 158.366210938 302.897460938 155.76171875 298.33984375 c 0
 120.280273438 235.188476562 104.166992188 188.639648438 107.421875 158.69140625 c 0
 116.862304688 76.66015625 177.571289062 37.59765625 289.55078125 41.50390625 c 0
 385.905273438 44.7587890625 455.56640625 73.8935546875 498.53515625 128.90625 c 1
 496.907226562 170.573242188 489.2578125 244.791992188 475.5859375 351.5625 c 128
 461.9140625 458.333007812 451.823242188 558.59375 445.3125 652.34375 c 1
 441.40625 685.546875 l 1
 441.40625 691.40625 442.219726562 696.2890625 443.84765625 700.1953125 c 26
 462.890625 744.140625 l 2
EndSplineSet
EndChar

StartChar: aLam.medi
Encoding: 65569 -1 33
Width: 197
AnchorPoint: "Stroke" 82 529 basechar 0
AnchorPoint: "TwoDotsBelow" 49 -73 basechar 0
AnchorPoint: "TwoDotsAbove" 5 796 basechar 0
AnchorPoint: "DotAbove" 63 796 basechar 0
AnchorPoint: "TashkilBelow" 93 -327 basechar 0
AnchorPoint: "TashkilAbove" 63 801 basechar 0
AnchorPoint: "VAbove" 63 747 basechar 0
LayerCount: 3
Fore
SplineSet
93 115 m 1
 79 29 48 -15 0 -15 c 1
 -12 -15 -21 -8 -25 6 c 0
 -41 61 -33 94 0 104 c 0
 38 116 58 143 58 182 c 0
 41 615 l 0
 40 630 42 640 48 646 c 2
 85 688 l 2
 98 703 104 694 104 663 c 0
 115 432 l 0
 120 309 125 234 130 207 c 0
 142 147 165 112 198 104 c 0
 215 100 223 85 225 59 c 128
 227 33 224 12 217 -4 c 0
 213 -11 207 -15 198 -15 c 0
 153 -15 117 29 93 115 c 1
EndSplineSet
Layer: 2
SplineSet
197.75390625 90.33203125 m 0
 206.54296875 88.37890625 210.774414062 78.61328125 210.44921875 61.03515625 c 0
 209.47265625 19.6943359375 205.241210938 -0.6513671875 197.75390625 0 c 0
 159.993164062 4.5576171875 126.953125 42.96875 98.6328125 115.234375 c 0
 92.7734375 129.8828125 88.7041015625 128.743164062 86.42578125 111.81640625 c 0
 75.0322265625 37.9228515625 46.2236328125 0.6513671875 0 0 c 0
 -4.8828125 0 -8.6259765625 3.7431640625 -11.23046875 11.23046875 c 0
 -27.5068359375 57.12890625 -23.7626953125 83.49609375 0 90.33203125 c 24
 23.1123046875 97.16796875 40.6904296875 109.049804688 52.734375 125.9765625 c 0
 63.1513671875 140.299804688 68.0341796875 159.016601562 67.3828125 182.12890625 c 2
 49.8046875 634.765625 l 0
 49.4794921875 643.229492188 50.9443359375 649.088867188 54.19921875 652.34375 c 2
 83.0078125 686.03515625 l 2
 89.84375 694.172851562 93.5869140625 692.3828125 94.23828125 680.6640625 c 0
 97.16796875 648.4375 99.609375 604.4921875 101.5625 548.828125 c 0
 108.3984375 345.703125 114.909179688 230.631835938 121.09375 203.61328125 c 0
 136.71875 135.905273438 162.272460938 98.14453125 197.75390625 90.33203125 c 0
EndSplineSet
EndChar

StartChar: aMem.fina.alt
Encoding: 65570 -1 34
Width: 334
AnchorPoint: "TashkilBelow" 293 -327 basechar 0
AnchorPoint: "TashkilAbove" 195 801 basechar 0
LayerCount: 3
Fore
SplineSet
332 105 m 0
 349 108 360 101 364 85 c 1
 370 60 368 32 358 -0 c 0
 355 -8 349 -12 338 -14 c 0
 337 -14 331 -15 320 -17 c 128
 309 -19 296 -23 281 -29 c 1
 335 -58 373 -81 394 -97 c 0
 415 -113 422 -131 412 -153 c 2
 386 -213 l 2
 378 -232 368 -242 356 -244 c 1
 350 -245 345 -245 340 -242 c 0
 312 -228 268 -221 207 -223 c 0
 146 -225 115 -238 111 -261 c 0
 107 -284 126 -386 166 -566 c 0
 178 -619 182 -666 180 -709 c 1
 178 -735 169 -750 153 -753 c 1
 134 -756 123 -742 119 -712 c 1
 113 -651 103 -595 88 -542 c 128
 73 -489 61 -437 53 -387 c 0
 45 -337 47 -288 59 -240 c 128
 71 -192 89 -158 111 -140 c 0
 125 -129 140 -121 158 -115 c 1
 150 -111 144 -107 140 -105 c 0
 127 -99 123 -88 127 -71 c 0
 134 -42 139 -25 143 -21 c 128
 147 -17 149 -14 150 -13 c 0
 228 59 288 99 332 105 c 0
EndSplineSet
Layer: 2
SplineSet
334.47265625 90.33203125 m 0
 343.26171875 91.6337890625 348.469726562 88.8671875 350.09765625 82.03125 c 0
 355.305664062 59.5703125 353.352539062 33.69140625 344.23828125 4.39453125 c 0
 343.586914062 2.44140625 340.33203125 0.9765625 334.47265625 0 c 0
 296.38671875 -5.5341796875 268.5546875 -15.2998046875 250.9765625 -29.296875 c 1
 316.731445312 -64.1279296875 362.79296875 -91.4716796875 389.16015625 -111.328125 c 0
 402.180664062 -120.768554688 405.436523438 -132.8125 398.92578125 -147.4609375 c 2
 373.046875 -207.51953125 l 2
 364.909179688 -226.399414062 356.120117188 -233.3984375 346.6796875 -228.515625 c 24
 316.731445312 -212.890625 275.065429688 -206.0546875 221.6796875 -208.0078125 c 0
 142.252929688 -210.612304688 100.422851562 -227.213867188 96.19140625 -257.8125 c 0
 92.6103515625 -283.854492188 111.002929688 -387.6953125 151.3671875 -569.3359375 c 0
 162.760742188 -620.768554688 167.48046875 -667.155273438 165.52734375 -708.49609375 c 0
 164.55078125 -727.05078125 159.586914062 -736.979492188 150.634765625 -738.28125 c 128
 141.682617188 -739.583007812 136.067382812 -730.305664062 133.7890625 -710.44921875 c 0
 127.604492188 -649.250976562 117.106445312 -592.122070312 102.294921875 -539.0625 c 128
 87.4833984375 -486.002929688 75.927734375 -435.139648438 67.626953125 -386.474609375 c 128
 59.326171875 -337.809570312 61.03515625 -290.52734375 72.75390625 -244.62890625 c 128
 84.47265625 -198.73046875 100.178710938 -167.805664062 119.873046875 -151.85546875 c 128
 139.567382812 -135.905273438 165.690429688 -125.325195312 198.2421875 -120.1171875 c 1
 170.573242188 -104.817382812 153.564453125 -95.703125 147.216796875 -92.7734375 c 128
 140.869140625 -89.84375 138.834960938 -83.8212890625 141.11328125 -74.70703125 c 0
 148.274414062 -46.0615234375 154.622070312 -29.1337890625 160.15625 -23.92578125 c 0
 235.3515625 46.38671875 293.45703125 84.47265625 334.47265625 90.33203125 c 0
EndSplineSet
EndChar

StartChar: aMem.fina
Encoding: 65571 -1 35
Width: 522
AnchorPoint: "TashkilBelow" 342 -327 basechar 0
AnchorPoint: "TashkilAbove" 231 801 basechar 0
LayerCount: 3
Fore
SplineSet
272 213 m 0
 330 145 413 109 522 105 c 0
 555 104 568 83 561 44 c 128
 554 5 541 -15 522 -15 c 0
 463 -16 411 -4 364 18 c 1
 364 -45 349 -89 320 -112 c 0
 307 -122 294 -122 281 -111 c 0
 242 -76 218 -25 209 41 c 1
 172 36 140 18 112 -11 c 1
 109 -25 112 -64 122 -130 c 0
 158 -370 172 -510 163 -550 c 0
 157 -575 147 -588 133 -588 c 0
 119 -588 112 -572 111 -543 c 0
 110 -496 97 -403 74 -262 c 128
 51 -121 51 -19 76 43 c 128
 101 105 150 152 223 185 c 1
 237 226 253 235 272 213 c 0
EndSplineSet
Layer: 2
SplineSet
261.23046875 203.61328125 m 0
 294.43359375 164.225585938 334.391601562 135.823242188 381.103515625 118.408203125 c 128
 427.815429688 100.993164062 474.934570312 91.6337890625 522.4609375 90.33203125 c 0
 543.9453125 89.6806640625 552.165039062 74.5439453125 547.119140625 44.921875 c 128
 542.073242188 15.2998046875 533.854492188 0.3251953125 522.4609375 0 c 0
 461.588867188 -0.3251953125 406.901367188 12.8583984375 358.3984375 39.55078125 c 0
 354.817382812 41.50390625 353.190429688 40.6904296875 353.515625 37.109375 c 0
 356.4453125 -33.8544921875 343.913085938 -80.7294921875 315.91796875 -103.515625 c 0
 306.477539062 -111.002929688 297.038085938 -110.676757812 287.59765625 -102.5390625 c 0
 248.209960938 -68.0341796875 224.772460938 -14.8115234375 217.28515625 57.12890625 c 1
 181.803710938 56.15234375 145.01953125 36.4580078125 106.93359375 -1.953125 c 1
 99.7724609375 -9.765625 102.05078125 -53.0595703125 113.76953125 -131.8359375 c 0
 150.553710938 -374.348632812 164.387695312 -513.346679688 155.2734375 -548.828125 c 0
 151.041992188 -564.453125 146.159179688 -573.974609375 140.625 -577.392578125 c 128
 135.090820312 -580.810546875 130.045898438 -578.938476562 125.48828125 -571.77734375 c 128
 120.930664062 -564.616210938 118.489257812 -555.012695312 118.1640625 -542.96875 c 0
 115.885742188 -478.190429688 102.702148438 -374.836914062 78.61328125 -232.91015625 c 0
 58.10546875 -111.81640625 59.8955078125 -20.1826171875 83.984375 41.9921875 c 0
 105.793945312 97.3310546875 153.157226562 139.973632812 226.07421875 169.921875 c 1
 229.98046875 181.640625 235.107421875 192.219726562 241.455078125 201.66015625 c 128
 247.802734375 211.100585938 254.39453125 211.750976562 261.23046875 203.61328125 c 0
EndSplineSet
EndChar

StartChar: aMem.init
Encoding: 65572 -1 36
Width: 389
AnchorPoint: "TashkilBelow" 195 -327 basechar 0
AnchorPoint: "TashkilAbove" 195 801 basechar 0
LayerCount: 3
Fore
SplineSet
161 220 m 1
 185 197 215 182 251 174 c 1
 252 203 242 222 222 231 c 128
 202 240 182 237 161 220 c 1
233 333 m 0
 282 332 316 271 335 149 c 0
 337 138 335 128 329 121 c 2
 280 57 l 2
 271 46 260 42 245 45 c 0
 192 58 147 82 112 117 c 1
 84 30 47 -14 0 -15 c 0
 -13 -15 -23 -5 -29 14 c 128
 -35 33 -38 51 -38 67 c 128
 -38 83 -31 94 -17 101 c 0
 -12 103 -6 105 -0 105 c 0
 36 107 66 126 90 161 c 0
 97 172 118 205 150 263 c 0
 176 310 204 333 233 333 c 0
EndSplineSet
Layer: 2
SplineSet
232.91015625 318.359375 m 1
 277.506835938 317.708007812 308.430664062 262.20703125 325.68359375 151.85546875 c 0
 326.66015625 144.368164062 325.68359375 138.834960938 322.75390625 135.25390625 c 2
 268.06640625 65.91796875 l 2
 262.858398438 59.08203125 256.510742188 56.8037109375 249.0234375 59.08203125 c 0
 197.265625 74.0556640625 152.018554688 97.9814453125 113.28125 130.859375 c 1
 82.6826171875 43.6201171875 44.921875 0 0 0 c 1
 -5.5341796875 -0.3251953125 -10.5791015625 6.5107421875 -15.13671875 20.5078125 c 0
 -29.78515625 66.7314453125 -24.7392578125 90.0068359375 0 90.33203125 c 1
 30.9248046875 91.30859375 60.3837890625 110.026367188 88.37890625 146.484375 c 0
 97.8193359375 158.528320312 119.303710938 195.149414062 152.83203125 256.34765625 c 0
 175.618164062 297.688476562 202.311523438 318.359375 232.91015625 318.359375 c 1
161.1328125 220.21484375 m 1
 184.895507812 197.102539062 214.84375 181.640625 250.9765625 173.828125 c 1
 251.953125 202.473632812 242.431640625 221.516601562 222.412109375 230.95703125 c 128
 202.392578125 240.397460938 181.965820312 236.81640625 161.1328125 220.21484375 c 1
EndSplineSet
EndChar

StartChar: aMem.isol
Encoding: 65573 -1 37
Width: 452
AnchorPoint: "TashkilBelow" 317 -391 basechar 0
AnchorPoint: "TashkilAbove" 195 801 basechar 0
LayerCount: 3
Fore
SplineSet
156 163 m 1
 180 173 209 181 243 185 c 1
 219 205 201 214 188 210 c 0
 170 205 159 189 156 163 c 1
99 133 m 1
 101 181 110 223 128 259 c 0
 190 385 277 374 388 223 c 1
 396 210 399 198 398 190 c 0
 389 133 383 100 379 92 c 1
 373 76 361 69 345 72 c 1
 244 96 165 75 108 12 c 1
 131 -77 151 -159 167 -236 c 1
 196 -379 205 -466 196 -499 c 0
 191 -515 184 -523 174 -525 c 0
 159 -527 151 -514 148 -486 c 0
 143 -426 129 -354 107 -270 c 0
 67 -118 50 -18 56 29 c 128
 62 76 77 111 99 133 c 1
EndSplineSet
Layer: 2
SplineSet
155.76171875 163.0859375 m 1
 180.17578125 173.502929688 209.309570312 180.827148438 243.1640625 185.05859375 c 1
 219.401367188 205.241210938 200.846679688 213.541992188 187.5 209.9609375 c 0
 169.270507812 205.078125 158.69140625 189.453125 155.76171875 163.0859375 c 1
103.515625 126.46484375 m 1
 109.049804688 169.758789062 121.337890625 211.100585938 140.380859375 250.48828125 c 128
 159.423828125 289.875976562 180.012695312 313.4765625 202.1484375 321.2890625 c 1
 233.3984375 333.0078125 271.484375 319.987304688 316.40625 282.2265625 c 0
 340.168945312 262.043945312 361.81640625 239.2578125 381.34765625 213.8671875 c 0
 387.20703125 206.379882812 389.6484375 199.381835938 388.671875 192.87109375 c 0
 378.581054688 134.602539062 372.233398438 101.806640625 369.62890625 94.482421875 c 128
 367.024414062 87.158203125 361.491210938 84.3095703125 353.02734375 85.9375 c 1
 242.350585938 111.979492188 159.1796875 91.9599609375 103.515625 25.87890625 c 0
 98.6328125 20.01953125 97.16796875 13.5087890625 99.12109375 6.34765625 c 0
 122.883789062 -80.56640625 144.856445312 -175.944335938 165.0390625 -279.78515625 c 0
 194.987304688 -434.08203125 197.590820312 -512.6953125 172.8515625 -515.625 c 0
 164.387695312 -516.6015625 159.342773438 -507.975585938 157.71484375 -489.74609375 c 0
 151.530273438 -425.29296875 137.6953125 -350.911132812 116.2109375 -266.6015625 c 25
 76.4970703125 -113.606445312 59.4072265625 -18.06640625 64.94140625 20.01953125 c 0
 72.4287109375 71.1259765625 85.2861328125 106.608398438 103.515625 126.46484375 c 1
EndSplineSet
EndChar

StartChar: aMem.medi
Encoding: 65574 -1 38
Width: 463
AnchorPoint: "TashkilBelow" 244 -327 basechar 0
AnchorPoint: "TashkilAbove" 195 801 basechar 0
LayerCount: 3
Fore
SplineSet
219 176 m 0
 218 178 216 179 212 178 c 0
 191 173 177 164 169 153 c 0
 166 149 166 145 170 142 c 0
 194 122 222 106 256 96 c 0
 265 93 267 96 262 102 c 0
 248 120 234 145 219 176 c 0
218 263 m 0
 229 267 237 265 244 256 c 0
 268 221 298 189 336 158 c 128
 374 127 416 110 464 105 c 0
 485 103 497 89 498 65 c 1
 498 32 495 11 488 1 c 128
 481 -9 473 -15 464 -15 c 1
 421 -15 378 -2 335 24 c 1
 332 2 330 -11 327 -15 c 0
 317 -29 306 -36 292 -36 c 1
 218 -30 155 2 103 59 c 1
 69 12 35 -13 0 -15 c 1
 -15 -15 -24 -6 -29 12 c 0
 -38 47 -37 72 -26 88 c 1
 -18 98 -9 104 0 105 c 1
 57 107 91 120 102 144 c 1
 134 207 172 246 218 263 c 0
EndSplineSet
Layer: 2
SplineSet
222.65625 249.51171875 m 0
 226.887695312 251.139648438 229.98046875 250.48828125 231.93359375 247.55859375 c 0
 256.34765625 211.750976562 288.411132812 177.815429688 328.125 145.751953125 c 128
 367.838867188 113.688476562 413.0859375 95.21484375 463.8671875 90.33203125 c 0
 476.887695312 89.0302734375 483.3984375 80.7294921875 483.3984375 65.4296875 c 0
 483.073242188 21.8095703125 476.5625 0 463.8671875 0 c 0
 417.643554688 0 370.768554688 16.6015625 323.2421875 49.8046875 c 1
 320.637695312 13.9970703125 316.40625 -6.8359375 310.546875 -12.6953125 c 128
 304.6875 -18.5546875 298.665039062 -21.3212890625 292.48046875 -20.99609375 c 0
 217.936523438 -15.4619140625 155.436523438 17.578125 104.98046875 78.125 c 0
 102.702148438 81.0546875 100.260742188 80.7294921875 97.65625 77.1484375 c 24
 64.7783203125 27.0185546875 32.2265625 1.3017578125 0 0 c 0
 -6.8359375 -0.3251953125 -11.71875 5.0458984375 -14.6484375 16.11328125 c 0
 -22.7861328125 46.0615234375 -22.4609375 67.3828125 -13.671875 80.078125 c 0
 -9.1142578125 86.5888671875 -4.5576171875 90.0068359375 0 90.33203125 c 0
 62.8251953125 92.28515625 101.237304688 108.073242188 115.234375 137.6953125 c 1
 144.53125 196.940429688 180.338867188 234.211914062 222.65625 249.51171875 c 0
218.75 175.78125 m 0
 217.7734375 177.734375 215.495117188 178.385742188 211.9140625 177.734375 c 0
 191.40625 172.526367188 177.083007812 164.225585938 168.9453125 152.83203125 c 0
 166.015625 148.600585938 166.340820312 144.856445312 169.921875 141.6015625 c 0
 193.684570312 121.745117188 222.331054688 106.608398438 255.859375 96.19140625 c 0
 264.973632812 93.5869140625 267.08984375 95.3779296875 262.20703125 101.5625 c 0
 247.883789062 119.791992188 233.3984375 144.53125 218.75 175.78125 c 0
EndSplineSet
EndChar

StartChar: aNon.fina.alt
Encoding: 65575 -1 39
Width: 1599
AnchorPoint: "TwoDotsBelow" 869 -520 basechar 0
AnchorPoint: "DotBelow" 923 -520 basechar 0
AnchorPoint: "RingBelow" 923 -325 basechar 0
AnchorPoint: "TashkilBelow" 488 -425 basechar 0
AnchorPoint: "DotAbove" 968 81 basechar 0
AnchorPoint: "HamzaAbove" 968 81 basechar 0
AnchorPoint: "TwoDotsAbove" 914 81 basechar 0
AnchorPoint: "TashkilAbove" 968 801 basechar 0
LayerCount: 3
Fore
SplineSet
1508 139 m 2
 1514 152 1523 160 1532 165 c 0
 1541 170 1550 165 1558 150 c 0
 1573 121 1586 106 1599 105 c 0
 1619 104 1629 86 1629 51 c 128
 1629 16 1623 -4 1612 -11 c 0
 1608 -13 1605 -15 1600 -15 c 2
 1579 -15 l 1
 1575 -34 1569 -53 1562 -72 c 128
 1555 -91 1539 -117 1515 -149 c 0
 1449 -237 1340 -300 1189 -339 c 0
 1058 -372 926 -390 794 -391 c 0
 571 -393 393 -355 260 -276 c 0
 247 -268 181 -209 59 -98 c 0
 52 -91 48 -83 49 -73 c 128
 50 -63 55 -56 64 -52 c 1
 73 -49 81 -51 90 -57 c 0
 281 -197 522 -265 812 -262 c 0
 911 -261 1003 -252 1087 -233 c 0
 1307 -184 1446 -118 1503 -36 c 0
 1504 -35 1503 -34 1504 -33 c 1
 1503 -5 1496 25 1482 58 c 0
 1479 67 1478 75 1482 83 c 2
 1508 139 l 2
EndSplineSet
Layer: 2
SplineSet
1521.484375 132.8125 m 2
 1530.59863281 152.34375 1538.24902344 155.924804688 1544.43359375 143.5546875 c 0
 1561.68652344 108.3984375 1579.91503906 90.6572265625 1599.12109375 90.33203125 c 0
 1609.21191406 90.0068359375 1614.2578125 75.0322265625 1614.2578125 45.41015625 c 128
 1614.2578125 15.7880859375 1609.21191406 0.6513671875 1599.12109375 0 c 1
 1567.3828125 -0.48828125 l 1
 1563.15136719 -22.94921875 1557.29199219 -43.9453125 1549.8046875 -63.4765625 c 128
 1542.31738281 -83.0078125 1526.85546875 -108.561523438 1503.41796875 -140.13671875 c 0
 1439.94140625 -225.09765625 1333.984375 -286.62109375 1185.546875 -324.70703125 c 0
 1055.6640625 -357.91015625 925.129882812 -375.163085938 793.9453125 -376.46484375 c 0
 573.2421875 -378.743164062 397.786132812 -341.145507812 267.578125 -263.671875 c 0
 256.510742188 -257.161132812 190.266601562 -198.2421875 68.84765625 -86.9140625 c 0
 64.94140625 -83.3330078125 63.1513671875 -79.2646484375 63.4765625 -74.70703125 c 128
 63.8017578125 -70.1494140625 65.7548828125 -67.138671875 69.3359375 -65.673828125 c 128
 72.9169921875 -64.208984375 76.8232421875 -65.1044921875 81.0546875 -68.359375 c 0
 274.739257812 -210.286132812 518.391601562 -279.78515625 812.01171875 -276.85546875 c 0
 911.62109375 -275.87890625 1004.23144531 -265.950195312 1089.84375 -247.0703125 c 0
 1313.80175781 -197.265625 1455.40332031 -129.557617188 1514.6484375 -43.9453125 c 0
 1517.578125 -39.7138671875 1519.04296875 -36.4580078125 1519.04296875 -34.1796875 c 0
 1518.39160156 -4.5576171875 1510.41699219 28.1572265625 1495.1171875 63.96484375 c 0
 1493.1640625 68.5224609375 1493.1640625 72.75390625 1495.1171875 76.66015625 c 2
 1521.484375 132.8125 l 2
EndSplineSet
EndChar

StartChar: aNon.fina
Encoding: 65576 -1 40
Width: 615
AnchorPoint: "TwoDotsBelow" 213 -486 basechar 0
AnchorPoint: "DotBelow" 267 -486 basechar 0
AnchorPoint: "RingBelow" 267 -291 basechar 0
AnchorPoint: "TashkilBelow" 317 -391 basechar 0
AnchorPoint: "TashkilAbove" 332 801 basechar 0
AnchorPoint: "TwoDotsAbove" 278 312 basechar 0
AnchorPoint: "TaaAbove" 332 195 basechar 0
AnchorPoint: "DotAbove" 332 312 basechar 0
AnchorPoint: "HamzaAbove" 332 244 basechar 0
LayerCount: 3
Fore
SplineSet
518 154 m 2
 526 171 537 175 550 166 c 0
 557 161 569 144 586 117 c 1
 590 109 600 105 615 105 c 256
 630 105 642 98 649 82 c 128
 656 66 656 47 648 26 c 128
 640 5 634 -7 629 -10 c 128
 624 -13 619 -15 615 -15 c 2
 593 -15 l 1
 589 -62 572 -117 541 -180 c 0
 487 -291 392 -348 259 -351 c 0
 201 -352 154 -334 116 -298 c 128
 78 -262 60 -216 63 -162 c 128
 66 -108 90 -40 136 44 c 0
 143 56 149 60 155 56 c 128
 161 52 162 44 156 33 c 0
 126 -26 112 -67 113 -92 c 0
 118 -172 170 -212 271 -213 c 0
 381 -214 464 -186 519 -130 c 1
 528 -56 518 10 492 68 c 0
 487 78 488 90 495 104 c 2
 518 154 l 2
EndSplineSet
Layer: 2
SplineSet
526.85546875 147.94921875 m 2
 531.086914062 157.71484375 536.540039062 159.016601562 543.212890625 151.85546875 c 128
 549.885742188 144.694335938 560.05859375 130.534179688 573.73046875 109.375 c 24
 581.868164062 96.6796875 595.703125 90.33203125 615.234375 90.33203125 c 0
 629.231445312 90.33203125 637.043945312 83.251953125 638.671875 69.091796875 c 128
 640.299804688 54.931640625 638.18359375 39.9580078125 632.32421875 24.169921875 c 128
 626.46484375 8.3818359375 620.768554688 0.3251953125 615.234375 0 c 0
 584.47265625 0 l 1
 580.56640625 -77.1484375 556.640625 -149.088867188 512.6953125 -215.8203125 c 24
 462.239257812 -292.317382812 377.604492188 -332.51953125 258.7890625 -336.42578125 c 0
 198.567382812 -338.37890625 150.227539062 -321.696289062 113.76953125 -286.376953125 c 128
 77.3115234375 -251.057617188 60.7099609375 -207.926757812 63.96484375 -156.982421875 c 128
 67.2197265625 -106.038085938 92.4482421875 -37.2724609375 139.6484375 49.31640625 c 0
 141.6015625 52.8974609375 144.53125 54.8505859375 148.4375 55.17578125 c 128
 152.34375 55.5009765625 155.436523438 53.955078125 157.71484375 50.537109375 c 128
 159.993164062 47.119140625 159.831054688 42.96875 157.2265625 38.0859375 c 0
 125 -24.0888671875 109.700195312 -67.87109375 111.328125 -93.26171875 c 24
 116.536132812 -182.12890625 169.758789062 -227.05078125 270.99609375 -228.02734375 c 1
 381.672851562 -228.678710938 465.495117188 -198.2421875 522.4609375 -136.71875 c 1
 533.203125 -56.640625 526.692382812 10.25390625 502.9296875 63.96484375 c 0
 498.698242188 73.4052734375 497.0703125 79.1015625 498.046875 81.0546875 c 2
 526.85546875 147.94921875 l 2
EndSplineSet
EndChar

StartChar: aNon.isol.alt
Encoding: 65577 -1 41
Width: 1734
AnchorPoint: "TwoDotsBelow" 1007 -332 basechar 0
AnchorPoint: "DotBelow" 1061 -332 basechar 0
AnchorPoint: "RingBelow" 1061 -137 basechar 0
AnchorPoint: "TashkilBelow" 488 -327 basechar 0
AnchorPoint: "TashkilAbove" 1074 801 basechar 0
AnchorPoint: "TwoDotsAbove" 1020 273 basechar 0
AnchorPoint: "HamzaAbove" 1074 273 basechar 0
AnchorPoint: "DotAbove" 1074 273 basechar 0
LayerCount: 3
Fore
SplineSet
1639 379 m 0
 1658 347 1673 303 1681 246 c 128
 1689 189 1688 145 1678 113 c 0
 1662 65 1645 28 1625 2 c 1
 1595 -34 1548 -68 1480 -99 c 0
 1376 -146 1234 -179 1054 -198 c 128
 874 -217 698 -207 525 -170 c 0
 400 -143 314 -114 267 -85 c 128
 220 -56 151 4 60 94 c 1
 48 105 45 117 52 129 c 128
 59 141 70 145 83 141 c 0
 86 140 89 139 91 137 c 0
 186 75 309 24 459 -15 c 0
 661 -68 872 -83 1093 -59 c 1
 1278 -38 1414 -7 1500 35 c 0
 1553 61 1591 90 1615 123 c 1
 1615 124 1615 124 1615 124 c 0
 1612 163 1596 212 1565 272 c 0
 1561 281 1560 290 1564 299 c 2
 1601 378 l 2
 1604 383 1607 387 1610 389 c 0
 1621 396 1631 393 1639 379 c 0
EndSplineSet
Layer: 2
SplineSet
1626.953125 370.60546875 m 1
 1645.83300781 335.774414062 1659.1796875 292.317382812 1666.9921875 240.234375 c 128
 1674.8046875 188.151367188 1673.99121094 147.297851562 1664.55078125 117.67578125 c 0
 1649.57714844 71.4521484375 1632.64941406 35.9697265625 1613.76953125 11.23046875 c 1
 1586.10058594 -23.2744140625 1539.38769531 -55.5009765625 1473.6328125 -85.44921875 c 0
 1371.74511719 -131.999023438 1231.52636719 -164.55078125 1052.97851562 -183.10546875 c 128
 874.430664062 -201.66015625 699.543945312 -192.3828125 528.3203125 -155.2734375 c 1
 404.948242188 -128.90625 320.3125 -101.481445312 274.4140625 -72.998046875 c 128
 228.515625 -44.5146484375 160.319335938 14.6484375 69.82421875 104.4921875 c 0
 63.3134765625 110.676757812 61.9306640625 116.862304688 65.673828125 123.046875 c 128
 69.4169921875 129.231445312 75.1953125 129.719726562 83.0078125 124.51171875 c 0
 179.362304688 61.6865234375 303.385742188 10.4169921875 455.078125 -29.296875 c 1
 658.203125 -83.0078125 871.418945312 -97.65625 1094.7265625 -73.2421875 c 0
 1281.25 -52.4091796875 1418.29394531 -20.8330078125 1505.859375 21.484375 c 0
 1561.5234375 48.1767578125 1602.05078125 79.2646484375 1627.44140625 114.74609375 c 0
 1629.39453125 117.350585938 1630.20800781 120.768554688 1629.8828125 125 c 0
 1627.27832031 166.015625 1609.86328125 217.448242188 1577.63671875 279.296875 c 0
 1575.35839844 283.528320312 1575.35839844 288.0859375 1577.63671875 292.96875 c 2
 1614.2578125 371.58203125 l 2
 1617.83886719 379.39453125 1622.0703125 379.069335938 1626.953125 370.60546875 c 1
EndSplineSet
EndChar

StartChar: aNon.isol
Encoding: 65578 -1 42
Width: 572
AnchorPoint: "TwoDotsBelow" 226 -213 basechar 0
AnchorPoint: "DotBelow" 280 -213 basechar 0
AnchorPoint: "RingBelow" 280 -18 basechar 0
AnchorPoint: "TashkilBelow" 293 -327 basechar 0
AnchorPoint: "TashkilAbove" 269 801 basechar 0
AnchorPoint: "TwoDotsAbove" 214 552 basechar 0
AnchorPoint: "TaaAbove" 269 488 basechar 0
AnchorPoint: "HamzaAbove" 269 488 basechar 0
AnchorPoint: "DotAbove" 269 552 basechar 0
LayerCount: 3
Fore
SplineSet
456 458 m 0
 506 357 524 244 509 120 c 0
 505 89 495 60 477 33 c 0
 435 -31 366 -69 273 -79 c 0
 208 -86 157 -71 119 -35 c 128
 81 1 63 48 64 107 c 0
 65 168 85 227 122 281 c 0
 130 292 136 296 142 290 c 128
 148 284 149 275 142 264 c 0
 106 200 100 149 124 109 c 0
 147 71 194 51 266 52 c 0
 354 53 424 80 474 133 c 1
 471 192 443 265 390 354 c 0
 383 366 380 377 384 385 c 2
 421 469 l 1
 430 490 442 486 456 458 c 0
EndSplineSet
Layer: 2
SplineSet
438.4765625 459.9609375 m 1
 461.9140625 416.340820312 480.95703125 363.688476562 495.60546875 302.001953125 c 128
 510.25390625 240.315429688 513.020507812 180.500976562 503.90625 122.55859375 c 0
 499.0234375 91.6337890625 489.094726562 64.453125 474.12109375 41.015625 c 0
 435.05859375 -19.8564453125 367.512695312 -54.8505859375 271.484375 -63.96484375 c 0
 202.1484375 -70.4755859375 149.4140625 -56.884765625 113.28125 -23.193359375 c 128
 77.1484375 10.498046875 60.7099609375 57.2099609375 63.96484375 116.943359375 c 128
 67.2197265625 176.676757812 87.7275390625 232.584960938 125.48828125 284.66796875 c 0
 130.696289062 291.829101562 135.579101562 293.782226562 140.13671875 290.52734375 c 128
 144.694335938 287.272460938 144.206054688 280.924804688 138.671875 271.484375 c 0
 97.65625 202.1484375 89.84375 145.751953125 115.234375 102.294921875 c 128
 140.625 58.837890625 190.91796875 37.2724609375 266.11328125 37.59765625 c 1
 353.678710938 38.57421875 423.991210938 67.87109375 477.05078125 125.48828125 c 0
 478.02734375 126.790039062 478.515625 129.557617188 478.515625 133.7890625 c 0
 479.166992188 165.0390625 469.7265625 206.787109375 450.1953125 259.033203125 c 128
 430.6640625 311.279296875 412.922851562 348.958007812 396.97265625 372.0703125 c 0
 392.415039062 378.581054688 391.11328125 384.114257812 393.06640625 388.671875 c 2
 423.33984375 463.37890625 l 2
 426.920898438 472.493164062 431.965820312 471.354492188 438.4765625 459.9609375 c 1
EndSplineSet
EndChar

StartChar: aQaf.fina
Encoding: 65579 -1 43
Width: 607
AnchorPoint: "TashkilBelow" 293 -327 basechar 0
AnchorPoint: "TashkilAbove" 342 801 basechar 0
AnchorPoint: "TwoDotsAbove" 415 361 basechar 0
AnchorPoint: "DotAbove" 469 361 basechar 0
AnchorPoint: "HamzaAbove" 469 361 basechar 0
LayerCount: 3
Fore
SplineSet
498 103 m 0
 490 121 480 128 466 128 c 128
 452 128 447 124 451 115 c 0
 458 100 472 93 494 95 c 0
 499 96 500 99 498 103 c 0
495 230 m 0
 538 224 567 182 583 104 c 1
 604 104 616 104 619 103 c 0
 630 98 637 87 641 70 c 128
 645 53 645 35 640 15 c 128
 635 -5 624 -15 608 -15 c 1
 576 -15 l 1
 573 -25 568 -43 561 -70 c 128
 554 -97 543 -119 528 -139 c 0
 473 -212 394 -256 290 -270 c 0
 237 -277 188 -268 146 -243 c 0
 110 -222 86 -191 72 -150 c 0
 46 -72 69 16 139 115 c 0
 146 124 153 126 160 121 c 128
 167 116 167 108 160 97 c 0
 105 19 97 -46 134 -99 c 0
 154 -127 191 -143 246 -150 c 128
 301 -157 355 -149 411 -128 c 128
 467 -107 504 -77 525 -37 c 1
 526 -32 526 -24 524 -14 c 1
 465 -12 424 -2 402 19 c 0
 376 43 383 88 422 155 c 0
 441 188 455 209 467 219 c 0
 477 228 487 231 495 230 c 0
EndSplineSet
Layer: 2
SplineSet
487.3046875 215.8203125 m 0
 529.622070312 211.262695312 557.6171875 169.270507812 571.2890625 89.84375 c 1
 594.075195312 90.1689453125 606.282226562 90.33203125 607.91015625 90.33203125 c 0
 617.350585938 90.33203125 623.779296875 82.763671875 627.197265625 67.626953125 c 128
 630.615234375 52.490234375 630.534179688 37.4345703125 626.953125 22.4609375 c 128
 623.372070312 7.4873046875 617.024414062 0 607.91015625 0 c 2
 569.3359375 0 l 1
 568.359375 -5.2080078125 563.557617188 -23.6005859375 554.931640625 -55.17578125 c 152
 546.305664062 -86.7509765625 535.15625 -111.653320312 521.484375 -129.8828125 c 0
 468.424804688 -200.520507812 390.461914062 -242.1875 287.59765625 -254.8828125 c 0
 229.655273438 -262.043945312 180.17578125 -253.90625 139.16015625 -230.46875 c 0
 105.305664062 -210.9375 82.8447265625 -182.780273438 71.77734375 -145.99609375 c 0
 52.8974609375 -81.8681640625 65.91796875 -10.7421875 110.83984375 67.3828125 c 1
 139.6484375 115.72265625 l 2
 142.578125 120.60546875 145.99609375 122.883789062 149.90234375 122.55859375 c 128
 153.80859375 122.233398438 156.494140625 120.1171875 157.958984375 116.2109375 c 128
 159.423828125 112.3046875 159.016601562 108.561523438 156.73828125 104.98046875 c 0
 144.04296875 83.8212890625 136.23046875 70.9638671875 133.30078125 66.40625 c 0
 94.8896484375 0.3251953125 92.6103515625 -57.4541015625 126.46484375 -106.93359375 c 0
 148.274414062 -138.508789062 187.5 -157.795898438 244.140625 -164.794921875 c 128
 300.78125 -171.793945312 357.747070312 -164.0625 415.0390625 -141.6015625 c 128
 472.331054688 -119.140625 512.043945312 -86.1005859375 534.1796875 -42.48046875 c 1
 537.434570312 -33.3662109375 536.1328125 -19.04296875 530.2734375 0.48828125 c 1
 474.284179688 0.48828125 434.814453125 10.4169921875 411.865234375 30.2734375 c 128
 388.916015625 50.1298828125 394.856445312 89.35546875 429.6875 147.94921875 c 0
 457.356445312 194.172851562 476.5625 216.796875 487.3046875 215.8203125 c 0
498.046875 102.5390625 m 0
 490.234375 120.1171875 479.573242188 128.743164062 466.064453125 128.41796875 c 128
 452.555664062 128.092773438 447.590820312 123.53515625 451.171875 114.74609375 c 0
 457.682617188 99.4462890625 471.842773438 92.9365234375 493.65234375 95.21484375 c 0
 498.53515625 95.8662109375 500 98.3076171875 498.046875 102.5390625 c 0
EndSplineSet
EndChar

StartChar: aQaf.isol
Encoding: 65580 -1 44
Width: 687
AnchorPoint: "TashkilBelow" 342 -327 basechar 0
AnchorPoint: "TashkilAbove" 439 801 basechar 0
AnchorPoint: "TwoDotsAbove" 420 537 basechar 0
AnchorPoint: "DotAbove" 474 537 basechar 0
AnchorPoint: "HamzaAbove" 469 537 basechar 0
LayerCount: 3
Fore
SplineSet
513 256 m 1
 499 272 486 280 475 280 c 128
 464 280 455 273 446 259 c 1
 455 249 466 244 479 243 c 128
 492 242 503 247 513 256 c 1
508 407 m 0
 527 407 545 396 562 374 c 0
 592 335 612 274 625 190 c 0
 632 148 630 107 622 70 c 0
 605 -9 570 -66 518 -102 c 0
 447 -151 376 -175 305 -178 c 0
 185 -183 107 -137 72 -41 c 0
 63 -15 61 17 67 56 c 0
 76 114 105 183 154 264 c 0
 162 277 170 281 180 276 c 128
 190 271 190 262 181 249 c 0
 139 187 118 135 118 95 c 128
 118 55 134 22 164 -6 c 128
 194 -34 245 -47 317 -44 c 128
 389 -41 461 -11 534 46 c 0
 570 74 589 97 590 113 c 128
 591 129 584 142 569 152 c 1
 524 110 479 98 433 119 c 0
 379 143 368 198 401 282 c 128
 434 366 469 408 508 407 c 0
EndSplineSet
Layer: 2
SplineSet
508.30078125 392.578125 m 0
 520.670898438 392.578125 534.66796875 383.137695312 550.29296875 364.2578125 c 0
 585.124023438 321.940429688 608.3984375 263.020507812 620.1171875 187.5 c 0
 625.9765625 149.4140625 625.163085938 111.328125 617.67578125 73.2421875 c 0
 604.00390625 5.5341796875 568.034179688 -48.6650390625 509.765625 -89.35546875 c 1
 441.40625 -136.555664062 373.046875 -161.295898438 304.6875 -163.57421875 c 0
 181.640625 -167.805664062 103.678710938 -125.325195312 70.80078125 -36.1328125 c 1
 62.3369140625 -11.71875 61.03515625 18.06640625 66.89453125 53.22265625 c 0
 78.2880859375 125.48828125 109.211914062 198.2421875 159.66796875 271.484375 c 0
 162.59765625 275.390625 166.259765625 277.018554688 170.654296875 276.3671875 c 128
 175.048828125 275.715820312 178.059570312 273.600585938 179.6875 270.01953125 c 128
 181.315429688 266.438476562 180.827148438 262.043945312 178.22265625 256.8359375 c 1
 134.27734375 193.034179688 111.653320312 139.323242188 110.3515625 95.703125 c 128
 109.049804688 52.0830078125 124.836914062 14.7294921875 157.71484375 -16.357421875 c 128
 190.592773438 -47.4443359375 239.909179688 -61.6865234375 305.6640625 -59.08203125 c 0
 389.973632812 -55.5009765625 469.23828125 -24.4140625 543.45703125 34.1796875 c 0
 576.334960938 60.2216796875 593.586914062 85.2861328125 595.21484375 109.375 c 152
 596.842773438 133.463867188 588.37890625 154.78515625 569.82421875 173.33984375 c 1
 528.483398438 130.696289062 486.328125 116.536132812 443.359375 130.859375 c 0
 388.671875 149.088867188 375.9765625 197.184570312 405.2734375 275.146484375 c 128
 434.5703125 353.108398438 468.913085938 392.252929688 508.30078125 392.578125 c 0
512.6953125 255.859375 m 1
 498.372070312 271.809570312 485.83984375 279.78515625 475.09765625 279.78515625 c 128
 464.35546875 279.78515625 454.58984375 272.94921875 445.80078125 259.27734375 c 1
 454.58984375 249.51171875 465.495117188 244.221679688 478.515625 243.408203125 c 128
 491.536132812 242.594726562 502.9296875 246.745117188 512.6953125 255.859375 c 1
EndSplineSet
EndChar

StartChar: aRaa.fina.alt2
Encoding: 65581 -1 45
Width: 522
AnchorPoint: "TashkilAbove" 254 337 basechar 0
AnchorPoint: "HamzaAbove" 356 355 basechar 0
AnchorPoint: "TwoDotsAbove" 355 416 basechar 0
AnchorPoint: "Stroke" 361 -102 basechar 0
AnchorPoint: "DotAlt" 212 -75 basechar 0
AnchorPoint: "DotBelow" 181 -475 basechar 0
AnchorPoint: "RingBelow" 180 -263 basechar 0
AnchorPoint: "VAbove" 355 355 basechar 0
AnchorPoint: "TaaAbove" 355 355 basechar 0
AnchorPoint: "TashkilBelow" 259 -327 basechar 0
AnchorPoint: "DotAbove" 355 416 basechar 0
LayerCount: 3
Fore
SplineSet
529 -13 m 0
 473 -43 427 -79 391 -122 c 128
 355 -165 329 -200 311 -229 c 0
 258 -315 203 -353 147 -343 c 0
 83 -331 55 -276 64 -179 c 0
 68 -134 88 -80 123 -14 c 0
 128 -4 133 0 140 -3 c 128
 147 -6 148 -12 143 -22 c 0
 119 -68 105 -109 102 -144 c 0
 98 -188 115 -215 153 -227 c 0
 176 -234 197 -232 215 -219 c 128
 233 -206 251 -184 270 -151 c 0
 320 -63 374 4 432 50 c 0
 456 69 479 84 498 94 c 128
 517 104 529 108 534 108 c 0
 549 108 556 100 556 82 c 1
 555 55 552 31 548 10 c 0
 546 1 540 -7 529 -13 c 0
EndSplineSet
Layer: 2
SplineSet
522.4609375 0 m 0
 464.518554688 -30.2734375 416.340820312 -68.359375 377.9296875 -114.2578125 c 0
 343.098632812 -155.924804688 316.40625 -191.731445312 297.8515625 -221.6796875 c 1
 249.0234375 -301.7578125 199.543945312 -337.40234375 149.4140625 -328.61328125 c 0
 120.768554688 -323.405273438 97.9814453125 -307.942382812 81.0546875 -282.2265625 c 0
 65.4296875 -258.7890625 59.7333984375 -224.690429688 63.96484375 -179.931640625 c 128
 68.1962890625 -135.172851562 89.0302734375 -77.9619140625 126.46484375 -8.30078125 c 0
 129.069335938 -3.41796875 132.32421875 -0.5693359375 136.23046875 0.244140625 c 128
 140.13671875 1.0576171875 142.822265625 -0.0810546875 144.287109375 -3.173828125 c 128
 145.751953125 -6.2666015625 145.99609375 -9.27734375 145.01953125 -12.20703125 c 128
 144.04296875 -15.13671875 135.905273438 -31.9013671875 120.60546875 -62.5 c 0
 107.584960938 -88.5419921875 99.12109375 -114.909179688 95.21484375 -141.6015625 c 0
 87.7275390625 -194.010742188 105.46875 -227.213867188 148.4375 -241.2109375 c 0
 175.78125 -250 200.032226562 -247.0703125 221.19140625 -232.421875 c 0
 242.350585938 -218.098632812 262.858398438 -193.359375 282.71484375 -158.203125 c 0
 331.868164062 -71.9404296875 384.765625 -6.34765625 441.40625 38.57421875 c 0
 464.84375 57.12890625 491.862304688 74.3818359375 522.4609375 90.33203125 c 0
 535.15625 96.8427734375 541.340820312 94.0751953125 541.015625 82.03125 c 0
 540.364257812 55.9892578125 538.0859375 32.8779296875 534.1796875 12.6953125 c 0
 533.203125 7.8125 529.296875 3.5810546875 522.4609375 0 c 0
EndSplineSet
EndChar

StartChar: aRaa.fina
Encoding: 65582 -1 46
Width: 489
AnchorPoint: "Stroke" 398 -107 basechar 0
AnchorPoint: "DotAlt" 216 -82 basechar 0
AnchorPoint: "DotBelow" 357 -351 basechar 0
AnchorPoint: "RingBelow" 246 -233 basechar 0
AnchorPoint: "TaaAbove" 320 300 basechar 0
AnchorPoint: "TashkilBelow" 391 -327 basechar 0
AnchorPoint: "TashkilAbove" 244 801 basechar 0
AnchorPoint: "TwoDotsAbove" 267 397 basechar 0
AnchorPoint: "VAbove" 320 397 basechar 0
AnchorPoint: "DotAbove" 321 397 basechar 0
AnchorPoint: "HamzaAbove" 321 397 basechar 0
LayerCount: 3
Fore
SplineSet
362 68 m 2
 399 155 l 2
 408 177 419 178 430 157 c 128
 441 136 448 122 452 116 c 128
 456 110 469 106 490 105 c 0
 514 104 527 84 528 46 c 1
 528 6 515 -14 491 -15 c 0
 481 -15 470 -15 457 -15 c 1
 452 -90 428 -154 388 -206 c 128
 348 -258 308 -287 267 -293 c 128
 226 -299 186 -294 145 -276 c 128
 104 -258 80 -246 70 -240 c 128
 60 -234 57 -228 61 -221 c 0
 64 -214 71 -212 82 -215 c 0
 121 -225 155 -226 188 -218 c 0
 244 -204 295 -174 340 -127 c 128
 385 -80 408 -47 411 -26 c 0
 412 -18 399 1 370 30 c 0
 359 41 356 54 362 68 c 2
EndSplineSet
Layer: 2
SplineSet
375.9765625 62.5 m 2
 407.2265625 142.08984375 l 2
 411.784179688 153.157226562 416.015625 155.110351562 419.921875 147.94921875 c 24
 431.315429688 127.766601562 441.975585938 113.118164062 451.904296875 104.00390625 c 128
 461.833007812 94.8896484375 474.609375 90.33203125 490.234375 90.33203125 c 0
 505.859375 90.0068359375 513.671875 75.1142578125 513.671875 45.654296875 c 128
 513.671875 16.1943359375 505.859375 0.9765625 490.234375 0 c 24
 479.166992188 -0.6513671875 468.098632812 -0.6513671875 457.03125 0 c 0
 454.426757812 0 452.799804688 -1.953125 452.1484375 -5.859375 c 1
 450.1953125 -70.6376953125 427.571289062 -131.103515625 384.27734375 -187.255859375 c 128
 340.983398438 -243.408203125 300.618164062 -273.600585938 263.18359375 -277.83203125 c 128
 225.749023438 -282.063476562 194.3359375 -281.25 168.9453125 -275.390625 c 128
 143.5546875 -269.53125 111.328125 -256.8359375 72.265625 -237.3046875 c 0
 67.7080078125 -235.026367188 64.7783203125 -232.096679688 63.4765625 -228.515625 c 128
 62.1748046875 -224.934570312 62.8251953125 -222.086914062 65.4296875 -219.970703125 c 128
 68.0341796875 -217.854492188 71.2890625 -217.448242188 75.1953125 -218.75 c 1
 118.815429688 -229.4921875 156.901367188 -231.4453125 189.453125 -224.609375 c 0
 257.161132812 -210.286132812 319.3359375 -171.38671875 375.9765625 -107.91015625 c 0
 400.065429688 -81.2177734375 415.0390625 -54.3623046875 420.8984375 -27.34375 c 1
 421.549804688 -10.4169921875 407.877929688 12.20703125 379.8828125 40.52734375 c 0
 374.0234375 46.0615234375 372.721679688 53.3857421875 375.9765625 62.5 c 2
EndSplineSet
EndChar

StartChar: aRaa.isol
Encoding: 65583 -1 47
Width: 399
AnchorPoint: "HamzaAbove" 185 458 basechar 0
AnchorPoint: "DotAbove" 160 531 basechar 0
AnchorPoint: "VAbove" 185 458 basechar 0
AnchorPoint: "TwoDotsAbove" 130 458 basechar 0
AnchorPoint: "TaaAbove" 160 434 basechar 0
AnchorPoint: "Stroke" 317 31 basechar 0
AnchorPoint: "DotAlt" 69 -33 basechar 0
AnchorPoint: "DotBelow" 273 -264 basechar 0
AnchorPoint: "RingBelow" 95 -173 basechar 0
AnchorPoint: "TashkilBelow" 248 -327 basechar 0
AnchorPoint: "TashkilAbove" 195 801 basechar 0
LayerCount: 3
Fore
SplineSet
237 295 m 2
 242 313 255 309 276 283 c 128
 297 257 316 220 330 170 c 1
 361 58 341 -44 270 -136 c 0
 229 -189 178 -224 118 -240 c 0
 96 -246 77 -245 62 -238 c 0
 3 -213 -43 -192 -76 -176 c 0
 -87 -170 -91 -164 -87 -156 c 128
 -83 -148 -76 -145 -65 -148 c 0
 -21 -161 15 -165 43 -158 c 128
 71 -151 108 -134 153 -107 c 0
 231 -60 279 -14 296 31 c 0
 297 33 297 35 297 37 c 0
 291 68 263 110 212 163 c 0
 207 168 206 174 208 182 c 2
 237 295 l 2
EndSplineSet
Layer: 2
SplineSet
246.09375 278.80859375 m 2
 248.046875 286.946289062 253.90625 286.1328125 263.671875 276.3671875 c 0
 289.713867188 249.674804688 309.245117188 213.948242188 322.265625 169.189453125 c 128
 335.286132812 124.430664062 339.84375 79.58984375 335.9375 34.66796875 c 1
 328.125 -23.2744140625 304.850585938 -77.0673828125 266.11328125 -126.708984375 c 128
 227.375976562 -176.350585938 176.7578125 -209.309570312 114.2578125 -225.5859375 c 0
 97.3310546875 -230.143554688 81.3798828125 -229.817382812 66.40625 -224.609375 c 0
 -11.71875 -198.2421875 -60.2216796875 -179.19921875 -79.1015625 -167.48046875 c 0
 -81.7060546875 -165.852539062 -83.0078125 -163.737304688 -83.0078125 -161.1328125 c 128
 -83.0078125 -158.528320312 -81.8681640625 -156.25 -79.58984375 -154.296875 c 128
 -77.3115234375 -152.34375 -74.5439453125 -151.85546875 -71.2890625 -152.83203125 c 0
 -25.7158203125 -166.829101562 13.671875 -171.711914062 46.875 -167.48046875 c 128
 80.078125 -163.249023438 118.1640625 -147.297851562 161.1328125 -119.62890625 c 0
 224.934570312 -78.2880859375 271.159179688 -30.2734375 299.8046875 24.4140625 c 0
 302.409179688 29.296875 303.059570312 34.5048828125 301.7578125 40.0390625 c 0
 291.9921875 75.1953125 265.950195312 118.977539062 223.6328125 171.38671875 c 0
 221.6796875 174.31640625 221.028320312 176.7578125 221.6796875 178.7109375 c 2
 246.09375 278.80859375 l 2
EndSplineSet
EndChar

StartChar: aSad.fina
Encoding: 65584 -1 48
Width: 1181
AnchorPoint: "TwoDotsBelow" 781 -146 basechar 0
AnchorPoint: "DotBelow" 830 -146 basechar 0
AnchorPoint: "TashkilBelow" 342 -327 basechar 0
AnchorPoint: "TashkilAbove" 820 801 basechar 0
AnchorPoint: "TwoDotsAbove" 768 501 basechar 0
AnchorPoint: "DotAbove" 822 501 basechar 0
AnchorPoint: "HamzaAbove" 822 501 basechar 0
LayerCount: 3
Back
SplineSet
1426.7578125 90.33203125 m 0
 1437.82519531 87.7275390625 1444.01074219 83.984375 1445.3125 79.1015625 c 0
 1446.61425781 73.5673828125 1446.61425781 65.5927734375 1445.3125 55.17578125 c 0
 1440.4296875 18.3916015625 1434.24511719 0 1426.7578125 0 c 0
 1390.95019531 -0.3251953125 1354.81738281 19.8564453125 1318.359375 60.546875 c 1
 1288.73730469 24.4140625 1243.48925781 4.2314453125 1182.6171875 0 c 0
 1176.43261719 -0.3251953125 1172.20019531 4.7197265625 1169.921875 15.13671875 c 2
 1161.1328125 56.640625 l 2
 1159.50488281 63.4765625 1160.80761719 70.4755859375 1165.0390625 77.63671875 c 0
 1169.59667969 85.44921875 1175.45605469 89.6806640625 1182.6171875 90.33203125 c 0
 1256.8359375 95.8662109375 1306.31542969 117.67578125 1331.0546875 155.76171875 c 0
 1334.63574219 161.295898438 1338.54199219 164.0625 1342.7734375 164.0625 c 0
 1349.609375 164.0625 1353.19042969 161.784179688 1353.515625 157.2265625 c 0
 1354.16699219 149.4140625 1354.98046875 144.53125 1355.95703125 142.578125 c 0
 1377.76660156 112.629882812 1401.3671875 95.21484375 1426.7578125 90.33203125 c 0
979.00390625 233.88671875 m 0
 963.704101562 233.88671875 949.055664062 232.666015625 935.05859375 230.224609375 c 128
 921.061523438 227.783203125 907.633789062 223.713867188 894.775390625 218.017578125 c 128
 881.916992188 212.321289062 871.174804688 207.51953125 862.548828125 203.61328125 c 128
 853.922851562 199.70703125 843.75 193.034179688 832.03125 183.59375 c 128
 820.3125 174.153320312 812.418945312 167.805664062 808.349609375 164.55078125 c 128
 804.280273438 161.295898438 796.711914062 154.296875 785.64453125 143.5546875 c 128
 774.577148438 132.8125 768.5546875 127.116210938 767.578125 126.46484375 c 1
 813.4765625 124.836914062 866.374023438 129.963867188 926.26953125 141.845703125 c 128
 986.165039062 153.727539062 1028.64550781 171.061523438 1053.7109375 193.84765625 c 1
 1031.57519531 220.866210938 1006.67285156 234.211914062 979.00390625 233.88671875 c 0
1032.2265625 352.05078125 m 0
 1057.29199219 352.375976562 1079.26464844 343.017578125 1098.14453125 323.974609375 c 128
 1117.02441406 304.931640625 1131.51074219 282.063476562 1141.6015625 255.37109375 c 0
 1143.22949219 249.51171875 1143.71777344 243.977539062 1143.06640625 238.76953125 c 0
 1141.11328125 221.842773438 1133.30078125 201.497070312 1119.62890625 177.734375 c 128
 1105.95703125 153.971679688 1094.23828125 136.555664062 1084.47265625 125.48828125 c 0
 1076.33496094 116.374023438 1063.96484375 106.201171875 1047.36328125 94.970703125 c 128
 1030.76171875 83.740234375 1015.13671875 74.70703125 1000.48828125 67.87109375 c 1
 1022.62402344 65.2666015625 1052.734375 66.7314453125 1090.8203125 72.265625 c 128
 1128.90625 77.7998046875 1159.50488281 83.8212890625 1182.6171875 90.33203125 c 0
 1191.08105469 92.6103515625 1197.10253906 86.7509765625 1200.68359375 72.75390625 c 0
 1205.89160156 50.29296875 1203.93847656 29.9482421875 1194.82421875 11.71875 c 0
 1191.24316406 4.8828125 1187.17480469 0.9765625 1182.6171875 0 c 0
 1149.08886719 -6.8359375 1111.89746094 -8.8701171875 1071.04492188 -6.103515625 c 128
 1030.19238281 -3.3369140625 992.919921875 1.3837890625 959.228515625 8.056640625 c 128
 925.537109375 14.7294921875 896.159179688 22.6240234375 871.09375 31.73828125 c 1
 857.747070312 30.1103515625 844.401367188 28.6455078125 831.0546875 27.34375 c 0
 756.510742188 21.484375 685.546875 26.5302734375 618.1640625 42.48046875 c 1
 604.166992188 -66.2431640625 584.797851562 -134.928710938 560.05859375 -163.57421875 c 0
 537.59765625 -189.616210938 506.266601562 -211.9140625 466.064453125 -230.46875 c 128
 425.862304688 -249.0234375 391.032226562 -261.393554688 361.572265625 -267.578125 c 128
 332.112304688 -273.762695312 309.407226562 -276.85546875 293.45703125 -276.85546875 c 0
 246.256835938 -276.204101562 210.612304688 -272.053710938 186.5234375 -264.404296875 c 128
 162.434570312 -256.754882812 138.671875 -240.234375 115.234375 -214.84375 c 0
 94.4013671875 -192.3828125 79.9970703125 -166.911132812 72.021484375 -138.427734375 c 128
 64.0458984375 -109.944335938 61.6865234375 -82.6005859375 64.94140625 -56.396484375 c 128
 68.1962890625 -30.1923828125 74.462890625 -4.150390625 83.740234375 21.728515625 c 128
 93.017578125 47.607421875 102.946289062 69.4990234375 113.525390625 87.40234375 c 128
 124.104492188 105.305664062 134.27734375 119.954101562 144.04296875 131.34765625 c 0
 149.250976562 137.20703125 153.971679688 139.811523438 158.203125 139.16015625 c 128
 162.434570312 138.508789062 164.631835938 135.905273438 164.794921875 131.34765625 c 128
 164.958007812 126.790039062 163.411132812 122.395507812 160.15625 118.1640625 c 0
 119.791992188 69.3359375 100.09765625 22.7861328125 101.07421875 -21.484375 c 0
 101.725585938 -61.5234375 117.919921875 -97.16796875 149.658203125 -128.41796875 c 128
 181.396484375 -159.66796875 225.911132812 -176.432617188 283.203125 -178.7109375 c 0
 304.6875 -179.6875 329.833984375 -177.734375 358.642578125 -172.8515625 c 128
 387.451171875 -167.96875 416.911132812 -160.563476562 447.021484375 -150.634765625 c 128
 477.131835938 -140.706054688 504.801757812 -126.46484375 530.029296875 -107.91015625 c 128
 555.256835938 -89.35546875 572.428710938 -68.5224609375 581.54296875 -45.41015625 c 0
 583.170898438 -41.8291015625 583.659179688 -37.109375 583.0078125 -31.25 c 0
 573.567382812 32.8779296875 556.640625 82.03125 532.2265625 116.2109375 c 0
 527.018554688 123.698242188 525.227539062 129.719726562 526.85546875 134.27734375 c 2
 558.10546875 216.30859375 l 1
 561.360351562 222.493164062 564.616210938 225.422851562 567.87109375 225.09765625 c 128
 571.125976562 224.772460938 573.893554688 222.65625 576.171875 218.75 c 2
 612.79296875 155.76171875 l 1
 632.975585938 143.06640625 669.270507812 134.440429688 721.6796875 129.8828125 c 1
 770.5078125 184.5703125 826.334960938 235.3515625 889.16015625 282.2265625 c 128
 951.985351562 329.1015625 999.674804688 352.375976562 1032.2265625 352.05078125 c 0
979.00390625 233.88671875 m 0
 963.704101562 233.88671875 949.055664062 232.666015625 935.05859375 230.224609375 c 128
 921.061523438 227.783203125 907.633789062 223.713867188 894.775390625 218.017578125 c 128
 881.916992188 212.321289062 871.174804688 207.51953125 862.548828125 203.61328125 c 128
 853.922851562 199.70703125 843.75 193.034179688 832.03125 183.59375 c 128
 820.3125 174.153320312 812.418945312 167.805664062 808.349609375 164.55078125 c 128
 804.280273438 161.295898438 796.711914062 154.296875 785.64453125 143.5546875 c 128
 774.577148438 132.8125 768.5546875 127.116210938 767.578125 126.46484375 c 1
 813.4765625 124.836914062 866.374023438 129.963867188 926.26953125 141.845703125 c 128
 986.165039062 153.727539062 1028.64550781 171.061523438 1053.7109375 193.84765625 c 1
 1031.57519531 220.866210938 1006.67285156 234.211914062 979.00390625 233.88671875 c 0
EndSplineSet
Fore
SplineSet
979 224 m 1
 913 224 849 196 787 141 c 1
 823 143 870 148 928 157 c 128
 986 166 1028 179 1052 196 c 1
 1032 212 1007 221 979 224 c 1
913 25 m 0
 823 4 725 4 621 25 c 1
 606 -81 586 -147 561 -174 c 0
 486 -253 396 -293 294 -292 c 0
 209 -292 147 -268 109 -222 c 128
 71 -176 55 -120 62 -54 c 0
 69 13 95 75 142 131 c 0
 150 140 157 143 163 138 c 128
 169 133 167 123 157 109 c 1
 106 30 99 -37 135 -91 c 0
 168 -140 221 -164 295 -164 c 0
 376 -164 451 -141 521 -96 c 0
 556 -74 575 -55 578 -40 c 1
 580 -14 561 36 520 108 c 0
 513 121 510 132 513 139 c 2
 552 241 l 2
 559 261 572 256 589 226 c 2
 624 167 l 1
 640 157 676 150 735 145 c 1
 769 195 818 245 882 293 c 128
 946 341 994 366 1028 366 c 128
 1062 366 1088 358 1104 339 c 128
 1120 320 1134 295 1145 263 c 0
 1156 231 1138 186 1092 125 c 1
 1116 116 1147 109 1182 105 c 0
 1197 104 1205 88 1208 59 c 0
 1211 29 1209 9 1202 -2 c 0
 1197 -9 1191 -14 1183 -15 c 0
 1128 -22 1058 -2 971 43 c 1
 953 36 934 30 913 25 c 0
EndSplineSet
Layer: 2
SplineSet
914.0625 40.52734375 m 1
 886.71875 33.69140625 859.049804688 29.296875 831.0546875 27.34375 c 0
 754.8828125 21.8095703125 683.918945312 26.85546875 618.1640625 42.48046875 c 1
 603.515625 -71.77734375 584.147460938 -140.461914062 560.05859375 -163.57421875 c 0
 489.420898438 -231.282226562 400.553710938 -269.04296875 293.45703125 -276.85546875 c 0
 215.006835938 -282.71484375 155.517578125 -261.962890625 114.990234375 -214.599609375 c 128
 74.462890625 -167.236328125 57.7802734375 -114.583007812 64.94140625 -56.640625 c 0
 74.3818359375 19.8564453125 100.749023438 82.51953125 144.04296875 131.34765625 c 0
 149.250976562 137.20703125 153.971679688 139.811523438 158.203125 139.16015625 c 128
 162.434570312 138.508789062 164.631835938 135.905273438 164.794921875 131.34765625 c 128
 164.958007812 126.790039062 163.411132812 122.395507812 160.15625 118.1640625 c 0
 85.2861328125 20.8330078125 81.7060546875 -61.3603515625 149.4140625 -128.41796875 c 0
 183.59375 -161.946289062 228.190429688 -178.7109375 283.203125 -178.7109375 c 0
 375.651367188 -178.7109375 457.844726562 -155.110351562 529.78515625 -107.91015625 c 0
 551.920898438 -93.26171875 569.172851562 -72.4287109375 581.54296875 -45.41015625 c 0
 583.170898438 -41.8291015625 583.659179688 -37.109375 583.0078125 -31.25 c 0
 576.497070312 27.6689453125 559.5703125 76.8232421875 532.2265625 116.2109375 c 0
 527.018554688 123.698242188 525.227539062 129.719726562 526.85546875 134.27734375 c 2
 558.10546875 216.30859375 l 1
 564.290039062 228.02734375 570.3125 228.840820312 576.171875 218.75 c 2
 612.79296875 155.76171875 l 1
 632.975585938 143.06640625 669.270507812 134.440429688 721.6796875 129.8828125 c 1
 770.5078125 184.5703125 826.090820312 235.188476562 888.427734375 281.73828125 c 128
 950.764648438 328.288085938 998.698242188 351.725585938 1032.2265625 352.05078125 c 0
 1057.29199219 352.375976562 1079.42675781 342.854492188 1098.6328125 323.486328125 c 128
 1117.83886719 304.118164062 1132.16113281 281.413085938 1141.6015625 255.37109375 c 0
 1143.5546875 249.836914062 1144.04296875 244.303710938 1143.06640625 238.76953125 c 0
 1138.83496094 207.51953125 1119.30371094 169.758789062 1084.47265625 125.48828125 c 1
 1079.26464844 118.327148438 1069.17285156 109.700195312 1054.19921875 99.609375 c 1
 1098.14453125 89.84375 1140.625 86.7509765625 1181.640625 90.33203125 c 0
 1190.4296875 91.30859375 1196.77734375 85.44921875 1200.68359375 72.75390625 c 0
 1207.51953125 49.6416015625 1205.56640625 29.296875 1194.82421875 11.71875 c 0
 1190.26660156 4.2314453125 1185.87207031 0.3251953125 1181.640625 0 c 0
 1094.7265625 -6.8359375 1005.53417969 6.6728515625 914.0625 40.52734375 c 1
979.00390625 233.88671875 m 0
 922.688476562 233.88671875 873.698242188 217.122070312 832.03125 183.59375 c 0
 767.578125 126.46484375 l 1
 813.4765625 124.836914062 866.374023438 129.963867188 926.26953125 141.845703125 c 128
 986.165039062 153.727539062 1028.64550781 171.061523438 1053.7109375 193.84765625 c 1
 1031.57519531 220.866210938 1006.67285156 234.211914062 979.00390625 233.88671875 c 0
EndSplineSet
EndChar

StartChar: aSad.init
Encoding: 65585 -1 49
Width: 698
AnchorPoint: "TwoDotsBelow" 342 -195 basechar 0
AnchorPoint: "DotBelow" 391 -195 basechar 0
AnchorPoint: "TashkilBelow" 342 -327 basechar 0
AnchorPoint: "TashkilAbove" 308 801 basechar 0
AnchorPoint: "TwoDotsAbove" 255 437 basechar 0
AnchorPoint: "DotAbove" 310 437 basechar 0
AnchorPoint: "HamzaAbove" 310 437 basechar 0
LayerCount: 3
Fore
SplineSet
76 75 m 1
 55 14 30 -16 0 -15 c 0
 -10 -15 -18 -8 -24 5 c 1
 -36 33 -39 56 -32 74 c 128
 -25 92 -16 101 -3 104 c 0
 33 111 62 135 84 174 c 0
 92 188 101 195 113 195 c 128
 125 195 136 187 145 172 c 0
 162 144 196 123 247 106 c 1
 280 143 307 170 327 188 c 1
 413 262 478 300 523 300 c 0
 548 300 576 288 607 263 c 0
 631 243 641 219 636 190 c 128
 631 161 619 130 601 98 c 128
 583 66 570 47 561 40 c 0
 497 -6 418 -30 326 -30 c 1
 290 -30 251 -25 212 -16 c 1
 204 -33 197 -54 192 -78 c 0
 188 -94 180 -99 167 -95 c 128
 154 -91 149 -80 152 -64 c 128
 155 -48 162 -27 172 0 c 1
 138 11 107 36 76 75 c 1
570 128 m 1
 531 157 488 170 440 167 c 0
 404 165 355 140 295 94 c 1
 329 93 379 95 445 101 c 128
 511 107 553 116 570 128 c 1
EndSplineSet
Layer: 2
SplineSet
523.4375 285.15625 m 0
 542.317382812 285.15625 566.731445312 274.250976562 596.6796875 252.44140625 c 128
 626.627929688 230.631835938 639.485351562 208.49609375 635.25390625 186.03515625 c 128
 631.022460938 163.57421875 620.280273438 136.799804688 603.02734375 105.712890625 c 128
 585.774414062 74.6259765625 573.567382812 56.4775390625 566.40625 51.26953125 c 0
 505.208007812 6.6728515625 424.967773438 -15.625 325.68359375 -15.625 c 1
 286.295898438 -15.2998046875 249.51171875 -10.4169921875 215.33203125 -0.9765625 c 1
 210.124023438 -7.4873046875 201.008789062 -34.66796875 187.98828125 -82.51953125 c 25
 185.709960938 -92.28515625 179.19921875 -95.2958984375 168.45703125 -91.552734375 c 128
 157.71484375 -87.8095703125 152.995117188 -80.56640625 154.296875 -69.82421875 c 24
 157.877929688 -46.0615234375 166.178710938 -18.5546875 179.19921875 12.6953125 c 1
 144.368164062 27.6689453125 117.024414062 47.0380859375 97.16796875 70.80078125 c 0
 90.0068359375 79.58984375 84.3916015625 83.984375 80.322265625 83.984375 c 128
 76.2529296875 83.984375 72.265625 79.2646484375 68.359375 69.82421875 c 0
 49.1533203125 23.2744140625 26.3671875 0 0 0 c 0
 -3.90625 0 -7.6494140625 3.7431640625 -11.23046875 11.23046875 c 0
 -21.6474609375 35.3193359375 -24.4140625 54.0361328125 -19.53125 67.3828125 c 128
 -14.6484375 80.7294921875 -8.1376953125 88.37890625 0 90.33203125 c 0
 34.5048828125 98.7958984375 63.4765625 124.348632812 86.9140625 166.9921875 c 0
 91.796875 176.106445312 98.9580078125 180.583007812 108.3984375 180.419921875 c 128
 117.838867188 180.256835938 125.651367188 174.967773438 131.8359375 164.55078125 c 0
 152.34375 131.672851562 187.663085938 107.91015625 237.79296875 93.26171875 c 1
 266.438476562 125.163085938 294.43359375 153.157226562 321.77734375 177.24609375 c 0
 404.133789062 248.53515625 471.354492188 284.504882812 523.4375 285.15625 c 0
566.89453125 132.8125 m 0
 528.80859375 167.317382812 486.165039062 182.780273438 438.96484375 179.19921875 c 0
 420.41015625 177.571289062 392.497070312 164.55078125 355.224609375 140.13671875 c 128
 317.952148438 115.72265625 292.643554688 96.6796875 279.296875 83.0078125 c 1
 317.708007812 77.1484375 371.663085938 78.125 441.162109375 85.9375 c 128
 510.661132812 93.75 552.409179688 106.120117188 566.40625 123.046875 c 1
 570.637695312 125.9765625 570.80078125 129.231445312 566.89453125 132.8125 c 0
EndSplineSet
EndChar

StartChar: aSad.isol
Encoding: 65586 -1 50
Width: 1212
AnchorPoint: "TwoDotsBelow" 830 -98 basechar 0
AnchorPoint: "DotBelow" 879 -98 basechar 0
AnchorPoint: "TashkilBelow" 342 -327 basechar 0
AnchorPoint: "TashkilAbove" 820 801 basechar 0
AnchorPoint: "TwoDotsAbove" 767 542 basechar 0
AnchorPoint: "DotAbove" 821 542 basechar 0
AnchorPoint: "HamzaAbove" 821 542 basechar 0
LayerCount: 3
Fore
SplineSet
1039 408 m 0
 1091 409 1129 376 1152 310 c 0
 1159 290 1153 263 1137 231 c 128
 1121 199 1108 178 1098 167 c 0
 1046 110 956 76 830 66 c 0
 756 60 689 63 629 75 c 1
 615 -28 593 -94 563 -125 c 0
 493 -197 405 -236 299 -243 c 0
 225 -248 169 -234 129 -199 c 0
 75 -152 53 -87 63 -5 c 0
 71 58 90 115 120 165 c 0
 134 189 145 205 151 212 c 128
 157 219 163 221 170 217 c 128
 177 213 177 204 170 192 c 0
 136 126 123 66 130 12 c 0
 141 -70 200 -110 308 -110 c 0
 389 -110 460 -89 521 -48 c 0
 554 -26 574 -7 580 9 c 1
 574 65 555 113 525 152 c 0
 516 163 514 175 518 184 c 2
 556 278 l 2
 564 298 575 296 589 273 c 1
 624 214 l 1
 644 203 682 196 737 194 c 1
 781 245 834 294 894 339 c 128
 954 384 1003 407 1039 408 c 0
1085 246 m 1
 1052 271 1009 279 958 269 c 128
 907 259 852 233 793 191 c 1
 927 190 1025 208 1085 246 c 1
EndSplineSet
Layer: 2
SplineSet
1038.57421875 393.06640625 m 24
 1089.03027344 393.717773438 1125.32519531 364.420898438 1147.4609375 305.17578125 c 1
 1152.34375 287.59765625 1147.37988281 264.241210938 1132.56835938 235.107421875 c 128
 1117.75683594 205.973632812 1105.95703125 186.5234375 1097.16796875 176.7578125 c 0
 1049.64160156 124.0234375 960.124023438 92.1220703125 828.61328125 81.0546875 c 0
 754.719726562 74.8701171875 687.336914062 78.7763671875 626.46484375 92.7734375 c 1
 613.118164062 -14.9736328125 591.796875 -83.984375 562.5 -114.2578125 c 0
 495.442382812 -183.268554688 407.389648438 -221.354492188 298.33984375 -228.515625 c 0
 178.547851562 -236.328125 102.702148438 -192.057617188 70.80078125 -95.703125 c 0
 62.6630859375 -70.3125 60.8720703125 -40.8525390625 65.4296875 -7.32421875 c 0
 73.5673828125 51.5947265625 91.796875 106.770507812 120.1171875 158.203125 c 0
 131.8359375 179.6875 142.903320312 196.940429688 153.3203125 209.9609375 c 0
 156.575195312 213.8671875 160.237304688 215.413085938 164.306640625 214.599609375 c 128
 168.375976562 213.786132812 170.979492188 211.506835938 172.119140625 207.763671875 c 128
 173.258789062 204.020507812 172.688476562 200.032226562 170.41015625 195.80078125 c 1
 159.993164062 181.803710938 150.715820312 164.875976562 142.578125 145.01953125 c 0
 121.745117188 93.9130859375 114.420898438 48.828125 120.60546875 9.765625 c 1
 135.905273438 -78.7763671875 191.569335938 -124.348632812 287.59765625 -126.953125 c 1
 373.53515625 -128.90625 453.776367188 -107.421875 528.3203125 -62.5 c 1
 553.385742188 -47.8515625 571.77734375 -25.87890625 583.49609375 3.41796875 c 0
 585.124023438 6.9990234375 585.44921875 11.71875 584.47265625 17.578125 c 0
 574.70703125 81.0546875 557.6171875 129.719726562 533.203125 163.57421875 c 0
 527.995117188 171.061523438 526.204101562 176.920898438 527.83203125 181.15234375 c 2
 558.59375 263.18359375 l 1
 564.453125 274.577148438 570.3125 275.390625 576.171875 265.625 c 2
 613.28125 203.125 l 1
 636.71875 188.801757812 674.153320312 180.6640625 725.5859375 178.7109375 c 1
 783.528320312 237.3046875 841.877929688 287.59765625 900.634765625 329.58984375 c 128
 959.391601562 371.58203125 1005.37109375 392.741210938 1038.57421875 393.06640625 c 24
1088.37890625 245.1171875 m 1
 1047.36328125 282.877929688 1003.49902344 295.654296875 956.787109375 283.447265625 c 128
 910.075195312 271.240234375 848.795898438 236.165039062 772.94921875 178.22265625 c 1
 913.249023438 170.084960938 1018.39160156 192.3828125 1088.37890625 245.1171875 c 1
EndSplineSet
EndChar

StartChar: aSad.medi
Encoding: 65587 -1 51
Width: 722
AnchorPoint: "TwoDotsBelow" 342 -195 basechar 0
AnchorPoint: "DotBelow" 391 -195 basechar 0
AnchorPoint: "TashkilBelow" 391 -327 basechar 0
AnchorPoint: "TashkilAbove" 342 801 basechar 0
AnchorPoint: "TwoDotsAbove" 293 482 basechar 0
AnchorPoint: "DotAbove" 348 482 basechar 0
AnchorPoint: "HamzaAbove" 348 482 basechar 0
LayerCount: 3
Back
SplineSet
-0.9765625 90.33203125 m 0
 10.0908203125 87.7275390625 16.2763671875 83.984375 17.578125 79.1015625 c 0
 18.8798828125 73.5673828125 18.8798828125 65.5927734375 17.578125 55.17578125 c 0
 12.6953125 18.3916015625 6.5107421875 0 -0.9765625 0 c 0
 -36.7841796875 -0.3251953125 -72.9169921875 19.8564453125 -109.375 60.546875 c 1
 -138.997070312 24.4140625 -184.245117188 4.2314453125 -245.1171875 0 c 0
 -251.301757812 -0.3251953125 -255.534179688 4.7197265625 -257.8125 15.13671875 c 2
 -266.6015625 56.640625 l 2
 -268.229492188 63.4765625 -266.926757812 70.4755859375 -262.6953125 77.63671875 c 0
 -258.137695312 85.44921875 -252.278320312 89.6806640625 -245.1171875 90.33203125 c 0
 -170.8984375 95.8662109375 -121.418945312 117.67578125 -96.6796875 155.76171875 c 0
 -93.0986328125 161.295898438 -89.1923828125 164.0625 -84.9609375 164.0625 c 0
 -78.125 164.0625 -74.5439453125 161.784179688 -74.21875 157.2265625 c 0
 -73.5673828125 149.4140625 -72.75390625 144.53125 -71.77734375 142.578125 c 0
 -49.9677734375 112.629882812 -26.3671875 95.21484375 -0.9765625 90.33203125 c 0
536.1328125 332.03125 m 1
 562.5 337.565429688 590.739257812 331.135742188 620.849609375 312.744140625 c 128
 650.959960938 294.352539062 668.9453125 272.94921875 674.8046875 248.53515625 c 1
 665.0390625 203.288085938 651.041992188 166.178710938 632.8125 137.20703125 c 0
 627.278320312 128.743164062 620.198242188 120.60546875 611.572265625 112.79296875 c 128
 602.946289062 104.98046875 591.552734375 95.8662109375 577.392578125 85.44921875 c 128
 563.232421875 75.0322265625 554.362304688 68.1962890625 550.78125 64.94140625 c 1
 565.4296875 65.2666015625 580.891601562 66.40625 597.16796875 68.359375 c 128
 613.444335938 70.3125 626.708984375 72.1845703125 636.962890625 73.974609375 c 128
 647.216796875 75.7646484375 662.109375 78.5322265625 681.640625 82.275390625 c 128
 701.171875 86.0185546875 714.680664062 88.7041015625 722.16796875 90.33203125 c 0
 730.95703125 91.9599609375 737.3046875 85.6123046875 741.2109375 71.2890625 c 0
 747.0703125 48.828125 745.60546875 28.6455078125 736.81640625 10.7421875 c 0
 733.235351562 3.5810546875 729.00390625 -0.1630859375 724.12109375 -0.48828125 c 0
 614.420898438 -2.44140625 529.133789062 -0.6513671875 468.26171875 4.8828125 c 1
 435.383789062 0 396.728515625 -2.0341796875 352.294921875 -1.220703125 c 128
 307.861328125 -0.4072265625 268.5546875 3.5810546875 234.375 10.7421875 c 1
 223.958007812 -18.8798828125 217.28515625 -42.8056640625 214.35546875 -61.03515625 c 0
 213.053710938 -69.82421875 209.065429688 -75.8466796875 202.392578125 -79.1015625 c 128
 195.719726562 -82.3564453125 189.616210938 -81.8681640625 184.08203125 -77.63671875 c 128
 178.547851562 -73.4052734375 176.432617188 -66.0810546875 177.734375 -55.6640625 c 0
 180.012695312 -37.7607421875 187.174804688 -11.71875 199.21875 22.4609375 c 1
 178.385742188 28.6455078125 161.1328125 36.5400390625 147.4609375 46.142578125 c 128
 133.7890625 55.7451171875 120.280273438 69.1728515625 106.93359375 86.42578125 c 1
 102.375976562 84.47265625 95.0517578125 77.5556640625 84.9609375 65.673828125 c 128
 74.8701171875 53.7919921875 62.4189453125 41.3408203125 47.607421875 28.3203125 c 128
 32.7958984375 15.2998046875 16.9267578125 5.859375 0 0 c 0
 -7.1611328125 -2.6044921875 -12.8583984375 2.9296875 -17.08984375 16.6015625 c 0
 -23.92578125 40.0390625 -23.4375 60.7099609375 -15.625 78.61328125 c 0
 -12.0439453125 86.42578125 -7.1611328125 90.1689453125 -0.9765625 89.84375 c 0
 10.4169921875 89.1923828125 22.0537109375 91.552734375 33.935546875 96.923828125 c 128
 45.8173828125 102.294921875 55.419921875 108.235351562 62.744140625 114.74609375 c 128
 70.068359375 121.256835938 78.5322265625 129.313476562 88.134765625 138.916015625 c 128
 97.7373046875 148.518554688 104.00390625 154.459960938 106.93359375 156.73828125 c 0
 114.420898438 161.62109375 119.791992188 163.493164062 123.046875 162.353515625 c 128
 126.301757812 161.213867188 131.34765625 156.73828125 138.18359375 148.92578125 c 0
 168.45703125 115.397460938 204.915039062 97.0048828125 247.55859375 93.75 c 1
 285.969726562 151.692382812 334.228515625 203.694335938 392.333984375 249.755859375 c 128
 450.439453125 295.817382812 498.372070312 323.2421875 536.1328125 332.03125 c 1
598.6328125 192.3828125 m 0
 571.940429688 217.448242188 540.0390625 229.00390625 502.9296875 227.05078125 c 0
 472.65625 225.09765625 435.709960938 209.635742188 392.08984375 180.6640625 c 128
 348.469726562 151.692382812 315.592773438 120.768554688 293.45703125 87.890625 c 1
 352.375976562 85.9375 412.678710938 95.947265625 474.365234375 117.919921875 c 128
 536.051757812 139.892578125 577.63671875 160.969726562 599.12109375 181.15234375 c 0
 600.09765625 182.454101562 600.504882812 184.489257812 600.341796875 187.255859375 c 128
 600.178710938 190.022460938 599.609375 191.731445312 598.6328125 192.3828125 c 0
EndSplineSet
Fore
SplineSet
596 192 m 1
 545 227 488 227 427 191 c 128
 366 155 326 126 306 103 c 1
 349 105 400 114 458 130 c 128
 516 146 562 167 596 192 c 1
232 -6 m 1
 225 -24 220 -41 217 -57 c 0
 213 -76 204 -84 191 -82 c 0
 175 -79 172 -61 181 -29 c 0
 188 -4 192 8 192 9 c 1
 157 19 127 41 102 72 c 1
 66 15 32 -15 1 -15 c 0
 -15 -15 -25 -6 -31 12 c 0
 -43 51 -38 80 -17 100 c 0
 -13 104 -7 105 0 105 c 1
 38 105 75 125 110 166 c 0
 115 172 121 175 127 174 c 0
 133 173 140 169 149 159 c 1
 173 131 208 114 255 109 c 1
 294 165 340 217 393 263 c 128
 446 309 493 337 533 346 c 1
 564 352 593 345 622 325 c 128
 651 305 669 279 676 249 c 1
 666 200 650 159 629 125 c 1
 657 115 689 109 723 105 c 0
 738 104 746 88 749 59 c 0
 752 28 750 8 743 -2 c 0
 738 -9 732 -14 724 -15 c 0
 672 -21 605 -4 525 36 c 1
 443 -13 346 -27 232 -6 c 1
EndSplineSet
Layer: 2
SplineSet
481.4453125 30.2734375 m 1
 399.739257812 -1.3017578125 317.3828125 -7.8125 234.375 10.7421875 c 1
 223.958007812 -18.8798828125 217.692382812 -40.4462890625 215.576171875 -53.955078125 c 128
 213.459960938 -67.4638671875 209.065429688 -75.8466796875 202.392578125 -79.1015625 c 128
 195.719726562 -82.3564453125 189.616210938 -81.8681640625 184.08203125 -77.63671875 c 0
 173.665039062 -69.4990234375 178.7109375 -36.1328125 199.21875 22.4609375 c 1
 178.385742188 28.6455078125 161.1328125 36.5400390625 147.4609375 46.142578125 c 128
 133.7890625 55.7451171875 120.280273438 69.1728515625 106.93359375 86.42578125 c 1
 71.4521484375 32.0634765625 35.8076171875 3.2548828125 0 0 c 0
 -7.8125 -0.6513671875 -13.5087890625 4.8828125 -17.08984375 16.6015625 c 0
 -24.90234375 41.015625 -24.4140625 61.6865234375 -15.625 78.61328125 c 0
 -11.0673828125 87.40234375 -5.859375 91.30859375 0 90.33203125 c 0
 30.5986328125 85.1240234375 66.2431640625 107.258789062 106.93359375 156.73828125 c 0
 111.81640625 162.59765625 116.536132812 164.631835938 121.09375 162.841796875 c 128
 125.651367188 161.051757812 131.34765625 156.413085938 138.18359375 148.92578125 c 0
 168.45703125 115.397460938 204.915039062 97.0048828125 247.55859375 93.75 c 1
 285.969726562 151.692382812 334.228515625 203.694335938 392.333984375 249.755859375 c 128
 450.439453125 295.817382812 498.372070312 323.2421875 536.1328125 332.03125 c 1
 562.5 337.565429688 590.739257812 331.135742188 620.849609375 312.744140625 c 128
 650.959960938 294.352539062 668.9453125 272.94921875 674.8046875 248.53515625 c 1
 661.1328125 184.407226562 637.532226562 134.114257812 604.00390625 97.65625 c 1
 653.157226562 88.5419921875 692.708007812 86.1005859375 722.65625 90.33203125 c 0
 732.096679688 91.6337890625 738.28125 85.6123046875 741.2109375 72.265625 c 0
 747.395507812 46.5498046875 745.768554688 26.3671875 736.328125 11.71875 c 0
 731.4453125 4.2314453125 726.887695312 0.3251953125 722.65625 0 c 0
 649.739257812 -5.2080078125 569.3359375 4.8828125 481.4453125 30.2734375 c 1
598.6328125 192.3828125 m 0
 548.502929688 242.512695312 479.655273438 238.606445312 392.08984375 180.6640625 c 0
 348.469726562 151.692382812 315.592773438 120.768554688 293.45703125 87.890625 c 1
 343.913085938 85.9375 404.296875 95.703125 474.609375 117.1875 c 0
 519.856445312 131.184570312 561.360351562 152.506835938 599.12109375 181.15234375 c 0
 603.352539062 184.407226562 603.190429688 188.151367188 598.6328125 192.3828125 c 0
EndSplineSet
EndChar

StartChar: aSen.fina
Encoding: 65588 -1 52
Width: 1079
AnchorPoint: "DigitAbove" 779 366 basechar 0
AnchorPoint: "VAbove" 779 366 basechar 0
AnchorPoint: "TwoDotsBelow" 732 -195 basechar 0
AnchorPoint: "DotBelow" 781 -195 basechar 0
AnchorPoint: "TashkilBelow" 312 -391 basechar 0
AnchorPoint: "TashkilAbove" 732 801 basechar 0
AnchorPoint: "TwoDotsAbove" 725 366 basechar 0
AnchorPoint: "HamzaAbove" 779 366 basechar 0
AnchorPoint: "DotAbove" 779 366 basechar 0
LayerCount: 3
Fore
SplineSet
630 -36 m 1
 625 -107 611 -163 588 -204 c 0
 527 -311 425 -364 281 -364 c 0
 169 -364 99 -314 70 -213 c 0
 62 -186 63 -147 72 -97 c 128
 81 -47 102 7 135 63 c 0
 139 70 143 71 149 68 c 1
 159 65 162 59 157 51 c 0
 118 -16 104 -73 114 -118 c 1
 131 -190 190 -227 292 -229 c 0
 345 -230 399 -221 454 -201 c 128
 509 -181 551 -152 578 -113 c 1
 588 -65 573 -14 533 39 c 1
 526 50 524 60 527 70 c 2
 555 166 l 2
 563 194 575 192 594 161 c 0
 603 145 613 125 620 103 c 0
 624 90 653 87 709 94 c 0
 747 99 776 125 795 171 c 0
 802 190 811 197 822 193 c 128
 833 189 837 180 834 166 c 1
 825 136 l 1
 825 131 825 127 827 126 c 0
 854 112 883 107 912 112 c 1
 924 139 932 164 936 186 c 0
 938 196 944 203 954 207 c 128
 964 211 974 204 982 189 c 0
 1013 133 1046 105 1079 105 c 256
 1112 105 1124 81 1115 32 c 1
 1110 1 1099 -15 1079 -15 c 0
 1028 -15 986 23 954 99 c 1
 942 55 930 22 919 1 c 128
 908 -20 892 -31 871 -31 c 0
 835 -31 801 -19 768 8 c 1
 733 -24 687 -39 630 -36 c 1
EndSplineSet
Layer: 2
SplineSet
941.40625 182.6171875 m 24
 943.359375 190.4296875 947.590820312 195.637695312 954.1015625 198.2421875 c 0
 962.565429688 201.171875 970.21484375 195.963867188 977.05078125 182.6171875 c 0
 1009.27734375 120.1171875 1043.29394531 89.35546875 1079.1015625 90.33203125 c 0
 1098.6328125 90.9833984375 1105.79394531 72.1025390625 1100.5859375 33.69140625 c 0
 1097.65625 11.23046875 1090.49511719 0 1079.1015625 0 c 0
 1029.62207031 0 989.2578125 37.59765625 958.0078125 112.79296875 c 0
 954.752929688 120.60546875 951.823242188 120.442382812 949.21875 112.3046875 c 0
 932.6171875 58.2685546875 920.084960938 23.3564453125 911.62109375 7.568359375 c 128
 903.157226562 -8.2197265625 891.11328125 -16.2763671875 875.48828125 -16.6015625 c 0
 836.100585938 -17.2529296875 799.967773438 -2.2783203125 767.08984375 28.3203125 c 1
 731.608398438 -10.7421875 684.407226562 -26.6923828125 625.48828125 -19.53125 c 1
 623.209960938 -88.2158203125 612.629882812 -144.694335938 593.75 -188.96484375 c 0
 593.26171875 -188.96484375 l 0
 580.241210938 -219.563476562 560.709960938 -244.62890625 534.66796875 -264.16015625 c 0
 456.54296875 -323.079101562 372.0703125 -351.5625 281.25 -349.609375 c 0
 169.270507812 -347.004882812 98.6328125 -300.129882812 69.3359375 -208.984375 c 0
 61.5234375 -183.268554688 62.0927734375 -147.053710938 71.044921875 -100.341796875 c 128
 79.9970703125 -53.6298828125 101.237304688 0.8134765625 134.765625 62.98828125 c 0
 137.043945312 67.2197265625 140.217773438 69.4990234375 144.287109375 69.82421875 c 128
 148.356445312 70.1494140625 151.448242188 68.603515625 153.564453125 65.185546875 c 128
 155.680664062 61.767578125 155.76171875 58.10546875 153.80859375 54.19921875 c 0
 112.79296875 -23.2744140625 95.8662109375 -77.63671875 103.02734375 -108.88671875 c 0
 120.930664062 -186.03515625 183.59375 -230.793945312 291.015625 -243.1640625 c 0
 335.9375 -248.372070312 388.264648438 -239.665039062 447.998046875 -217.041015625 c 128
 507.731445312 -194.416992188 552.24609375 -161.784179688 581.54296875 -119.140625 c 1
 596.19140625 -66.40625 584.147460938 -11.0673828125 545.41015625 46.875 c 0
 541.178710938 54.0361328125 539.875976562 60.546875 541.50390625 66.40625 c 2
 565.4296875 149.4140625 l 2
 569.010742188 162.434570312 574.055664062 164.225585938 580.56640625 154.78515625 c 0
 590.006835938 138.834960938 598.307617188 120.1171875 605.46875 98.6328125 c 0
 612.629882812 76.4970703125 647.94921875 70.1494140625 711.42578125 79.58984375 c 0
 743.327148438 84.1474609375 768.229492188 103.190429688 786.1328125 136.71875 c 0
 790.690429688 145.182617188 794.921875 154.866210938 798.828125 165.771484375 c 128
 802.734375 176.676757812 807.047851562 182.6171875 811.767578125 183.59375 c 128
 816.487304688 184.5703125 820.637695312 183.186523438 824.21875 179.443359375 c 128
 827.799804688 175.700195312 828.938476562 171.223632812 827.63671875 166.015625 c 0
 818.359375 136.71875 l 0
 815.4296875 124.348632812 818.684570312 115.559570312 828.125 110.3515625 c 0
 854.817382812 95.703125 881.672851562 91.796875 908.69140625 98.6328125 c 0
 917.155273438 100.911132812 928.059570312 128.90625 941.40625 182.6171875 c 24
EndSplineSet
EndChar

StartChar: aSen.init
Encoding: 65589 -1 53
Width: 568
AnchorPoint: "DigitAbove" 317 439 basechar 0
AnchorPoint: "VAbove" 317 439 basechar 0
AnchorPoint: "TwoDotsBelow" 269 -98 basechar 0
AnchorPoint: "DotBelow" 317 -98 basechar 0
AnchorPoint: "TashkilBelow" 293 -327 basechar 0
AnchorPoint: "TashkilAbove" 317 801 basechar 0
AnchorPoint: "TwoDotsAbove" 263 439 basechar 0
AnchorPoint: "HamzaAbove" 317 439 basechar 0
AnchorPoint: "DotAbove" 317 439 basechar 0
LayerCount: 3
Fore
SplineSet
157 207 m 0
 178 207 180 189 162 154 c 1
 181 139 203 132 231 132 c 0
 276 131 313 172 343 255 c 0
 348 268 354 272 364 269 c 128
 374 266 378 258 376 246 c 1
 367 211 l 1
 379 201 396 193 416 186 c 128
 436 179 453 177 465 177 c 1
 460 197 455 212 449 222 c 128
 443 232 445 242 452 254 c 2
 482 305 l 1
 493 316 501 308 507 280 c 0
 516 234 516 189 506 146 c 128
 496 103 480 75 456 60 c 0
 453 58 448 57 441 57 c 0
 395 55 355 68 321 97 c 1
 296 49 264 19 222 8 c 128
 180 -3 138 13 96 57 c 1
 56 9 24 -15 0 -15 c 0
 -14 -15 -23 -4 -28 18 c 0
 -31 30 -33 41 -34 51 c 0
 -37 84 -26 102 -1 105 c 0
 65 112 112 141 141 193 c 0
 146 202 151 207 157 207 c 0
EndSplineSet
Layer: 2
SplineSet
485.3515625 285.15625 m 0
 487.956054688 289.0625 491.536132812 287.109375 496.09375 279.296875 c 128
 500.651367188 271.484375 503.581054688 254.801757812 504.8828125 229.248046875 c 128
 506.184570312 203.694335938 503.90625 178.385742188 498.046875 153.3203125 c 1
 484.375 99.2841796875 466.959960938 71.9404296875 445.80078125 71.2890625 c 0
 396.97265625 69.3359375 355.46875 86.1005859375 321.2890625 121.58203125 c 1
 297.8515625 66.5693359375 265.625 33.69140625 224.609375 22.94921875 c 128
 183.59375 12.20703125 141.926757812 29.4599609375 99.609375 74.70703125 c 1
 64.453125 24.90234375 31.25 0 0 0 c 1
 -6.8359375 -0.3251953125 -12.7763671875 14.2412109375 -17.822265625 43.701171875 c 128
 -22.8681640625 73.1611328125 -16.9267578125 88.7041015625 0 90.33203125 c 0
 64.453125 96.8427734375 114.420898438 130.534179688 149.90234375 191.40625 c 0
 151.530273438 194.987304688 153.971679688 196.614257812 157.2265625 196.2890625 c 0
 160.481445312 196.2890625 163.0859375 194.987304688 165.0390625 192.3828125 c 0
 168.620117188 187.5 163.737304688 172.8515625 150.390625 148.4375 c 1
 161.458007812 128.254882812 188.4765625 117.838867188 231.4453125 117.1875 c 0
 282.877929688 116.536132812 322.265625 161.62109375 349.609375 252.44140625 c 0
 350.911132812 256.022460938 353.190429688 258.056640625 356.4453125 258.544921875 c 128
 359.700195312 259.033203125 362.467773438 257.893554688 364.74609375 255.126953125 c 128
 367.024414062 252.360351562 367.838867188 249.0234375 367.1875 245.1171875 c 2
 356.93359375 202.63671875 l 1
 370.930664062 187.98828125 391.357421875 176.7578125 418.212890625 168.9453125 c 128
 445.068359375 161.1328125 460.612304688 162.028320312 464.84375 171.630859375 c 128
 469.075195312 181.233398438 466.145507812 200.846679688 456.0546875 230.46875 c 0
 454.752929688 233.723632812 464.518554688 251.953125 485.3515625 285.15625 c 0
EndSplineSet
EndChar

StartChar: aSen.isol
Encoding: 65590 -1 54
Width: 992
AnchorPoint: "DigitAbove" 748 522 basechar 0
AnchorPoint: "VAbove" 748 522 basechar 0
AnchorPoint: "TwoDotsBelow" 732 -98 basechar 0
AnchorPoint: "DotBelow" 781 -98 basechar 0
AnchorPoint: "TashkilBelow" 342 -327 basechar 0
AnchorPoint: "TashkilAbove" 732 801 basechar 0
AnchorPoint: "TwoDotsAbove" 694 522 basechar 0
AnchorPoint: "HamzaAbove" 748 522 basechar 0
AnchorPoint: "DotAbove" 748 522 basechar 0
LayerCount: 3
Fore
SplineSet
885 382 m 2
 890 400 899 401 913 386 c 128
 927 371 934 347 934 314 c 0
 934 250 922 198 897 159 c 0
 889 146 878 138 863 134 c 0
 834 126 800 136 764 163 c 1
 732 112 690 88 636 92 c 1
 632 40 622 -8 608 -50 c 128
 594 -92 568 -127 531 -156 c 0
 452 -218 368 -247 279 -245 c 0
 167 -242 97 -190 69 -91 c 0
 61 -63 62 -25 72 24 c 128
 82 73 101 126 131 181 c 0
 136 190 141 193 148 189 c 128
 155 185 156 178 152 169 c 0
 119 91 107 39 114 15 c 0
 136 -67 195 -109 290 -109 c 0
 429 -110 526 -68 581 15 c 1
 583 58 567 112 533 177 c 0
 527 188 526 199 530 207 c 2
 572 285 l 2
 578 297 587 294 599 278 c 128
 611 262 623 243 632 221 c 1
 705 210 751 247 771 333 c 0
 775 348 781 355 790 354 c 0
 805 352 808 331 801 292 c 1
 823 278 848 271 876 272 c 1
 876 275 873 282 866 293 c 0
 864 297 864 303 867 314 c 2
 885 382 l 2
EndSplineSet
Layer: 2
SplineSet
893.06640625 363.28125 m 2
 894.694335938 369.791992188 898.112304688 373.127929688 903.3203125 373.291015625 c 128
 908.528320312 373.454101562 912.760742188 370.768554688 916.015625 365.234375 c 0
 924.8046875 350.5859375 929.19921875 327.961914062 929.19921875 297.36328125 c 0
 929.19921875 248.53515625 917.48046875 205.078125 894.04296875 166.9921875 c 0
 887.858398438 156.901367188 879.719726562 150.715820312 869.62890625 148.4375 c 0
 838.37890625 142.252929688 802.24609375 151.692382812 761.23046875 176.7578125 c 1
 731.282226562 123.372070312 688.151367188 100.5859375 631.8359375 108.3984375 c 1
 628.581054688 51.1064453125 619.954101562 1.6279296875 605.95703125 -40.0390625 c 128
 591.959960938 -81.7060546875 567.3828125 -116.374023438 532.2265625 -144.04296875 c 24
 455.729492188 -203.61328125 371.418945312 -232.258789062 279.296875 -229.98046875 c 0
 165.364257812 -227.05078125 95.0517578125 -179.362304688 68.359375 -86.9140625 c 0
 60.8720703125 -60.8720703125 62.0927734375 -23.6005859375 72.021484375 24.90234375 c 128
 81.9501953125 73.4052734375 102.213867188 125.9765625 132.8125 182.6171875 c 0
 135.090820312 186.848632812 138.264648438 189.127929688 142.333984375 189.453125 c 128
 146.403320312 189.778320312 149.4140625 188.313476562 151.3671875 185.05859375 c 128
 153.3203125 181.803710938 153.3203125 178.059570312 151.3671875 173.828125 c 0
 109.700195312 92.4482421875 92.7734375 38.0859375 100.5859375 10.7421875 c 0
 125 -76.171875 187.825195312 -120.930664062 289.0625 -123.53515625 c 0
 427.409179688 -127.116210938 526.204101562 -82.51953125 585.44921875 10.25390625 c 1
 589.030273438 61.3603515625 575.846679688 119.140625 545.8984375 183.59375 c 0
 542.317382812 190.4296875 541.50390625 195.963867188 543.45703125 200.1953125 c 0
 557.780273438 230.793945312 569.661132812 253.254882812 579.1015625 267.578125 c 0
 581.706054688 271.484375 584.716796875 271.97265625 588.134765625 269.04296875 c 128
 591.552734375 266.11328125 598.713867188 255.37109375 609.619140625 236.81640625 c 128
 620.524414062 218.26171875 628.743164062 208.333007812 634.27734375 207.03125 c 0
 668.45703125 199.543945312 702.961914062 209.9609375 737.79296875 238.28125 c 0
 751.139648438 249.348632812 763.671875 279.78515625 775.390625 329.58984375 c 0
 776.692382812 335.124023438 779.296875 338.704101562 783.203125 340.33203125 c 128
 787.109375 341.959960938 790.690429688 341.796875 793.9453125 339.84375 c 0
 800.456054688 335.286132812 800.78125 316.081054688 794.921875 282.2265625 c 1
 821.614257812 262.6953125 851.237304688 254.557617188 883.7890625 257.8125 c 1
 884.114257812 267.903320312 882.487304688 275.065429688 878.90625 279.296875 c 128
 875.325195312 283.528320312 874.0234375 287.434570312 875 291.015625 c 2
 893.06640625 363.28125 l 2
EndSplineSet
EndChar

StartChar: aSen.medi
Encoding: 65591 -1 55
Width: 568
AnchorPoint: "DigitAbove" 291 379 basechar 0
AnchorPoint: "VAbove" 291 379 basechar 0
AnchorPoint: "TwoDotsBelow" 220 -146 basechar 0
AnchorPoint: "DotBelow" 269 -195 basechar 0
AnchorPoint: "TashkilBelow" 303 -327 basechar 0
AnchorPoint: "TashkilAbove" 244 801 basechar 0
AnchorPoint: "HamzaAbove" 291 379 basechar 0
AnchorPoint: "DotAbove" 291 379 basechar 0
AnchorPoint: "TwoDotsAbove" 236 379 basechar 0
LayerCount: 3
Fore
SplineSet
127 167 m 0
 132 181 141 187 154 182 c 0
 166 177 168 165 159 145 c 0
 156 139 153 133 150 127 c 1
 222 101 274 122 305 187 c 1
 311 201 321 206 332 201 c 128
 343 196 346 186 340 170 c 128
 334 154 331 143 331 138 c 0
 332 124 345 115 370 112 c 128
 395 109 411 113 419 124 c 128
 427 135 435 157 442 192 c 0
 444 201 450 206 459 206 c 128
 468 206 474 202 477 194 c 0
 498 138 529 109 569 105 c 0
 584 103 594 91 599 69 c 128
 604 47 603 28 598 11 c 128
 593 -6 583 -15 569 -15 c 0
 509 -15 468 19 447 87 c 1
 438 57 427 31 416 10 c 128
 405 -11 390 -20 371 -21 c 0
 325 -23 289 -9 263 23 c 1
 236 -2 204 -14 168 -14 c 128
 132 -14 102 -3 81 18 c 1
 55 -3 28 -15 0 -15 c 0
 -19 -15 -30 2 -35 34 c 0
 -36 42 -38 53 -39 68 c 0
 -40 84 -32 96 -16 102 c 0
 -10 104 -5 105 0 105 c 0
 72 110 114 131 127 167 c 0
EndSplineSet
Layer: 2
SplineSet
128.41796875 161.62109375 m 0
 132.32421875 170.084960938 136.881835938 175.211914062 142.08984375 177.001953125 c 128
 147.297851562 178.791992188 151.936523438 177.083007812 156.005859375 171.875 c 128
 160.075195312 166.666992188 159.749023438 159.098632812 155.029296875 149.169921875 c 128
 150.309570312 139.241210938 144.856445312 128.743164062 138.671875 117.67578125 c 1
 219.401367188 84.47265625 275.87890625 106.120117188 308.10546875 182.6171875 c 0
 311.686523438 191.081054688 316.081054688 196.208007812 321.2890625 197.998046875 c 128
 326.497070312 199.788085938 330.973632812 198.323242188 334.716796875 193.603515625 c 128
 338.459960938 188.883789062 339.030273438 182.454101562 336.42578125 174.31640625 c 0
 328.61328125 151.85546875 325.1953125 136.71875 326.171875 128.90625 c 0
 327.799804688 113.932617188 340.087890625 103.759765625 363.037109375 98.388671875 c 128
 385.986328125 93.017578125 403.239257812 96.2724609375 414.794921875 108.154296875 c 128
 426.350585938 120.036132812 437.01171875 146.97265625 446.77734375 188.96484375 c 0
 448.079101562 194.499023438 452.229492188 197.265625 459.228515625 197.265625 c 128
 466.227539062 197.265625 470.866210938 194.499023438 473.14453125 188.96484375 c 0
 497.233398438 127.44140625 529.133789062 94.5634765625 568.84765625 90.33203125 c 0
 576.985351562 89.35546875 582.682617188 79.7529296875 585.9375 61.5234375 c 0
 589.192382812 45.2470703125 588.948242188 30.9248046875 585.205078125 18.5546875 c 128
 581.461914062 6.1845703125 576.008789062 0 568.84765625 0 c 0
 514.16015625 0 474.284179688 33.0400390625 449.21875 99.12109375 c 0
 447.590820312 103.678710938 445.963867188 103.515625 444.3359375 98.6328125 c 0
 432.6171875 58.2685546875 421.061523438 30.76171875 409.66796875 16.11328125 c 128
 398.274414062 1.46484375 385.25390625 -6.1845703125 370.60546875 -6.8359375 c 0
 323.405273438 -8.7890625 287.922851562 8.9521484375 264.16015625 46.38671875 c 1
 238.444335938 15.4619140625 206.461914062 0 168.212890625 0 c 128
 129.963867188 0 101.399414062 13.0205078125 82.51953125 39.0625 c 1
 56.15234375 13.0205078125 28.6455078125 0 0 0 c 0
 -12.6953125 0 -20.5078125 22.4609375 -23.4375 67.3828125 c 0
 -24.4140625 81.0546875 -16.6015625 88.7041015625 0 90.33203125 c 0
 66.40625 95.5400390625 109.211914062 119.303710938 128.41796875 161.62109375 c 0
EndSplineSet
EndChar

StartChar: aTaa.fina
Encoding: 65592 -1 56
Width: 751
AnchorPoint: "TashkilBelow" 391 -327 basechar 0
AnchorPoint: "TashkilAbove" 488 801 basechar 0
AnchorPoint: "TwoDotsAbove" 522 488 basechar 0
AnchorPoint: "DotAbove" 576 488 basechar 0
LayerCount: 3
Back
SplineSet
320.80078125 766.11328125 m 0
 322.75390625 769.694335938 325.520507812 771.403320312 329.1015625 771.240234375 c 128
 332.682617188 771.077148438 335.44921875 769.368164062 337.40234375 766.11328125 c 0
 339.680664062 761.881835938 343.017578125 754.150390625 347.412109375 742.919921875 c 128
 351.806640625 731.689453125 356.526367188 721.760742188 361.572265625 713.134765625 c 128
 366.618164062 704.508789062 373.209960938 696.125976562 381.34765625 687.98828125 c 0
 382.975585938 686.03515625 384.114257812 683.186523438 384.765625 679.443359375 c 128
 385.416992188 675.700195312 384.27734375 671.223632812 381.34765625 666.015625 c 1
 362.3046875 640.625 l 2
 358.723632812 635.7421875 357.096679688 629.557617188 357.421875 622.0703125 c 0
 372.721679688 451.497070312 379.231445312 346.19140625 376.953125 306.15234375 c 0
 375.651367188 284.016601562 369.303710938 244.465820312 357.91015625 187.5 c 1
 421.38671875 241.536132812 485.83984375 283.69140625 551.26953125 313.96484375 c 0
 583.49609375 328.938476562 611.328125 333.984375 634.765625 329.1015625 c 0
 646.809570312 326.497070312 659.504882812 318.034179688 672.8515625 303.7109375 c 128
 686.198242188 289.387695312 696.614257812 273.762695312 704.1015625 256.8359375 c 0
 707.356445312 249.348632812 707.844726562 239.583007812 705.56640625 227.5390625 c 0
 698.079101562 188.151367188 682.942382812 154.133789062 660.15625 125.48828125 c 0
 643.879882812 104.98046875 614.420898438 83.8212890625 571.77734375 62.01171875 c 1
 606.93359375 63.96484375 666.9921875 73.4052734375 751.953125 90.33203125 c 0
 761.71875 92.28515625 768.229492188 85.9375 771.484375 71.2890625 c 0
 776.3671875 48.5029296875 773.92578125 28.3203125 764.16015625 10.7421875 c 0
 760.25390625 3.90625 756.184570312 0.3251953125 751.953125 0 c 0
 668.620117188 -5.2080078125 577.63671875 -2.44140625 479.00390625 8.30078125 c 1
 450.358398438 3.7431640625 404.948242188 0 342.7734375 -2.9296875 c 128
 280.598632812 -5.859375 219.401367188 -5.6962890625 159.1796875 -2.44140625 c 0
 156.25 -2.1162109375 152.506835938 -0.6513671875 147.94921875 1.953125 c 0
 131.999023438 11.0673828125 115.966796875 24.4140625 99.853515625 41.9921875 c 128
 83.740234375 59.5703125 72.1025390625 76.0087890625 64.94140625 91.30859375 c 0
 63.6396484375 93.5869140625 63.3134765625 95.703125 63.96484375 97.65625 c 128
 64.6162109375 99.609375 66.5693359375 100.260742188 69.82421875 99.609375 c 0
 97.8193359375 94.0751953125 136.23046875 91.30859375 185.05859375 91.30859375 c 128
 233.88671875 91.30859375 261.881835938 92.7734375 269.04296875 95.703125 c 1
 274.90234375 101.237304688 285.725585938 112.874023438 301.513671875 130.615234375 c 128
 317.301757812 148.356445312 328.776367188 160.969726562 335.9375 168.45703125 c 1
 336.9140625 187.663085938 337.483398438 208.333007812 337.646484375 230.46875 c 128
 337.809570312 252.604492188 337.727539062 272.135742188 337.40234375 289.0625 c 128
 337.077148438 305.989257812 335.9375 327.880859375 333.984375 354.736328125 c 128
 332.03125 381.591796875 330.647460938 401.530273438 329.833984375 414.55078125 c 128
 329.020507812 427.571289062 326.904296875 449.625976562 323.486328125 480.712890625 c 128
 320.068359375 511.799804688 317.87109375 531.575195312 316.89453125 540.0390625 c 128
 315.91796875 548.502929688 313.395507812 570.068359375 309.326171875 604.736328125 c 128
 305.256835938 639.404296875 303.059570312 658.69140625 302.734375 662.59765625 c 0
 301.432617188 673.991210938 300.29296875 681.640625 299.31640625 685.546875 c 0
 296.711914062 699.870117188 295.735351562 708.0078125 296.38671875 709.9609375 c 0
 304.850585938 732.421875 312.98828125 751.139648438 320.80078125 766.11328125 c 0
547.36328125 226.07421875 m 0
 544.108398438 226.07421875 539.875976562 225.749023438 534.66796875 225.09765625 c 0
 509.928710938 221.516601562 484.211914062 212.809570312 457.51953125 198.974609375 c 128
 430.827148438 185.139648438 409.912109375 172.36328125 394.775390625 160.64453125 c 128
 379.638671875 148.92578125 359.211914062 131.999023438 333.49609375 109.86328125 c 0
 328.61328125 105.631835938 324.870117188 102.375976562 322.265625 100.09765625 c 1
 446.614257812 108.561523438 550.78125 131.022460938 634.765625 167.48046875 c 1
 627.604492188 181.15234375 616.536132812 194.3359375 601.5625 207.03125 c 128
 586.588867188 219.7265625 568.522460938 226.07421875 547.36328125 226.07421875 c 0
EndSplineSet
Fore
SplineSet
528 15 m 1
 485 0 414 -11 315 -18 c 128
 216 -25 159 -22 141 -11 c 0
 108 10 78 42 52 84 c 0
 37 109 43 119 72 114 c 0
 146 102 214 100 276 109 c 1
 297 133 315 154 329 172 c 1
 331 210 327 291 318 414 c 128
 309 537 300 620 292 661 c 1
 283 704 l 2
 281 712 290 735 308 773 c 0
 324 806 338 803 351 764 c 0
 360 736 372 715 387 701 c 128
 402 687 404 673 393 657 c 0
 374 636 l 2
 369 631 368 628 368 624 c 0
 383 457 388 352 383 309 c 128
 378 266 373 233 370 208 c 1
 419 249 472 283 526 312 c 128
 580 341 618 352 640 343 c 0
 674 330 699 303 717 263 c 0
 721 254 722 241 720 225 c 0
 713 176 690 137 651 107 c 1
 686 101 719 100 751 104 c 0
 776 107 790 88 790 48 c 0
 790 7 778 -14 752 -15 c 0
 685 -17 610 -6 528 15 c 1
537 217 m 0
 475 210 410 177 344 118 c 1
 463 127 559 147 629 178 c 1
 605 208 574 221 537 217 c 0
EndSplineSet
Layer: 2
SplineSet
534.1796875 23.92578125 m 1
 501.627929688 11.23046875 441.731445312 2.44140625 354.4921875 -2.44140625 c 0
 233.723632812 -9.27734375 164.875976562 -7.8125 147.94921875 1.953125 c 0
 116.374023438 20.1826171875 88.7041015625 49.9677734375 64.94140625 91.30859375 c 0
 61.03515625 98.14453125 62.6630859375 100.911132812 69.82421875 99.609375 c 0
 141.438476562 86.5888671875 207.844726562 85.2861328125 269.04296875 95.703125 c 1
 335.9375 168.45703125 l 1
 340.168945312 215.657226562 338.623046875 288.249023438 331.298828125 386.23046875 c 128
 323.974609375 484.211914062 314.453125 576.334960938 302.734375 662.59765625 c 2
 296.38671875 709.9609375 l 1
 304.850585938 732.421875 312.98828125 751.139648438 320.80078125 766.11328125 c 0
 322.75390625 769.694335938 325.846679688 771.484375 330.078125 771.484375 c 128
 334.309570312 771.484375 337.890625 767.252929688 340.8203125 758.7890625 c 0
 350.5859375 729.166992188 362.956054688 706.706054688 377.9296875 691.40625 c 0
 386.393554688 682.942382812 387.532226562 674.479492188 381.34765625 666.015625 c 2
 362.3046875 640.625 l 2
 358.3984375 635.416992188 356.770507812 629.231445312 357.421875 622.0703125 c 0
 373.046875 451.823242188 379.8828125 351.07421875 377.9296875 319.82421875 c 128
 375.9765625 288.57421875 369.303710938 244.465820312 357.91015625 187.5 c 1
 421.38671875 241.536132812 485.83984375 283.69140625 551.26953125 313.96484375 c 0
 588.37890625 331.217773438 616.2109375 336.262695312 634.765625 329.1015625 c 0
 663.411132812 317.708007812 686.5234375 293.620117188 704.1015625 256.8359375 c 0
 707.356445312 250 707.844726562 240.234375 705.56640625 227.5390625 c 0
 695.475585938 169.921875 670.41015625 126.627929688 630.37109375 97.65625 c 1
 681.477539062 88.5419921875 722.004882812 86.1005859375 751.953125 90.33203125 c 0
 761.393554688 91.6337890625 767.578125 85.6123046875 770.5078125 72.265625 c 0
 776.3671875 45.8984375 775.797851562 27.34375 768.798828125 16.6015625 c 128
 761.799804688 5.859375 756.184570312 0.3251953125 751.953125 0 c 0
 686.848632812 -5.2080078125 614.2578125 2.7666015625 534.1796875 23.92578125 c 1
534.66796875 225.09765625 m 0
 470.21484375 216.633789062 399.4140625 174.967773438 322.265625 100.09765625 c 1
 446.614257812 108.561523438 550.78125 131.022460938 634.765625 167.48046875 c 1
 609.375 211.42578125 576.008789062 230.631835938 534.66796875 225.09765625 c 0
EndSplineSet
EndChar

StartChar: aTaa.init
Encoding: 65593 -1 57
Width: 567
AnchorPoint: "TashkilBelow" 244 -327 basechar 0
AnchorPoint: "TashkilAbove" 342 801 basechar 0
AnchorPoint: "TwoDotsAbove" 317 488 basechar 0
AnchorPoint: "DotAbove" 374 488 basechar 0
LayerCount: 3
Fore
SplineSet
118 157 m 1
 124 200 123 281 115 400 c 128
 107 519 99 589 95 612 c 128
 91 635 89 647 90 650 c 0
 92 665 101 686 117 715 c 0
 128 734 138 732 148 710 c 0
 165 674 178 652 186 643 c 0
 200 627 202 613 192 601 c 2
 167 573 l 2
 166 571 166 568 166 562 c 0
 175 429 179 344 177 307 c 128
 175 270 172 234 167 199 c 1
 258 275 327 319 372 331 c 0
 428 346 471 320 504 256 c 0
 510 245 510 232 506 217 c 0
 493 171 475 132 454 101 c 128
 433 70 400 49 356 39 c 0
 232 10 114 -8 0 -15 c 1
 -14 -15 -24 -6 -30 14 c 128
 -36 34 -38 53 -34 73 c 128
 -30 93 -19 104 0 105 c 1
 35 106 58 107 69 109 c 1
 118 157 l 1
340 214 m 0
 290 213 224 180 145 116 c 1
 272 129 368 146 435 167 c 1
 409 199 377 214 340 214 c 0
EndSplineSet
Layer: 2
SplineSet
125 708.49609375 m 0
 127.604492188 712.077148438 130.37109375 713.459960938 133.30078125 712.646484375 c 128
 136.23046875 711.833007812 138.508789062 709.309570312 140.13671875 705.078125 c 0
 156.73828125 666.666992188 171.061523438 640.788085938 183.10546875 627.44140625 c 0
 188.639648438 621.58203125 188.4765625 614.909179688 182.6171875 607.421875 c 2
 162.59765625 582.03125 l 2
 158.69140625 577.473632812 157.063476562 570.3125 157.71484375 560.546875 c 0
 166.50390625 427.409179688 170.8984375 353.840820312 170.8984375 339.84375 c 0
 170.8984375 273.112304688 166.666992188 219.7265625 158.203125 179.6875 c 1
 255.534179688 258.137695312 327.961914062 303.7109375 375.48828125 316.40625 c 0
 400.227539062 323.2421875 420.41015625 323.73046875 436.03515625 317.87109375 c 0
 460.774414062 308.430664062 482.584960938 285.64453125 501.46484375 249.51171875 c 0
 505.37109375 242.024414062 505.696289062 232.584960938 502.44140625 221.19140625 c 0
 490.72265625 179.19921875 473.6328125 141.11328125 451.171875 106.93359375 c 24
 435.546875 82.8447265625 402.668945312 64.94140625 352.5390625 53.22265625 c 0
 230.46875 24.90234375 112.956054688 7.1611328125 0 0 c 0
 -6.8359375 -0.3251953125 -12.6142578125 6.9990234375 -17.333984375 21.97265625 c 128
 -22.0537109375 36.9462890625 -23.1123046875 51.9208984375 -20.5078125 66.89453125 c 128
 -17.9033203125 81.8681640625 -11.0673828125 89.6806640625 0 90.33203125 c 0
 28.3203125 91.6337890625 50.29296875 93.4248046875 65.91796875 95.703125 c 1
 122.0703125 149.90234375 l 1
 123.372070312 155.110351562 124.674804688 167.643554688 125.9765625 187.5 c 0
 127.278320312 207.682617188 127.766601562 233.3984375 127.44140625 264.6484375 c 128
 127.116210938 295.8984375 124.348632812 352.702148438 119.140625 435.05859375 c 0
 113.28125 531.73828125 108.154296875 591.471679688 103.759765625 614.2578125 c 128
 99.365234375 637.043945312 97.8193359375 650.227539062 99.12109375 653.80859375 c 0
 107.258789062 675.618164062 115.885742188 693.84765625 125 708.49609375 c 0
339.84375 225.5859375 m 0
 332.682617188 225.5859375 325.68359375 224.609375 318.84765625 222.65625 c 0
 252.766601562 201.171875 188.96484375 160.15625 127.44140625 99.609375 c 1
 255.045898438 110.3515625 357.584960938 129.557617188 435.05859375 157.2265625 c 0
 438.96484375 158.528320312 439.94140625 160.807617188 437.98828125 164.0625 c 0
 410.969726562 204.426757812 378.254882812 224.934570312 339.84375 225.5859375 c 0
EndSplineSet
EndChar

StartChar: aTaa.isol
Encoding: 65594 -1 58
Width: 792
AnchorPoint: "TashkilBelow" 439 -327 basechar 0
AnchorPoint: "TashkilAbove" 537 801 basechar 0
AnchorPoint: "TwoDotsAbove" 513 488 basechar 0
AnchorPoint: "DotAbove" 566 488 basechar 0
LayerCount: 3
Fore
SplineSet
294 557 m 0
 285 621 280 656 279 662 c 0
 278 668 279 675 284 686 c 0
 286 687 292 702 304 731 c 0
 307 739 312 744 319 744 c 0
 326 744 331 739 336 727 c 0
 343 709 349 696 353 688 c 128
 357 680 365 668 378 654 c 128
 391 640 392 628 384 617 c 1
 366 595 357 583 357 583 c 0
 372 421 378 318 374 275 c 128
 370 232 368 203 366 186 c 1
 467 277 551 326 618 333 c 0
 640 335 661 330 679 317 c 0
 712 295 729 270 732 245 c 128
 735 220 728 189 709 153 c 128
 690 117 675 93 663 80 c 0
 644 61 590 37 500 8 c 128
 410 -21 313 -37 211 -42 c 1
 171 -35 139 -23 114 -4 c 128
 89 15 71 31 60 45 c 0
 30 82 35 100 75 95 c 0
 128 89 192 87 267 92 c 1
 325 149 l 1
 329 242 318 378 294 557 c 0
513 193 m 128
 445 175 389 146 344 104 c 1
 473 119 574 146 645 184 c 1
 625 208 581 211 513 193 c 128
EndSplineSet
Layer: 2
SplineSet
289.0625 672.36328125 m 0
 301.7578125 702.961914062 309.326171875 719.889648438 311.767578125 723.14453125 c 128
 314.208984375 726.399414062 317.301757812 727.864257812 321.044921875 727.5390625 c 128
 324.788085938 727.213867188 327.1484375 725.422851562 328.125 722.16796875 c 0
 335.286132812 704.264648438 341.145507812 690.348632812 345.703125 680.419921875 c 128
 350.260742188 670.491210938 359.211914062 658.203125 372.55859375 643.5546875 c 25
 377.44140625 636.067382812 377.44140625 629.231445312 372.55859375 623.046875 c 18
 353.515625 598.14453125 l 10
 349.609375 592.936523438 347.981445312 587.239257812 348.6328125 581.0546875 c 0
 363.606445312 419.921875 369.709960938 314.778320312 366.943359375 265.625 c 128
 364.176757812 216.471679688 361.002929688 183.430664062 357.421875 166.50390625 c 1
 439.778320312 230.95703125 498.53515625 271.565429688 533.69140625 288.330078125 c 128
 568.84765625 305.094726562 599.12109375 315.104492188 624.51171875 318.359375 c 0
 638.18359375 319.987304688 653.645507812 315.4296875 670.8984375 304.6875 c 1
 707.03125 281.25 726.237304688 259.602539062 728.515625 239.74609375 c 128
 730.793945312 219.889648438 723.14453125 192.87109375 705.56640625 158.69140625 c 128
 687.98828125 124.51171875 673.502929688 101.5625 662.109375 89.84375 c 0
 645.182617188 72.265625 590.983398438 49.3974609375 499.51171875 21.240234375 c 128
 408.040039062 -6.9169921875 312.336914062 -23.2744140625 212.40234375 -27.83203125 c 1
 175.29296875 -21.6474609375 144.450195312 -9.8466796875 119.873046875 7.568359375 c 128
 95.2958984375 24.9833984375 78.4501953125 41.748046875 69.3359375 57.861328125 c 128
 60.2216796875 73.974609375 61.3603515625 81.3798828125 72.75390625 80.078125 c 0
 120.930664062 73.2421875 184.407226562 72.5908203125 263.18359375 78.125 c 1
 329.1015625 142.578125 l 1
 332.682617188 211.9140625 330.891601562 284.342773438 323.73046875 359.86328125 c 128
 316.569335938 435.383789062 309.245117188 501.708984375 301.7578125 558.837890625 c 128
 294.270507812 615.966796875 289.713867188 647.786132812 288.0859375 654.296875 c 128
 286.458007812 660.807617188 286.784179688 666.829101562 289.0625 672.36328125 c 0
503.41796875 204.1015625 m 24
 455.241210938 189.453125 394.694335938 149.739257812 321.77734375 84.9609375 c 1
 459.147460938 100.260742188 568.84765625 129.557617188 650.87890625 172.8515625 c 1
 628.743164062 216.796875 579.58984375 227.213867188 503.41796875 204.1015625 c 24
EndSplineSet
EndChar

